{"glyphs":{"0":{"ha":658,"x_min":42,"x_max":621,"o":"m 356 1 q 321 -15 343 -24 q 288 19 299 -7 l 279 39 q 271 65 278 51 q 257 89 264 78 q 224 151 242 117 q 182 208 206 185 l 138 283 q 127 317 138 301 q 107 346 117 332 q 83 392 99 361 q 54 453 67 424 q 42 490 42 482 q 57 533 46 514 q 90 592 68 557 q 135 665 113 628 q 175 729 158 701 q 193 764 192 757 q 205 783 206 771 q 214 806 204 796 q 234 831 225 818 q 250 858 243 844 q 264 890 257 874 q 281 919 271 906 q 287 932 286 926 q 289 943 288 938 q 298 965 293 954 q 313 983 303 975 q 333 985 325 993 q 361 956 351 971 q 385 907 371 942 q 403 874 392 890 q 419 831 414 858 q 432 802 422 815 q 447 774 442 789 q 465 742 451 765 q 492 697 478 719 q 510 664 506 674 q 522 644 515 654 q 529 621 528 635 q 533 607 529 614 q 543 594 538 600 q 581 544 567 572 q 613 490 594 515 q 614 467 621 478 q 578 400 593 436 q 539 336 563 364 q 514 296 524 318 q 486 256 504 274 q 474 222 486 239 q 438 165 461 206 q 431 148 439 154 q 418 133 422 142 q 414 113 414 128 q 410 94 414 99 q 383 50 400 81 q 356 1 365 19 m 315 54 q 326 46 322 44 q 339 56 329 47 q 349 80 350 65 q 358 101 349 94 q 374 131 372 111 q 382 161 375 151 q 399 187 388 169 q 420 222 410 204 q 432 247 431 240 q 447 269 435 260 q 461 292 460 278 q 475 313 472 300 q 486 335 478 325 q 511 369 501 350 q 529 411 521 389 q 549 453 540 440 q 563 478 558 467 l 524 538 q 517 546 521 542 q 513 554 513 550 q 503 576 511 567 q 493 597 496 586 q 479 626 492 603 q 451 678 467 649 q 421 733 436 708 q 397 768 406 758 q 375 806 388 781 q 351 858 363 832 q 331 897 339 885 q 318 884 322 893 q 306 861 314 875 q 277 824 294 853 q 244 764 260 794 q 224 721 229 733 q 213 695 218 708 q 193 674 208 682 q 149 594 175 631 q 104 517 122 557 q 95 502 101 510 q 90 483 89 494 q 103 465 92 475 q 114 449 114 456 q 122 424 114 435 q 136 403 131 414 q 192 296 164 342 q 196 277 197 286 q 204 261 194 268 q 221 243 215 254 q 232 222 226 232 q 274 139 254 185 q 315 54 294 93 m 342 439 q 292 443 296 439 q 281 462 285 451 q 272 482 276 472 q 282 501 269 489 q 304 515 294 514 q 318 522 313 517 q 336 522 324 526 q 359 504 351 515 q 372 481 367 493 q 362 457 375 475 q 342 439 349 439 m 328 469 q 335 475 331 469 q 338 482 339 481 q 333 490 335 486 q 326 494 331 493 q 321 495 322 497 q 317 493 319 493 q 310 489 314 492 q 307 483 306 486 q 314 472 310 478 q 328 469 315 469 z "},"1":{"ha":658,"x_min":118,"x_max":588,"o":"m 146 1 q 118 32 118 4 l 118 39 l 157 39 q 203 49 182 39 q 231 38 219 49 q 242 39 235 33 q 265 49 256 50 q 285 45 275 47 q 310 49 294 43 q 322 53 317 51 q 326 60 326 54 q 326 133 326 96 q 328 206 326 169 l 328 357 q 327 490 328 424 q 326 624 326 557 q 326 672 326 657 q 327 694 326 686 q 328 717 328 703 q 328 765 328 732 q 326 788 328 776 q 325 813 325 800 q 332 842 325 824 q 338 861 339 860 q 326 922 326 874 q 329 954 326 949 q 353 974 332 960 q 370 963 364 974 q 376 944 376 953 q 376 917 376 940 q 374 869 375 894 q 374 831 374 844 l 374 101 q 374 81 374 92 q 375 60 374 71 q 385 50 375 50 q 413 49 404 50 q 431 49 422 49 q 458 49 439 49 q 485 55 469 56 q 531 54 500 54 q 560 44 546 43 q 588 38 574 44 q 556 6 588 10 q 522 0 546 1 q 472 -1 499 -1 q 424 1 446 0 q 397 1 403 1 q 263 0 307 0 q 202 1 218 0 q 178 3 186 3 q 163 2 171 3 q 146 1 154 1 m 211 707 q 164 690 186 689 q 138 710 142 690 q 130 726 136 718 q 124 740 124 735 q 131 760 126 751 q 142 778 136 769 q 165 783 150 786 q 194 772 179 779 q 215 756 210 764 q 222 731 228 743 q 211 707 219 715 m 185 729 q 188 736 188 732 q 186 743 189 740 q 176 749 185 746 q 165 749 168 751 q 163 744 164 747 q 161 739 161 742 q 163 735 161 738 q 165 731 164 733 q 173 725 167 725 q 185 729 179 725 z "},"2":{"ha":658,"x_min":69,"x_max":589,"o":"m 114 0 q 81 15 93 0 q 71 32 69 31 q 78 51 76 42 q 79 69 79 60 l 78 503 q 87 517 78 510 q 111 526 96 525 l 324 526 q 338 526 331 526 q 350 525 344 525 q 367 528 358 525 q 383 538 376 531 q 405 538 394 536 q 424 533 415 539 q 451 528 433 528 q 478 536 469 529 q 484 537 479 539 q 490 532 489 535 q 510 529 501 522 q 526 538 519 536 q 537 547 536 540 q 538 560 538 553 l 543 806 q 544 838 543 817 q 542 868 544 858 q 539 885 542 876 q 542 903 536 893 q 535 921 546 913 q 514 924 524 929 q 503 917 510 921 q 493 917 496 913 q 463 926 483 926 q 431 926 442 926 l 110 926 q 98 928 104 926 q 85 936 92 931 q 81 949 81 940 q 101 969 85 968 q 120 970 108 969 q 167 971 132 971 q 176 971 171 971 q 186 969 181 971 q 204 972 196 968 q 225 978 213 976 q 236 970 231 968 q 248 976 242 972 q 260 975 254 979 q 281 969 269 969 q 308 970 286 969 q 335 971 329 971 q 339 969 338 971 l 554 969 q 588 942 588 969 q 585 814 588 883 q 583 686 583 744 q 583 587 583 632 q 583 532 582 542 q 578 511 585 522 q 569 490 572 500 q 556 484 568 483 q 538 485 544 485 l 310 485 q 294 485 303 485 q 279 483 286 485 q 214 478 242 475 q 185 479 186 481 q 166 473 175 471 q 147 482 157 475 q 131 476 139 490 q 122 457 122 465 q 124 422 122 447 q 131 388 125 396 q 131 369 136 378 q 122 350 125 360 q 129 331 121 340 q 131 308 138 321 q 123 295 126 301 q 126 278 119 289 q 127 264 133 271 q 121 249 121 257 q 121 199 121 233 q 126 150 121 165 q 128 143 129 146 q 125 136 126 140 q 121 96 119 114 q 124 56 122 78 q 149 49 135 49 q 187 50 172 50 q 228 50 201 50 q 261 44 239 50 q 318 39 283 39 q 337 44 328 39 q 354 51 346 50 q 369 46 363 51 q 383 40 375 40 q 437 39 422 39 q 460 44 451 39 q 478 50 471 50 l 565 50 q 579 43 572 50 q 588 25 586 36 q 581 10 589 19 q 564 0 574 0 l 114 0 m 389 233 q 342 216 364 215 q 315 236 319 217 q 308 253 314 244 q 301 267 301 261 q 309 287 304 278 q 319 304 314 296 q 342 309 328 313 q 372 298 357 306 q 393 282 388 290 q 400 257 406 269 q 389 233 397 242 m 363 256 q 365 263 365 258 q 364 269 367 267 q 354 275 363 272 q 343 275 346 278 q 340 271 342 274 q 339 265 339 268 q 340 262 339 264 q 343 257 342 260 q 351 251 344 251 q 363 256 357 251 z "},"3":{"ha":658,"x_min":67,"x_max":589,"o":"m 108 0 q 89 6 100 0 q 72 20 78 11 q 75 36 67 29 q 101 44 79 39 q 142 50 124 50 q 171 44 164 50 q 203 39 178 39 q 260 42 231 39 q 300 46 290 46 l 536 42 q 516 65 526 49 q 494 94 506 81 q 469 119 483 110 q 439 147 454 129 q 431 162 438 150 q 417 183 425 174 q 403 190 410 193 q 396 197 399 188 q 386 211 393 206 q 364 231 374 226 q 346 268 354 236 q 338 275 346 272 q 329 278 329 278 q 330 291 335 289 q 318 293 325 293 q 308 299 311 293 q 298 316 307 303 q 280 342 289 329 q 269 356 271 354 q 226 407 242 389 q 199 438 210 425 q 178 465 189 450 q 174 473 178 467 q 169 489 169 479 q 174 497 169 493 q 182 507 179 501 q 228 567 199 532 q 290 642 257 603 q 352 717 324 681 q 397 779 381 753 q 415 796 401 789 q 418 807 419 799 q 421 817 417 815 q 449 860 449 831 q 457 882 449 874 q 481 899 465 890 q 494 911 492 908 q 500 922 496 914 q 486 922 496 924 q 469 924 476 921 q 438 929 457 929 q 416 928 426 929 q 396 926 406 928 q 371 922 390 922 q 333 923 351 922 q 307 924 314 924 l 117 922 q 69 942 72 928 q 78 961 67 956 q 83 967 81 964 q 96 972 86 971 l 535 972 q 561 949 561 972 q 553 924 561 931 q 531 890 544 918 q 487 827 518 868 q 416 736 456 786 q 337 636 376 686 q 265 547 297 586 q 217 488 232 507 q 231 463 213 483 q 302 385 271 422 q 379 292 333 349 q 438 221 404 261 q 508 139 472 181 q 571 61 543 97 q 583 45 578 53 q 589 31 589 38 q 584 12 589 24 q 565 0 579 0 l 108 0 m 410 436 q 383 448 396 436 q 358 469 369 460 q 358 501 347 486 q 376 518 367 513 q 399 521 385 524 q 440 509 425 521 q 454 481 454 497 q 444 453 454 471 q 410 436 435 436 m 406 467 q 414 472 413 467 q 415 479 415 478 q 401 489 415 489 q 392 485 397 490 q 392 476 390 479 q 406 467 397 467 z "},"4":{"ha":658,"x_min":39,"x_max":574,"o":"m 76 174 q 49 178 54 174 q 44 197 44 183 q 44 221 39 208 q 56 251 44 222 q 83 324 67 281 q 117 414 100 368 q 147 495 133 460 q 165 543 161 531 q 186 569 172 561 q 187 590 182 582 q 201 606 192 597 q 215 634 208 613 q 218 665 221 656 q 218 674 217 668 q 221 681 219 679 q 233 689 229 683 q 240 701 238 694 q 253 728 242 704 q 279 788 264 753 q 310 860 294 824 q 336 926 325 897 q 342 942 339 935 q 340 960 344 950 l 360 983 q 371 988 361 985 q 390 989 381 992 q 393 965 399 986 q 384 926 389 953 q 379 885 379 899 q 363 874 372 888 q 347 839 354 860 q 335 799 339 818 q 332 774 331 781 q 329 760 333 768 q 319 749 325 751 q 306 729 314 744 q 278 674 297 714 q 221 556 260 635 q 214 533 219 551 q 203 497 208 515 q 196 474 197 479 q 183 457 188 474 q 175 435 178 440 l 103 246 q 107 225 97 231 q 138 226 115 226 q 169 226 161 226 q 185 226 178 226 q 201 218 193 225 q 209 217 204 217 q 218 217 214 217 l 469 224 q 486 226 475 224 q 508 226 497 228 q 506 268 507 244 q 504 285 506 276 q 496 300 503 294 l 503 329 q 523 342 506 343 q 542 326 540 342 q 544 296 543 318 q 548 252 546 274 q 556 224 550 231 q 559 200 560 219 q 556 175 558 181 q 551 158 551 169 q 551 113 550 146 q 554 4 553 79 q 548 -47 554 -33 q 533 -57 542 -60 q 516 -44 524 -54 q 508 -29 508 -35 q 510 -13 508 -21 q 518 1 513 -6 q 510 35 508 13 q 517 69 511 58 q 517 101 519 79 q 507 131 514 122 q 503 139 506 133 q 503 146 501 144 q 510 158 510 151 q 511 174 511 165 q 511 179 511 175 l 510 179 q 499 178 504 178 q 486 179 493 179 l 431 178 q 392 177 411 178 q 353 176 372 176 q 339 174 346 175 q 325 174 332 174 q 290 174 315 174 q 256 179 265 174 q 242 179 250 182 q 226 176 233 176 l 76 174 m 540 442 q 490 446 494 442 q 479 465 483 454 q 471 485 475 475 q 481 504 468 492 q 503 518 493 517 q 517 524 511 519 q 535 525 522 529 q 558 507 550 518 q 571 483 565 496 q 560 460 574 478 q 540 442 547 442 m 526 472 q 533 478 529 472 q 536 485 538 483 q 531 492 533 489 q 525 497 529 496 q 519 498 521 500 q 515 496 518 496 q 508 492 513 494 q 506 486 504 489 q 513 475 508 481 q 526 472 514 472 z "},"5":{"ha":658,"x_min":68,"x_max":592,"o":"m 93 0 q 76 10 83 0 q 69 25 68 19 q 79 39 72 32 q 92 46 86 46 l 189 46 q 207 40 196 46 q 225 35 215 35 q 242 36 235 35 q 256 43 249 39 q 271 47 263 47 q 300 44 276 47 q 347 38 324 40 q 376 35 371 35 q 399 36 394 35 q 404 40 403 38 q 412 44 406 43 q 439 46 418 46 q 476 46 463 46 q 513 44 490 46 q 538 51 528 44 q 541 94 540 74 q 536 136 542 114 q 533 143 535 140 q 535 150 532 146 q 541 199 542 165 q 540 249 540 233 q 535 264 540 257 q 535 278 529 271 q 538 295 542 289 q 531 308 535 301 q 533 331 525 321 q 539 350 540 340 q 531 369 538 360 q 531 388 525 378 q 538 415 538 396 q 539 443 539 433 q 531 463 539 451 q 514 468 522 476 q 495 459 504 461 q 476 465 486 457 q 453 464 475 467 q 415 469 432 461 q 401 472 410 472 q 385 471 392 471 l 117 471 q 99 470 111 471 q 85 476 88 469 q 76 497 83 486 q 71 518 69 508 q 72 545 72 525 q 72 615 72 565 q 74 756 72 664 q 75 822 75 794 q 75 876 75 849 q 75 942 75 903 q 108 969 75 969 l 361 969 q 365 971 363 971 q 376 970 371 971 q 386 969 381 969 q 407 975 397 969 q 419 976 413 979 q 431 970 425 972 q 442 978 438 968 q 458 972 450 976 q 475 969 465 968 q 485 971 481 971 q 494 971 490 971 q 542 970 531 971 q 560 969 553 969 q 581 949 576 968 q 576 936 581 940 q 567 929 572 932 q 537 902 553 919 q 511 885 521 885 q 506 868 508 872 q 492 861 504 864 q 471 842 482 858 q 457 815 460 826 q 452 808 456 813 q 446 803 449 803 q 431 802 438 806 q 418 793 425 799 q 388 763 414 792 q 323 694 361 735 q 247 612 285 653 q 185 543 210 571 q 176 534 176 535 q 176 533 176 533 q 167 522 175 532 q 199 519 181 510 q 218 524 207 525 q 239 524 229 522 q 255 514 246 517 q 272 511 264 511 q 286 512 279 511 q 299 513 293 513 l 550 513 q 574 504 565 513 q 583 489 583 496 l 582 69 q 583 51 582 60 q 590 32 585 42 q 580 15 592 31 q 547 0 568 0 l 93 0 m 113 532 q 140 559 124 543 q 164 588 157 575 q 185 594 169 582 q 217 627 200 607 q 248 666 235 647 q 264 692 261 685 q 273 703 265 697 q 288 708 281 708 q 316 732 293 708 q 368 790 339 756 q 426 856 397 824 q 474 906 456 888 q 481 914 476 908 q 494 926 485 919 l 200 926 q 180 926 190 926 q 160 917 169 926 q 152 917 157 913 q 143 924 147 921 q 122 921 133 929 q 115 903 111 913 q 118 885 121 893 q 115 868 115 876 q 114 838 114 858 q 114 806 114 817 l 111 546 q 111 539 111 543 q 113 532 111 535 m 278 222 q 267 246 269 231 q 274 271 261 258 q 295 287 281 279 q 325 298 310 294 q 347 293 340 301 q 358 276 353 285 q 365 256 364 267 q 360 242 365 250 q 351 225 354 233 q 325 205 347 206 q 278 222 303 204 m 304 244 q 317 240 311 240 q 324 246 322 240 q 326 251 325 249 q 328 254 328 253 q 326 260 328 257 q 324 264 325 263 q 313 264 321 267 q 303 258 306 261 q 301 251 300 256 q 304 244 301 247 z "},"6":{"ha":658,"x_min":71,"x_max":592,"o":"m 110 -1 q 78 6 83 -1 q 72 17 72 13 q 71 28 71 22 q 71 40 71 35 l 71 503 q 192 747 132 629 q 294 947 251 864 q 310 977 307 972 q 326 978 313 982 l 343 972 q 344 963 344 967 q 343 956 343 960 q 335 933 340 950 q 328 910 331 917 l 124 501 q 154 502 138 503 q 172 503 171 501 q 208 509 183 508 q 244 510 233 510 q 424 513 358 511 q 518 517 489 515 q 553 518 547 519 q 569 510 561 518 q 575 492 578 501 q 581 467 575 478 q 588 444 588 456 q 585 436 588 440 q 579 428 582 432 q 586 411 589 419 q 579 394 583 403 q 579 313 579 356 q 579 233 579 269 q 579 174 579 196 q 585 162 579 168 q 585 149 592 156 q 581 107 575 139 q 588 26 588 75 q 580 10 588 17 q 564 1 572 3 l 200 1 q 178 -1 189 0 q 156 -1 167 -1 q 130 -3 142 -4 q 110 -1 118 -1 m 188 40 l 536 40 q 549 56 549 40 l 546 142 q 542 164 551 154 q 543 183 533 174 q 538 199 542 192 q 535 215 533 206 q 535 249 535 219 q 536 316 536 278 q 536 384 536 354 q 536 418 536 414 q 535 438 535 428 q 535 458 535 449 q 526 471 535 468 l 224 467 q 179 465 201 467 q 138 461 157 463 q 118 442 118 460 l 118 422 q 117 361 118 404 q 117 264 117 318 q 116 159 117 210 q 115 75 115 108 q 114 42 114 42 q 135 41 125 42 q 150 46 144 40 q 169 44 160 49 q 188 40 178 40 m 308 210 q 291 225 299 213 q 283 249 283 238 q 292 271 283 261 q 322 295 301 283 q 356 292 342 307 l 375 272 q 376 254 386 261 q 367 232 367 247 q 345 210 367 211 q 308 210 324 208 m 325 242 q 335 241 329 240 q 340 247 340 242 q 343 254 340 253 q 343 258 346 256 l 338 264 q 328 265 333 268 q 321 258 324 261 q 318 253 318 257 q 325 242 318 244 z "},"7":{"ha":658,"x_min":50,"x_max":610,"o":"m 342 -7 q 333 -15 342 -7 q 315 -22 325 -22 q 303 -1 306 -22 q 303 26 303 6 q 302 70 303 46 q 299 115 301 94 q 293 140 297 135 q 290 153 290 144 q 294 168 290 163 q 299 190 299 174 q 298 251 299 207 q 300 383 297 296 q 299 404 300 388 q 298 441 299 421 q 296 472 297 461 q 302 490 299 483 q 324 528 306 497 l 531 897 q 526 918 538 911 l 478 918 q 462 920 469 918 q 447 928 454 922 q 440 930 446 931 q 431 929 435 929 l 114 926 q 91 924 107 926 q 63 927 75 922 q 51 950 50 932 q 60 965 51 957 q 74 972 68 972 q 85 973 79 974 q 97 972 92 972 l 328 972 q 342 973 335 972 q 356 974 349 974 q 374 974 365 974 q 393 968 383 975 q 407 967 399 965 q 422 969 415 969 l 572 969 q 599 964 594 969 q 604 944 604 958 q 604 921 610 933 q 588 901 604 921 q 549 847 571 882 q 510 764 528 813 q 493 730 500 735 q 486 725 486 725 q 481 713 482 721 q 474 703 481 706 q 462 693 460 699 q 461 682 464 688 q 397 567 428 624 q 351 472 367 511 q 353 437 353 451 q 353 415 353 422 q 344 385 356 397 q 350 365 351 375 q 343 344 349 356 q 342 313 339 336 q 350 282 344 290 q 354 275 353 281 q 354 268 356 269 q 346 256 347 263 q 344 240 344 249 q 344 214 344 242 q 342 144 343 186 q 342 56 342 101 q 342 39 342 47 q 350 24 343 31 l 342 -7 m 274 735 l 254 754 q 253 772 243 765 q 263 794 263 779 q 285 817 263 815 q 321 817 307 819 q 338 802 331 815 q 346 778 346 789 q 338 756 346 767 q 308 732 328 743 q 274 735 289 721 m 292 763 q 301 762 296 758 q 308 768 307 765 q 311 774 311 769 q 304 785 311 782 q 294 785 300 786 q 289 779 289 785 q 286 772 289 774 q 286 768 283 771 l 292 763 z "},"8":{"ha":658,"x_min":57,"x_max":603,"o":"m 349 -6 q 322 -6 338 -6 q 293 1 307 -7 q 281 3 289 6 q 265 1 272 1 l 74 1 q 58 18 58 1 q 58 28 58 24 q 58 39 57 33 q 74 66 65 51 q 89 96 83 81 q 115 156 97 121 q 146 204 132 190 q 161 231 158 214 q 176 267 164 250 q 197 303 188 285 q 215 337 207 319 q 238 368 222 354 q 245 384 246 375 q 250 401 244 393 q 275 442 265 421 q 296 485 285 464 q 300 499 299 492 q 296 510 301 506 q 283 528 286 517 q 274 549 279 539 q 257 583 268 567 q 238 617 246 599 q 219 647 229 632 q 208 679 208 661 l 208 681 q 191 710 196 693 q 171 736 186 726 q 164 744 165 742 q 140 788 151 765 q 117 829 129 810 q 92 868 104 849 q 68 908 79 888 q 61 926 64 918 q 58 943 58 933 q 65 965 58 963 q 89 967 71 967 q 106 966 97 967 q 121 958 114 965 q 138 960 126 954 q 151 967 150 967 q 165 962 158 967 q 181 967 172 957 l 290 967 q 310 967 300 967 q 328 958 319 967 q 364 963 338 961 q 397 960 390 965 q 406 958 400 958 q 413 958 411 957 q 439 967 424 967 q 465 960 454 967 q 476 961 472 956 q 485 967 479 967 l 565 967 q 583 959 575 967 q 590 943 590 951 q 590 931 590 938 q 588 918 590 924 q 557 869 576 894 q 543 838 543 847 q 531 817 543 828 q 501 776 511 799 q 478 733 492 753 q 462 700 468 718 q 440 667 456 682 q 426 644 435 661 q 408 609 417 626 q 394 583 399 592 q 383 562 389 574 q 371 540 378 550 q 363 526 367 532 q 360 508 358 519 q 349 488 349 501 q 352 474 349 481 q 360 460 356 467 q 380 422 367 449 q 406 369 393 396 q 426 333 419 343 q 452 294 439 314 q 476 254 465 275 q 496 218 481 246 q 531 154 511 190 q 570 84 551 118 q 599 29 589 50 q 597 10 603 19 q 579 0 590 0 l 429 0 q 408 -1 418 0 q 386 4 397 -1 q 369 -4 379 -3 q 349 -6 360 -6 m 321 543 q 332 547 328 538 q 349 580 340 564 q 365 611 357 596 q 390 654 372 622 q 427 722 407 686 q 462 785 447 758 q 476 813 476 811 q 487 839 476 821 q 510 875 497 857 q 529 899 522 893 q 526 922 540 910 q 494 929 513 933 q 485 923 489 928 q 476 918 481 918 l 435 918 q 420 923 428 918 q 403 921 413 928 q 373 929 393 931 q 346 925 353 928 q 332 924 339 918 q 318 922 325 929 q 306 917 313 917 q 293 921 299 918 q 225 919 257 936 q 199 922 210 914 q 185 922 192 928 q 174 924 179 917 q 163 924 169 931 q 138 925 153 913 q 117 922 131 924 q 113 911 103 921 q 133 875 128 896 q 146 853 133 863 q 169 820 161 839 q 188 782 178 801 q 210 749 197 764 q 232 714 222 733 q 247 683 240 700 q 261 651 254 667 q 278 619 271 635 q 293 586 285 604 q 307 565 304 576 q 321 543 310 554 m 333 744 q 306 756 319 744 q 282 778 293 768 q 282 810 271 794 q 299 826 290 821 q 322 829 308 832 q 363 817 349 829 q 378 789 378 806 q 368 762 378 779 q 333 744 358 744 m 329 775 q 338 781 336 775 q 339 788 339 786 q 325 797 339 797 q 315 793 321 799 q 315 785 314 788 q 329 775 321 775 m 344 32 q 371 39 357 39 q 383 39 375 39 q 418 43 392 39 q 426 44 422 44 q 435 44 431 44 l 439 44 q 453 43 446 44 q 468 42 461 42 q 479 46 474 42 q 490 45 483 47 q 501 43 496 43 l 528 43 q 536 44 531 43 q 542 47 542 46 q 540 51 542 51 q 514 90 524 63 q 497 131 504 117 q 468 173 486 156 q 450 218 450 190 q 427 254 431 240 q 410 283 424 268 q 400 297 406 290 q 394 310 394 304 q 384 340 394 326 q 369 367 374 353 q 354 394 365 378 q 333 425 343 411 q 322 438 324 439 q 304 410 307 425 q 291 385 303 396 q 279 368 279 375 q 274 349 279 357 q 263 333 268 342 q 199 219 232 278 q 135 104 167 161 q 119 76 129 96 q 108 54 110 56 q 107 41 106 43 q 118 39 108 39 q 244 38 203 38 q 303 38 286 38 q 326 38 319 38 q 335 33 332 38 q 344 32 339 28 m 360 157 q 313 140 335 139 q 286 160 290 140 q 278 176 285 168 q 272 190 272 185 q 280 210 275 201 q 290 228 285 219 q 313 233 299 236 q 343 222 328 229 q 364 206 358 214 q 371 181 376 193 q 360 157 368 165 m 333 179 q 336 186 336 182 q 335 193 338 190 q 325 199 333 196 q 314 199 317 201 q 311 194 313 197 q 310 189 310 192 q 311 185 310 188 q 314 181 313 183 q 322 175 315 175 q 333 179 328 175 z "},"9":{"ha":658,"x_min":68,"x_max":588,"o":"m 319 -15 q 306 -14 314 -17 q 303 7 297 -11 q 310 30 306 13 q 318 53 315 47 l 535 461 q 510 459 521 460 q 497 456 500 458 q 478 452 488 450 q 457 451 468 454 q 436 461 447 460 q 414 463 425 463 q 247 463 307 463 q 158 463 186 463 q 119 463 129 463 q 106 463 110 463 q 90 471 97 463 q 83 489 82 479 q 77 515 83 504 q 71 536 71 526 q 74 544 71 540 q 79 553 76 549 q 72 569 69 561 q 79 586 75 578 q 80 708 81 644 q 79 804 79 772 q 74 817 79 811 q 74 829 68 824 q 77 868 83 839 q 71 946 71 897 q 78 963 71 956 q 94 971 86 969 l 458 971 q 481 973 469 972 q 503 974 493 974 q 529 978 518 976 q 549 979 540 979 q 581 972 575 979 q 586 961 586 965 q 588 949 588 956 q 588 938 588 943 l 588 463 q 549 392 567 419 q 510 317 532 364 q 492 290 507 311 q 476 256 476 268 q 458 225 476 235 q 451 215 458 225 q 442 188 444 204 q 434 162 440 168 q 425 150 428 156 q 410 123 424 146 q 379 70 396 100 q 351 15 363 40 q 319 -15 338 -14 m 521 503 q 540 522 540 503 l 540 556 q 541 616 540 574 q 542 712 542 658 q 543 815 543 765 q 544 897 543 864 q 544 929 544 929 q 524 930 535 929 q 508 925 514 931 q 490 922 499 919 q 471 925 481 925 l 125 925 q 113 910 113 925 l 113 836 q 117 815 107 824 q 115 794 126 806 q 122 779 118 786 q 124 763 125 772 q 123 728 124 758 q 122 660 122 699 q 122 592 122 622 q 122 558 122 563 q 124 539 125 549 q 124 518 124 529 q 132 506 124 508 l 435 506 q 448 506 442 506 q 460 504 454 507 q 491 500 478 497 q 521 503 504 503 m 297 667 l 278 686 q 276 704 267 697 q 286 726 286 711 q 308 749 286 747 q 344 749 331 751 q 362 734 354 747 q 369 710 369 721 q 361 688 369 699 q 332 664 351 675 q 297 667 313 653 m 315 694 q 325 694 319 690 q 332 700 331 697 q 335 706 335 701 q 328 717 335 714 q 318 717 324 718 q 313 711 313 717 q 310 704 313 706 q 310 700 307 703 l 315 694 z "},"A":{"ha":628,"x_min":53,"x_max":628,"o":"m 143 -7 q 122 -1 139 -3 q 88 1 104 0 q 67 1 72 1 q 57 8 61 3 q 57 17 53 14 q 67 38 67 26 q 67 67 67 49 q 67 301 67 210 q 67 446 67 393 q 68 524 68 499 q 68 558 68 550 q 68 571 68 567 q 75 581 78 575 q 69 592 72 586 q 75 600 67 597 q 77 613 76 607 q 78 626 78 619 l 78 761 q 78 772 78 767 q 79 783 79 778 q 77 798 79 790 q 68 811 75 806 q 67 818 67 814 q 67 825 67 822 l 67 946 q 83 970 67 963 q 110 967 99 978 q 123 954 117 961 q 135 940 129 947 q 149 916 142 928 q 167 894 156 904 q 179 872 167 881 q 192 849 192 864 q 200 828 193 839 q 213 807 207 818 q 264 711 239 760 q 315 613 289 663 q 328 593 322 603 q 342 575 333 583 q 353 553 350 565 q 367 529 357 540 q 382 488 382 514 q 411 439 400 465 q 440 390 422 413 q 454 363 450 381 q 468 332 458 346 q 484 305 475 324 q 501 267 493 286 q 514 239 510 247 q 529 216 521 229 q 543 190 538 203 q 583 119 563 156 q 621 46 603 83 q 626 34 625 40 q 628 24 628 28 q 606 3 628 7 q 574 0 585 0 l 526 11 q 501 5 513 10 q 474 0 489 0 q 442 1 468 0 q 382 1 415 1 q 320 1 349 1 q 279 1 292 1 l 183 1 q 160 -3 175 1 q 143 -7 144 -8 m 222 515 q 247 515 238 513 q 281 518 258 521 q 315 517 304 515 q 321 520 318 517 q 322 524 324 524 q 302 567 313 540 q 276 604 292 594 q 260 628 275 606 q 228 680 246 650 q 200 731 211 710 q 192 747 190 738 q 188 763 194 757 q 174 778 179 769 q 163 796 169 788 q 153 810 157 803 q 149 826 150 817 q 132 870 144 861 q 119 890 119 879 q 115 893 119 893 q 110 889 110 893 q 110 860 110 885 q 113 806 111 836 q 118 752 115 776 q 125 724 121 728 q 118 697 128 721 q 115 647 136 674 q 111 628 114 644 q 111 608 108 611 q 114 596 117 603 q 111 582 111 589 q 111 565 111 579 q 112 538 111 551 q 113 519 113 524 q 115 518 113 519 q 119 517 118 517 q 171 522 140 522 q 222 515 201 522 m 351 36 q 383 47 360 47 q 415 36 406 47 q 438 46 421 42 q 471 50 454 50 q 493 43 488 50 q 508 43 496 40 q 532 47 515 44 q 554 44 549 49 q 569 46 565 46 q 568 60 574 46 q 540 109 554 82 q 506 156 526 136 q 498 167 501 161 q 493 178 494 172 q 481 210 493 188 q 457 257 469 233 q 440 290 444 281 q 436 306 438 297 q 425 321 435 315 q 417 336 415 326 q 413 351 419 346 q 392 381 399 364 q 375 411 386 397 q 363 433 368 421 q 354 456 358 444 q 319 475 344 475 l 186 475 q 171 476 179 475 q 156 481 163 476 q 142 481 153 483 q 121 476 131 479 q 111 468 111 472 q 117 461 114 465 q 118 454 119 457 q 110 436 113 446 q 107 417 107 426 l 108 250 q 107 233 108 242 q 106 218 106 225 q 117 188 106 199 q 109 174 111 182 q 107 160 107 167 q 110 119 107 144 q 106 112 110 114 q 106 103 101 110 q 112 83 113 94 q 107 61 111 72 q 126 44 99 43 q 137 44 132 43 q 147 44 142 44 q 253 42 219 42 q 298 45 286 43 q 315 47 310 47 q 351 36 336 47 m 314 225 q 267 208 289 207 q 240 228 244 208 q 233 244 239 236 q 226 258 226 253 q 234 278 229 269 q 244 296 239 288 q 267 301 253 304 q 297 290 282 297 q 318 274 313 282 q 325 249 331 261 q 314 225 322 233 m 288 247 q 290 254 290 250 q 289 261 292 258 q 279 267 288 264 q 268 267 271 269 q 265 263 267 265 q 264 257 264 260 q 265 253 264 256 q 268 249 267 251 q 276 243 269 243 q 288 247 282 243 z "},"Á":{"ha":628,"x_min":40,"x_max":628,"o":"m 143 -7 q 122 -1 139 -3 q 88 1 104 0 q 67 1 72 1 q 57 8 61 3 q 57 17 53 14 q 67 38 67 26 q 67 67 67 49 q 67 301 67 210 q 67 446 67 393 q 68 524 68 499 q 68 558 68 550 q 68 571 68 567 q 75 581 78 575 q 69 592 72 586 q 75 600 67 597 q 77 613 76 607 q 78 626 78 619 l 78 761 q 78 772 78 767 q 79 783 79 778 q 77 798 79 790 q 68 811 75 806 q 67 818 67 814 q 67 825 67 822 l 67 946 q 83 970 67 963 q 110 967 99 978 q 123 954 117 961 q 135 940 129 947 q 149 916 142 928 q 167 894 156 904 q 179 872 167 881 q 192 849 192 864 q 200 828 193 839 q 213 807 207 818 q 264 711 239 760 q 315 613 289 663 q 328 593 322 603 q 342 575 333 583 q 353 553 350 565 q 367 529 357 540 q 382 488 382 514 q 411 439 400 465 q 440 390 422 413 q 454 363 450 381 q 468 332 458 346 q 484 305 475 324 q 501 267 493 286 q 514 239 510 247 q 529 216 521 229 q 543 190 538 203 q 583 119 563 156 q 621 46 603 83 q 626 34 625 40 q 628 24 628 28 q 606 3 628 7 q 574 0 585 0 l 526 11 q 501 5 513 10 q 474 0 489 0 q 442 1 468 0 q 382 1 415 1 q 320 1 349 1 q 279 1 292 1 l 183 1 q 160 -3 175 1 q 143 -7 144 -8 m 222 515 q 247 515 238 513 q 281 518 258 521 q 315 517 304 515 q 321 520 318 517 q 322 524 324 524 q 302 567 313 540 q 276 604 292 594 q 260 628 275 606 q 228 680 246 650 q 200 731 211 710 q 192 747 190 738 q 188 763 194 757 q 174 778 179 769 q 163 796 169 788 q 153 810 157 803 q 149 826 150 817 q 132 870 144 861 q 119 890 119 879 q 115 893 119 893 q 110 889 110 893 q 110 860 110 885 q 113 806 111 836 q 118 752 115 776 q 125 724 121 728 q 118 697 128 721 q 115 647 136 674 q 111 628 114 644 q 111 608 108 611 q 114 596 117 603 q 111 582 111 589 q 111 565 111 579 q 112 538 111 551 q 113 519 113 524 q 115 518 113 519 q 119 517 118 517 q 171 522 140 522 q 222 515 201 522 m 351 36 q 383 47 360 47 q 415 36 406 47 q 438 46 421 42 q 471 50 454 50 q 493 43 488 50 q 508 43 496 40 q 532 47 515 44 q 554 44 549 49 q 569 46 565 46 q 568 60 574 46 q 540 109 554 82 q 506 156 526 136 q 498 167 501 161 q 493 178 494 172 q 481 210 493 188 q 457 257 469 233 q 440 290 444 281 q 436 306 438 297 q 425 321 435 315 q 417 336 415 326 q 413 351 419 346 q 392 381 399 364 q 375 411 386 397 q 363 433 368 421 q 354 456 358 444 q 319 475 344 475 l 186 475 q 171 476 179 475 q 156 481 163 476 q 142 481 153 483 q 121 476 131 479 q 111 468 111 472 q 117 461 114 465 q 118 454 119 457 q 110 436 113 446 q 107 417 107 426 l 108 250 q 107 233 108 242 q 106 218 106 225 q 117 188 106 199 q 109 174 111 182 q 107 160 107 167 q 110 119 107 144 q 106 112 110 114 q 106 103 101 110 q 112 83 113 94 q 107 61 111 72 q 126 44 99 43 q 137 44 132 43 q 147 44 142 44 q 253 42 219 42 q 298 45 286 43 q 315 47 310 47 q 351 36 336 47 m 314 225 q 267 208 289 207 q 240 228 244 208 q 233 244 239 236 q 226 258 226 253 q 234 278 229 269 q 244 296 239 288 q 267 301 253 304 q 297 290 282 297 q 318 274 313 282 q 325 249 331 261 q 314 225 322 233 m 288 247 q 290 254 290 250 q 289 261 292 258 q 279 267 288 264 q 268 267 271 269 q 265 263 267 265 q 264 257 264 260 q 265 253 264 256 q 268 249 267 251 q 276 243 269 243 q 288 247 282 243 m 40 1033 q 69 1061 56 1047 q 99 1089 83 1075 q 144 1136 128 1114 q 165 1155 156 1146 q 185 1175 175 1164 q 197 1189 190 1182 q 213 1197 203 1196 q 219 1197 215 1200 q 226 1194 224 1193 q 239 1190 231 1197 q 244 1178 247 1182 q 231 1145 239 1161 q 201 1122 224 1129 q 186 1114 193 1119 q 172 1101 179 1108 q 148 1074 163 1089 q 110 1039 133 1058 q 66 1024 85 1021 q 40 1033 47 1028 z "},"Ă":{"ha":628,"x_min":-44,"x_max":628,"o":"m 143 -7 q 122 -1 139 -3 q 88 1 104 0 q 67 1 72 1 q 57 8 61 3 q 57 17 53 14 q 67 38 67 26 q 67 67 67 49 q 67 301 67 210 q 67 446 67 393 q 68 524 68 499 q 68 558 68 550 q 68 571 68 567 q 75 581 78 575 q 69 592 72 586 q 75 600 67 597 q 77 613 76 607 q 78 626 78 619 l 78 761 q 78 772 78 767 q 79 783 79 778 q 77 798 79 790 q 68 811 75 806 q 67 818 67 814 q 67 825 67 822 l 67 946 q 83 970 67 963 q 110 967 99 978 q 123 954 117 961 q 135 940 129 947 q 149 916 142 928 q 167 894 156 904 q 179 872 167 881 q 192 849 192 864 q 200 828 193 839 q 213 807 207 818 q 264 711 239 760 q 315 613 289 663 q 328 593 322 603 q 342 575 333 583 q 353 553 350 565 q 367 529 357 540 q 382 488 382 514 q 411 439 400 465 q 440 390 422 413 q 454 363 450 381 q 468 332 458 346 q 484 305 475 324 q 501 267 493 286 q 514 239 510 247 q 529 216 521 229 q 543 190 538 203 q 583 119 563 156 q 621 46 603 83 q 626 34 625 40 q 628 24 628 28 q 606 3 628 7 q 574 0 585 0 l 526 11 q 501 5 513 10 q 474 0 489 0 q 442 1 468 0 q 382 1 415 1 q 320 1 349 1 q 279 1 292 1 l 183 1 q 160 -3 175 1 q 143 -7 144 -8 m 222 515 q 247 515 238 513 q 281 518 258 521 q 315 517 304 515 q 321 520 318 517 q 322 524 324 524 q 302 567 313 540 q 276 604 292 594 q 260 628 275 606 q 228 680 246 650 q 200 731 211 710 q 192 747 190 738 q 188 763 194 757 q 174 778 179 769 q 163 796 169 788 q 153 810 157 803 q 149 826 150 817 q 132 870 144 861 q 119 890 119 879 q 115 893 119 893 q 110 889 110 893 q 110 860 110 885 q 113 806 111 836 q 118 752 115 776 q 125 724 121 728 q 118 697 128 721 q 115 647 136 674 q 111 628 114 644 q 111 608 108 611 q 114 596 117 603 q 111 582 111 589 q 111 565 111 579 q 112 538 111 551 q 113 519 113 524 q 115 518 113 519 q 119 517 118 517 q 171 522 140 522 q 222 515 201 522 m 351 36 q 383 47 360 47 q 415 36 406 47 q 438 46 421 42 q 471 50 454 50 q 493 43 488 50 q 508 43 496 40 q 532 47 515 44 q 554 44 549 49 q 569 46 565 46 q 568 60 574 46 q 540 109 554 82 q 506 156 526 136 q 498 167 501 161 q 493 178 494 172 q 481 210 493 188 q 457 257 469 233 q 440 290 444 281 q 436 306 438 297 q 425 321 435 315 q 417 336 415 326 q 413 351 419 346 q 392 381 399 364 q 375 411 386 397 q 363 433 368 421 q 354 456 358 444 q 319 475 344 475 l 186 475 q 171 476 179 475 q 156 481 163 476 q 142 481 153 483 q 121 476 131 479 q 111 468 111 472 q 117 461 114 465 q 118 454 119 457 q 110 436 113 446 q 107 417 107 426 l 108 250 q 107 233 108 242 q 106 218 106 225 q 117 188 106 199 q 109 174 111 182 q 107 160 107 167 q 110 119 107 144 q 106 112 110 114 q 106 103 101 110 q 112 83 113 94 q 107 61 111 72 q 126 44 99 43 q 137 44 132 43 q 147 44 142 44 q 253 42 219 42 q 298 45 286 43 q 315 47 310 47 q 351 36 336 47 m 314 225 q 267 208 289 207 q 240 228 244 208 q 233 244 239 236 q 226 258 226 253 q 234 278 229 269 q 244 296 239 288 q 267 301 253 304 q 297 290 282 297 q 318 274 313 282 q 325 249 331 261 q 314 225 322 233 m 288 247 q 290 254 290 250 q 289 261 292 258 q 279 267 288 264 q 268 267 271 269 q 265 263 267 265 q 264 257 264 260 q 265 253 264 256 q 268 249 267 251 q 276 243 269 243 q 288 247 282 243 m -11 1019 q -33 1026 -21 1018 q -43 1050 -44 1035 l -36 1160 q -1 1158 -8 1168 q 6 1140 6 1149 q 6 1120 6 1136 q 4 1093 6 1104 q 6 1076 3 1085 q 13 1061 8 1068 q 48 1061 29 1060 q 83 1064 67 1063 q 107 1067 94 1065 q 125 1065 119 1068 q 156 1060 136 1061 q 186 1060 175 1060 q 206 1092 213 1060 l 199 1132 q 205 1156 199 1142 q 228 1160 211 1169 q 241 1131 238 1156 q 244 1082 244 1107 q 243 1046 244 1057 q 234 1030 243 1039 q 218 1021 225 1021 q 184 1020 210 1019 q 128 1022 158 1021 q 72 1023 97 1022 q 38 1024 46 1024 q 13 1022 26 1024 q -11 1019 0 1021 z "},"Ắ":{"ha":628,"x_min":-46,"x_max":628,"o":"m 143 -7 q 122 -1 139 -3 q 88 1 104 0 q 67 1 72 1 q 57 8 61 3 q 57 17 53 14 q 67 38 67 26 q 67 67 67 49 q 67 301 67 210 q 67 446 67 393 q 68 524 68 499 q 68 558 68 550 q 68 571 68 567 q 75 581 78 575 q 69 592 72 586 q 75 600 67 597 q 77 613 76 607 q 78 626 78 619 l 78 761 q 78 772 78 767 q 79 783 79 778 q 77 798 79 790 q 68 811 75 806 q 67 818 67 814 q 67 825 67 822 l 67 946 q 83 970 67 963 q 110 967 99 978 q 123 954 117 961 q 135 940 129 947 q 149 916 142 928 q 167 894 156 904 q 179 872 167 881 q 192 849 192 864 q 200 828 193 839 q 213 807 207 818 q 264 711 239 760 q 315 613 289 663 q 328 593 322 603 q 342 575 333 583 q 353 553 350 565 q 367 529 357 540 q 382 488 382 514 q 411 439 400 465 q 440 390 422 413 q 454 363 450 381 q 468 332 458 346 q 484 305 475 324 q 501 267 493 286 q 514 239 510 247 q 529 216 521 229 q 543 190 538 203 q 583 119 563 156 q 621 46 603 83 q 626 34 625 40 q 628 24 628 28 q 606 3 628 7 q 574 0 585 0 l 526 11 q 501 5 513 10 q 474 0 489 0 q 442 1 468 0 q 382 1 415 1 q 320 1 349 1 q 279 1 292 1 l 183 1 q 160 -3 175 1 q 143 -7 144 -8 m 222 515 q 247 515 238 513 q 281 518 258 521 q 315 517 304 515 q 321 520 318 517 q 322 524 324 524 q 302 567 313 540 q 276 604 292 594 q 260 628 275 606 q 228 680 246 650 q 200 731 211 710 q 192 747 190 738 q 188 763 194 757 q 174 778 179 769 q 163 796 169 788 q 153 810 157 803 q 149 826 150 817 q 132 870 144 861 q 119 890 119 879 q 115 893 119 893 q 110 889 110 893 q 110 860 110 885 q 113 806 111 836 q 118 752 115 776 q 125 724 121 728 q 118 697 128 721 q 115 647 136 674 q 111 628 114 644 q 111 608 108 611 q 114 596 117 603 q 111 582 111 589 q 111 565 111 579 q 112 538 111 551 q 113 519 113 524 q 115 518 113 519 q 119 517 118 517 q 171 522 140 522 q 222 515 201 522 m 351 36 q 383 47 360 47 q 415 36 406 47 q 438 46 421 42 q 471 50 454 50 q 493 43 488 50 q 508 43 496 40 q 532 47 515 44 q 554 44 549 49 q 569 46 565 46 q 568 60 574 46 q 540 109 554 82 q 506 156 526 136 q 498 167 501 161 q 493 178 494 172 q 481 210 493 188 q 457 257 469 233 q 440 290 444 281 q 436 306 438 297 q 425 321 435 315 q 417 336 415 326 q 413 351 419 346 q 392 381 399 364 q 375 411 386 397 q 363 433 368 421 q 354 456 358 444 q 319 475 344 475 l 186 475 q 171 476 179 475 q 156 481 163 476 q 142 481 153 483 q 121 476 131 479 q 111 468 111 472 q 117 461 114 465 q 118 454 119 457 q 110 436 113 446 q 107 417 107 426 l 108 250 q 107 233 108 242 q 106 218 106 225 q 117 188 106 199 q 109 174 111 182 q 107 160 107 167 q 110 119 107 144 q 106 112 110 114 q 106 103 101 110 q 112 83 113 94 q 107 61 111 72 q 126 44 99 43 q 137 44 132 43 q 147 44 142 44 q 253 42 219 42 q 298 45 286 43 q 315 47 310 47 q 351 36 336 47 m 314 225 q 267 208 289 207 q 240 228 244 208 q 233 244 239 236 q 226 258 226 253 q 234 278 229 269 q 244 296 239 288 q 267 301 253 304 q 297 290 282 297 q 318 274 313 282 q 325 249 331 261 q 314 225 322 233 m 288 247 q 290 254 290 250 q 289 261 292 258 q 279 267 288 264 q 268 267 271 269 q 265 263 267 265 q 264 257 264 260 q 265 253 264 256 q 268 249 267 251 q 276 243 269 243 q 288 247 282 243 m -12 1021 q -34 1028 -22 1019 q -44 1051 -46 1036 l -37 1161 q -3 1160 -10 1169 q 4 1142 4 1150 q 4 1122 4 1138 q 3 1094 4 1106 q 4 1078 1 1086 q 11 1063 7 1069 q 47 1063 28 1061 q 82 1065 65 1064 q 106 1068 93 1067 q 124 1067 118 1069 q 154 1062 135 1063 q 185 1061 174 1061 q 204 1093 211 1061 l 197 1133 q 203 1157 197 1143 q 226 1161 210 1171 q 240 1133 236 1157 q 243 1083 243 1108 q 242 1047 243 1058 q 233 1031 242 1040 q 217 1022 224 1022 q 183 1022 208 1021 q 126 1023 157 1022 q 70 1024 96 1024 q 36 1025 44 1025 q 12 1024 25 1025 q -12 1021 -1 1022 m 39 1211 q 68 1239 54 1225 q 97 1267 82 1253 q 143 1314 126 1292 q 164 1333 154 1324 q 183 1353 174 1342 q 195 1367 189 1360 q 211 1375 201 1374 q 218 1374 214 1378 q 225 1372 222 1371 q 238 1367 229 1375 q 243 1356 246 1360 q 230 1323 238 1339 q 200 1300 222 1307 q 185 1292 192 1297 q 171 1279 178 1286 q 147 1251 161 1267 q 108 1217 132 1236 q 65 1202 83 1199 q 39 1211 46 1206 z "},"Ặ":{"ha":628,"x_min":-44,"x_max":628,"o":"m 143 -7 q 122 -1 139 -3 q 88 1 104 0 q 67 1 72 1 q 57 8 61 3 q 57 17 53 14 q 67 38 67 26 q 67 67 67 49 q 67 301 67 210 q 67 446 67 393 q 68 524 68 499 q 68 558 68 550 q 68 571 68 567 q 75 581 78 575 q 69 592 72 586 q 75 600 67 597 q 77 613 76 607 q 78 626 78 619 l 78 761 q 78 772 78 767 q 79 783 79 778 q 77 798 79 790 q 68 811 75 806 q 67 818 67 814 q 67 825 67 822 l 67 946 q 83 970 67 963 q 110 967 99 978 q 123 954 117 961 q 135 940 129 947 q 149 916 142 928 q 167 894 156 904 q 179 872 167 881 q 192 849 192 864 q 200 828 193 839 q 213 807 207 818 q 264 711 239 760 q 315 613 289 663 q 328 593 322 603 q 342 575 333 583 q 353 553 350 565 q 367 529 357 540 q 382 488 382 514 q 411 439 400 465 q 440 390 422 413 q 454 363 450 381 q 468 332 458 346 q 484 305 475 324 q 501 267 493 286 q 514 239 510 247 q 529 216 521 229 q 543 190 538 203 q 583 119 563 156 q 621 46 603 83 q 626 34 625 40 q 628 24 628 28 q 606 3 628 7 q 574 0 585 0 l 526 11 q 501 5 513 10 q 474 0 489 0 q 442 1 468 0 q 382 1 415 1 q 320 1 349 1 q 279 1 292 1 l 183 1 q 160 -3 175 1 q 143 -7 144 -8 m 222 515 q 247 515 238 513 q 281 518 258 521 q 315 517 304 515 q 321 520 318 517 q 322 524 324 524 q 302 567 313 540 q 276 604 292 594 q 260 628 275 606 q 228 680 246 650 q 200 731 211 710 q 192 747 190 738 q 188 763 194 757 q 174 778 179 769 q 163 796 169 788 q 153 810 157 803 q 149 826 150 817 q 132 870 144 861 q 119 890 119 879 q 115 893 119 893 q 110 889 110 893 q 110 860 110 885 q 113 806 111 836 q 118 752 115 776 q 125 724 121 728 q 118 697 128 721 q 115 647 136 674 q 111 628 114 644 q 111 608 108 611 q 114 596 117 603 q 111 582 111 589 q 111 565 111 579 q 112 538 111 551 q 113 519 113 524 q 115 518 113 519 q 119 517 118 517 q 171 522 140 522 q 222 515 201 522 m 351 36 q 383 47 360 47 q 415 36 406 47 q 438 46 421 42 q 471 50 454 50 q 493 43 488 50 q 508 43 496 40 q 532 47 515 44 q 554 44 549 49 q 569 46 565 46 q 568 60 574 46 q 540 109 554 82 q 506 156 526 136 q 498 167 501 161 q 493 178 494 172 q 481 210 493 188 q 457 257 469 233 q 440 290 444 281 q 436 306 438 297 q 425 321 435 315 q 417 336 415 326 q 413 351 419 346 q 392 381 399 364 q 375 411 386 397 q 363 433 368 421 q 354 456 358 444 q 319 475 344 475 l 186 475 q 171 476 179 475 q 156 481 163 476 q 142 481 153 483 q 121 476 131 479 q 111 468 111 472 q 117 461 114 465 q 118 454 119 457 q 110 436 113 446 q 107 417 107 426 l 108 250 q 107 233 108 242 q 106 218 106 225 q 117 188 106 199 q 109 174 111 182 q 107 160 107 167 q 110 119 107 144 q 106 112 110 114 q 106 103 101 110 q 112 83 113 94 q 107 61 111 72 q 126 44 99 43 q 137 44 132 43 q 147 44 142 44 q 253 42 219 42 q 298 45 286 43 q 315 47 310 47 q 351 36 336 47 m 314 225 q 267 208 289 207 q 240 228 244 208 q 233 244 239 236 q 226 258 226 253 q 234 278 229 269 q 244 296 239 288 q 267 301 253 304 q 297 290 282 297 q 318 274 313 282 q 325 249 331 261 q 314 225 322 233 m 288 247 q 290 254 290 250 q 289 261 292 258 q 279 267 288 264 q 268 267 271 269 q 265 263 267 265 q 264 257 264 260 q 265 253 264 256 q 268 249 267 251 q 276 243 269 243 q 288 247 282 243 m 329 -186 q 274 -160 286 -186 q 274 -130 272 -150 q 294 -100 276 -110 q 322 -88 308 -93 q 346 -90 336 -83 q 363 -101 353 -96 q 378 -118 372 -107 q 375 -164 392 -140 q 355 -180 367 -174 q 329 -186 343 -186 m -11 1019 q -33 1026 -21 1018 q -43 1050 -44 1035 l -36 1160 q -1 1158 -8 1168 q 6 1140 6 1149 q 6 1120 6 1136 q 4 1093 6 1104 q 6 1076 3 1085 q 13 1061 8 1068 q 48 1061 29 1060 q 83 1064 67 1063 q 107 1067 94 1065 q 125 1065 119 1068 q 156 1060 136 1061 q 186 1060 175 1060 q 206 1092 213 1060 l 199 1132 q 205 1156 199 1142 q 228 1160 211 1169 q 241 1131 238 1156 q 244 1082 244 1107 q 243 1046 244 1057 q 234 1030 243 1039 q 218 1021 225 1021 q 184 1020 210 1019 q 128 1022 158 1021 q 72 1023 97 1022 q 38 1024 46 1024 q 13 1022 26 1024 q -11 1019 0 1021 z "},"Ằ":{"ha":628,"x_min":-46,"x_max":628,"o":"m 143 -7 q 122 -1 139 -3 q 88 1 104 0 q 67 1 72 1 q 57 8 61 3 q 57 17 53 14 q 67 38 67 26 q 67 67 67 49 q 67 301 67 210 q 67 446 67 393 q 68 524 68 499 q 68 558 68 550 q 68 571 68 567 q 75 581 78 575 q 69 592 72 586 q 75 600 67 597 q 77 613 76 607 q 78 626 78 619 l 78 761 q 78 772 78 767 q 79 783 79 778 q 77 798 79 790 q 68 811 75 806 q 67 818 67 814 q 67 825 67 822 l 67 946 q 83 970 67 963 q 110 967 99 978 q 123 954 117 961 q 135 940 129 947 q 149 916 142 928 q 167 894 156 904 q 179 872 167 881 q 192 849 192 864 q 200 828 193 839 q 213 807 207 818 q 264 711 239 760 q 315 613 289 663 q 328 593 322 603 q 342 575 333 583 q 353 553 350 565 q 367 529 357 540 q 382 488 382 514 q 411 439 400 465 q 440 390 422 413 q 454 363 450 381 q 468 332 458 346 q 484 305 475 324 q 501 267 493 286 q 514 239 510 247 q 529 216 521 229 q 543 190 538 203 q 583 119 563 156 q 621 46 603 83 q 626 34 625 40 q 628 24 628 28 q 606 3 628 7 q 574 0 585 0 l 526 11 q 501 5 513 10 q 474 0 489 0 q 442 1 468 0 q 382 1 415 1 q 320 1 349 1 q 279 1 292 1 l 183 1 q 160 -3 175 1 q 143 -7 144 -8 m 222 515 q 247 515 238 513 q 281 518 258 521 q 315 517 304 515 q 321 520 318 517 q 322 524 324 524 q 302 567 313 540 q 276 604 292 594 q 260 628 275 606 q 228 680 246 650 q 200 731 211 710 q 192 747 190 738 q 188 763 194 757 q 174 778 179 769 q 163 796 169 788 q 153 810 157 803 q 149 826 150 817 q 132 870 144 861 q 119 890 119 879 q 115 893 119 893 q 110 889 110 893 q 110 860 110 885 q 113 806 111 836 q 118 752 115 776 q 125 724 121 728 q 118 697 128 721 q 115 647 136 674 q 111 628 114 644 q 111 608 108 611 q 114 596 117 603 q 111 582 111 589 q 111 565 111 579 q 112 538 111 551 q 113 519 113 524 q 115 518 113 519 q 119 517 118 517 q 171 522 140 522 q 222 515 201 522 m 351 36 q 383 47 360 47 q 415 36 406 47 q 438 46 421 42 q 471 50 454 50 q 493 43 488 50 q 508 43 496 40 q 532 47 515 44 q 554 44 549 49 q 569 46 565 46 q 568 60 574 46 q 540 109 554 82 q 506 156 526 136 q 498 167 501 161 q 493 178 494 172 q 481 210 493 188 q 457 257 469 233 q 440 290 444 281 q 436 306 438 297 q 425 321 435 315 q 417 336 415 326 q 413 351 419 346 q 392 381 399 364 q 375 411 386 397 q 363 433 368 421 q 354 456 358 444 q 319 475 344 475 l 186 475 q 171 476 179 475 q 156 481 163 476 q 142 481 153 483 q 121 476 131 479 q 111 468 111 472 q 117 461 114 465 q 118 454 119 457 q 110 436 113 446 q 107 417 107 426 l 108 250 q 107 233 108 242 q 106 218 106 225 q 117 188 106 199 q 109 174 111 182 q 107 160 107 167 q 110 119 107 144 q 106 112 110 114 q 106 103 101 110 q 112 83 113 94 q 107 61 111 72 q 126 44 99 43 q 137 44 132 43 q 147 44 142 44 q 253 42 219 42 q 298 45 286 43 q 315 47 310 47 q 351 36 336 47 m 314 225 q 267 208 289 207 q 240 228 244 208 q 233 244 239 236 q 226 258 226 253 q 234 278 229 269 q 244 296 239 288 q 267 301 253 304 q 297 290 282 297 q 318 274 313 282 q 325 249 331 261 q 314 225 322 233 m 288 247 q 290 254 290 250 q 289 261 292 258 q 279 267 288 264 q 268 267 271 269 q 265 263 267 265 q 264 257 264 260 q 265 253 264 256 q 268 249 267 251 q 276 243 269 243 q 288 247 282 243 m -12 1021 q -34 1028 -22 1019 q -44 1051 -46 1036 l -37 1161 q -3 1160 -10 1169 q 4 1142 4 1150 q 4 1122 4 1138 q 3 1094 4 1106 q 4 1078 1 1086 q 11 1063 7 1069 q 47 1063 28 1061 q 82 1065 65 1064 q 106 1068 93 1067 q 124 1067 118 1069 q 154 1062 135 1063 q 185 1061 174 1061 q 204 1093 211 1061 l 197 1133 q 203 1157 197 1143 q 226 1161 210 1171 q 240 1133 236 1157 q 243 1083 243 1108 q 242 1047 243 1058 q 233 1031 242 1040 q 217 1022 224 1022 q 183 1022 208 1021 q 126 1023 157 1022 q 70 1024 96 1024 q 36 1025 44 1025 q 12 1024 25 1025 q -12 1021 -1 1022 m 174 1211 q 149 1202 168 1206 q 104 1217 129 1199 q 67 1251 82 1236 q 42 1279 53 1267 q 28 1292 36 1286 q 13 1300 21 1297 q -17 1323 -10 1307 q -31 1356 -24 1339 q -24 1367 -32 1360 q -12 1372 -17 1375 q -6 1374 -10 1371 q 1 1375 -1 1378 q 17 1367 11 1374 q 29 1353 24 1360 q 49 1333 39 1342 q 69 1314 58 1324 q 115 1267 86 1292 q 145 1239 131 1253 q 174 1211 160 1225 z "},"Ẳ":{"ha":628,"x_min":-46,"x_max":628,"o":"m 143 -7 q 122 -1 139 -3 q 88 1 104 0 q 67 1 72 1 q 57 8 61 3 q 57 17 53 14 q 67 38 67 26 q 67 67 67 49 q 67 301 67 210 q 67 446 67 393 q 68 524 68 499 q 68 558 68 550 q 68 571 68 567 q 75 581 78 575 q 69 592 72 586 q 75 600 67 597 q 77 613 76 607 q 78 626 78 619 l 78 761 q 78 772 78 767 q 79 783 79 778 q 77 798 79 790 q 68 811 75 806 q 67 818 67 814 q 67 825 67 822 l 67 946 q 83 970 67 963 q 110 967 99 978 q 123 954 117 961 q 135 940 129 947 q 149 916 142 928 q 167 894 156 904 q 179 872 167 881 q 192 849 192 864 q 200 828 193 839 q 213 807 207 818 q 264 711 239 760 q 315 613 289 663 q 328 593 322 603 q 342 575 333 583 q 353 553 350 565 q 367 529 357 540 q 382 488 382 514 q 411 439 400 465 q 440 390 422 413 q 454 363 450 381 q 468 332 458 346 q 484 305 475 324 q 501 267 493 286 q 514 239 510 247 q 529 216 521 229 q 543 190 538 203 q 583 119 563 156 q 621 46 603 83 q 626 34 625 40 q 628 24 628 28 q 606 3 628 7 q 574 0 585 0 l 526 11 q 501 5 513 10 q 474 0 489 0 q 442 1 468 0 q 382 1 415 1 q 320 1 349 1 q 279 1 292 1 l 183 1 q 160 -3 175 1 q 143 -7 144 -8 m 222 515 q 247 515 238 513 q 281 518 258 521 q 315 517 304 515 q 321 520 318 517 q 322 524 324 524 q 302 567 313 540 q 276 604 292 594 q 260 628 275 606 q 228 680 246 650 q 200 731 211 710 q 192 747 190 738 q 188 763 194 757 q 174 778 179 769 q 163 796 169 788 q 153 810 157 803 q 149 826 150 817 q 132 870 144 861 q 119 890 119 879 q 115 893 119 893 q 110 889 110 893 q 110 860 110 885 q 113 806 111 836 q 118 752 115 776 q 125 724 121 728 q 118 697 128 721 q 115 647 136 674 q 111 628 114 644 q 111 608 108 611 q 114 596 117 603 q 111 582 111 589 q 111 565 111 579 q 112 538 111 551 q 113 519 113 524 q 115 518 113 519 q 119 517 118 517 q 171 522 140 522 q 222 515 201 522 m 351 36 q 383 47 360 47 q 415 36 406 47 q 438 46 421 42 q 471 50 454 50 q 493 43 488 50 q 508 43 496 40 q 532 47 515 44 q 554 44 549 49 q 569 46 565 46 q 568 60 574 46 q 540 109 554 82 q 506 156 526 136 q 498 167 501 161 q 493 178 494 172 q 481 210 493 188 q 457 257 469 233 q 440 290 444 281 q 436 306 438 297 q 425 321 435 315 q 417 336 415 326 q 413 351 419 346 q 392 381 399 364 q 375 411 386 397 q 363 433 368 421 q 354 456 358 444 q 319 475 344 475 l 186 475 q 171 476 179 475 q 156 481 163 476 q 142 481 153 483 q 121 476 131 479 q 111 468 111 472 q 117 461 114 465 q 118 454 119 457 q 110 436 113 446 q 107 417 107 426 l 108 250 q 107 233 108 242 q 106 218 106 225 q 117 188 106 199 q 109 174 111 182 q 107 160 107 167 q 110 119 107 144 q 106 112 110 114 q 106 103 101 110 q 112 83 113 94 q 107 61 111 72 q 126 44 99 43 q 137 44 132 43 q 147 44 142 44 q 253 42 219 42 q 298 45 286 43 q 315 47 310 47 q 351 36 336 47 m 314 225 q 267 208 289 207 q 240 228 244 208 q 233 244 239 236 q 226 258 226 253 q 234 278 229 269 q 244 296 239 288 q 267 301 253 304 q 297 290 282 297 q 318 274 313 282 q 325 249 331 261 q 314 225 322 233 m 288 247 q 290 254 290 250 q 289 261 292 258 q 279 267 288 264 q 268 267 271 269 q 265 263 267 265 q 264 257 264 260 q 265 253 264 256 q 268 249 267 251 q 276 243 269 243 q 288 247 282 243 m -12 1021 q -34 1028 -22 1019 q -44 1051 -46 1036 l -37 1161 q -3 1160 -10 1169 q 4 1142 4 1150 q 4 1122 4 1138 q 3 1094 4 1106 q 4 1078 1 1086 q 11 1063 7 1069 q 47 1063 28 1061 q 82 1065 65 1064 q 106 1068 93 1067 q 124 1067 118 1069 q 154 1062 135 1063 q 185 1061 174 1061 q 204 1093 211 1061 l 197 1133 q 203 1157 197 1143 q 226 1161 210 1171 q 240 1133 236 1157 q 243 1083 243 1108 q 242 1047 243 1058 q 233 1031 242 1040 q 217 1022 224 1022 q 183 1022 208 1021 q 126 1023 157 1022 q 70 1024 96 1024 q 36 1025 44 1025 q 12 1024 25 1025 q -12 1021 -1 1022 m 82 1199 q 67 1209 72 1199 q 64 1225 63 1219 q 72 1237 67 1232 q 83 1243 78 1242 q 114 1259 97 1250 q 131 1276 131 1268 q 122 1304 131 1286 q 101 1338 113 1322 q 83 1354 90 1354 q 73 1350 75 1354 q 60 1343 71 1346 q 40 1334 46 1340 q 26 1321 35 1328 q 9 1322 18 1314 q 0 1338 0 1329 q 6 1350 0 1344 q 31 1369 13 1356 q 68 1393 50 1382 q 94 1404 86 1404 q 110 1401 101 1404 q 121 1390 119 1397 q 132 1374 126 1383 q 139 1357 138 1364 q 153 1322 146 1336 q 172 1296 161 1308 q 181 1282 179 1289 q 183 1274 183 1275 q 179 1252 183 1261 q 160 1236 175 1243 l 82 1199 z "},"Ẵ":{"ha":628,"x_min":-56,"x_max":628,"o":"m 143 -7 q 122 -1 139 -3 q 88 1 104 0 q 67 1 72 1 q 57 8 61 3 q 57 17 53 14 q 67 38 67 26 q 67 67 67 49 q 67 301 67 210 q 67 446 67 393 q 68 524 68 499 q 68 558 68 550 q 68 571 68 567 q 75 581 78 575 q 69 592 72 586 q 75 600 67 597 q 77 613 76 607 q 78 626 78 619 l 78 761 q 78 772 78 767 q 79 783 79 778 q 77 798 79 790 q 68 811 75 806 q 67 818 67 814 q 67 825 67 822 l 67 946 q 83 970 67 963 q 110 967 99 978 q 123 954 117 961 q 135 940 129 947 q 149 916 142 928 q 167 894 156 904 q 179 872 167 881 q 192 849 192 864 q 200 828 193 839 q 213 807 207 818 q 264 711 239 760 q 315 613 289 663 q 328 593 322 603 q 342 575 333 583 q 353 553 350 565 q 367 529 357 540 q 382 488 382 514 q 411 439 400 465 q 440 390 422 413 q 454 363 450 381 q 468 332 458 346 q 484 305 475 324 q 501 267 493 286 q 514 239 510 247 q 529 216 521 229 q 543 190 538 203 q 583 119 563 156 q 621 46 603 83 q 626 34 625 40 q 628 24 628 28 q 606 3 628 7 q 574 0 585 0 l 526 11 q 501 5 513 10 q 474 0 489 0 q 442 1 468 0 q 382 1 415 1 q 320 1 349 1 q 279 1 292 1 l 183 1 q 160 -3 175 1 q 143 -7 144 -8 m 222 515 q 247 515 238 513 q 281 518 258 521 q 315 517 304 515 q 321 520 318 517 q 322 524 324 524 q 302 567 313 540 q 276 604 292 594 q 260 628 275 606 q 228 680 246 650 q 200 731 211 710 q 192 747 190 738 q 188 763 194 757 q 174 778 179 769 q 163 796 169 788 q 153 810 157 803 q 149 826 150 817 q 132 870 144 861 q 119 890 119 879 q 115 893 119 893 q 110 889 110 893 q 110 860 110 885 q 113 806 111 836 q 118 752 115 776 q 125 724 121 728 q 118 697 128 721 q 115 647 136 674 q 111 628 114 644 q 111 608 108 611 q 114 596 117 603 q 111 582 111 589 q 111 565 111 579 q 112 538 111 551 q 113 519 113 524 q 115 518 113 519 q 119 517 118 517 q 171 522 140 522 q 222 515 201 522 m 351 36 q 383 47 360 47 q 415 36 406 47 q 438 46 421 42 q 471 50 454 50 q 493 43 488 50 q 508 43 496 40 q 532 47 515 44 q 554 44 549 49 q 569 46 565 46 q 568 60 574 46 q 540 109 554 82 q 506 156 526 136 q 498 167 501 161 q 493 178 494 172 q 481 210 493 188 q 457 257 469 233 q 440 290 444 281 q 436 306 438 297 q 425 321 435 315 q 417 336 415 326 q 413 351 419 346 q 392 381 399 364 q 375 411 386 397 q 363 433 368 421 q 354 456 358 444 q 319 475 344 475 l 186 475 q 171 476 179 475 q 156 481 163 476 q 142 481 153 483 q 121 476 131 479 q 111 468 111 472 q 117 461 114 465 q 118 454 119 457 q 110 436 113 446 q 107 417 107 426 l 108 250 q 107 233 108 242 q 106 218 106 225 q 117 188 106 199 q 109 174 111 182 q 107 160 107 167 q 110 119 107 144 q 106 112 110 114 q 106 103 101 110 q 112 83 113 94 q 107 61 111 72 q 126 44 99 43 q 137 44 132 43 q 147 44 142 44 q 253 42 219 42 q 298 45 286 43 q 315 47 310 47 q 351 36 336 47 m 314 225 q 267 208 289 207 q 240 228 244 208 q 233 244 239 236 q 226 258 226 253 q 234 278 229 269 q 244 296 239 288 q 267 301 253 304 q 297 290 282 297 q 318 274 313 282 q 325 249 331 261 q 314 225 322 233 m 288 247 q 290 254 290 250 q 289 261 292 258 q 279 267 288 264 q 268 267 271 269 q 265 263 267 265 q 264 257 264 260 q 265 253 264 256 q 268 249 267 251 q 276 243 269 243 q 288 247 282 243 m -17 1021 q -38 1028 -26 1019 q -49 1051 -50 1036 l -42 1161 q -7 1160 -14 1169 q 0 1142 0 1150 q 0 1122 0 1138 q -1 1094 0 1106 q 0 1078 -3 1086 q 7 1063 3 1069 q 42 1063 24 1061 q 78 1065 61 1064 q 101 1068 89 1067 q 119 1067 114 1069 q 150 1062 131 1063 q 181 1061 169 1061 q 200 1093 207 1061 l 193 1133 q 199 1157 193 1143 q 222 1161 206 1171 q 235 1133 232 1157 q 239 1083 239 1108 q 238 1047 239 1058 q 228 1031 238 1040 q 213 1022 219 1022 q 178 1022 204 1021 q 122 1023 153 1022 q 66 1024 92 1024 q 32 1025 40 1025 q 8 1024 21 1025 q -17 1021 -6 1022 m 156 1203 q 135 1214 150 1203 q 105 1238 121 1225 q 76 1256 89 1251 q 57 1268 65 1260 q 40 1276 49 1276 q 19 1265 35 1276 q -13 1242 3 1253 q -35 1229 -29 1231 q -48 1237 -40 1228 q -56 1251 -56 1246 q -46 1267 -56 1261 q -19 1287 -36 1274 q 16 1311 -1 1300 q 42 1322 33 1322 q 65 1313 47 1322 q 99 1292 82 1303 q 118 1279 115 1282 q 144 1262 129 1271 q 160 1253 158 1253 q 194 1275 169 1258 q 238 1292 218 1292 q 247 1285 242 1292 q 251 1276 251 1279 q 233 1250 251 1260 q 200 1230 211 1236 q 178 1215 189 1224 q 169 1208 175 1214 q 156 1203 163 1203 z "},"Ǎ":{"ha":628,"x_min":-49,"x_max":628,"o":"m 143 -7 q 122 -1 139 -3 q 88 1 104 0 q 67 1 72 1 q 57 8 61 3 q 57 17 53 14 q 67 38 67 26 q 67 67 67 49 q 67 301 67 210 q 67 446 67 393 q 68 524 68 499 q 68 558 68 550 q 68 571 68 567 q 75 581 78 575 q 69 592 72 586 q 75 600 67 597 q 77 613 76 607 q 78 626 78 619 l 78 761 q 78 772 78 767 q 79 783 79 778 q 77 798 79 790 q 68 811 75 806 q 67 818 67 814 q 67 825 67 822 l 67 946 q 83 970 67 963 q 110 967 99 978 q 123 954 117 961 q 135 940 129 947 q 149 916 142 928 q 167 894 156 904 q 179 872 167 881 q 192 849 192 864 q 200 828 193 839 q 213 807 207 818 q 264 711 239 760 q 315 613 289 663 q 328 593 322 603 q 342 575 333 583 q 353 553 350 565 q 367 529 357 540 q 382 488 382 514 q 411 439 400 465 q 440 390 422 413 q 454 363 450 381 q 468 332 458 346 q 484 305 475 324 q 501 267 493 286 q 514 239 510 247 q 529 216 521 229 q 543 190 538 203 q 583 119 563 156 q 621 46 603 83 q 626 34 625 40 q 628 24 628 28 q 606 3 628 7 q 574 0 585 0 l 526 11 q 501 5 513 10 q 474 0 489 0 q 442 1 468 0 q 382 1 415 1 q 320 1 349 1 q 279 1 292 1 l 183 1 q 160 -3 175 1 q 143 -7 144 -8 m 222 515 q 247 515 238 513 q 281 518 258 521 q 315 517 304 515 q 321 520 318 517 q 322 524 324 524 q 302 567 313 540 q 276 604 292 594 q 260 628 275 606 q 228 680 246 650 q 200 731 211 710 q 192 747 190 738 q 188 763 194 757 q 174 778 179 769 q 163 796 169 788 q 153 810 157 803 q 149 826 150 817 q 132 870 144 861 q 119 890 119 879 q 115 893 119 893 q 110 889 110 893 q 110 860 110 885 q 113 806 111 836 q 118 752 115 776 q 125 724 121 728 q 118 697 128 721 q 115 647 136 674 q 111 628 114 644 q 111 608 108 611 q 114 596 117 603 q 111 582 111 589 q 111 565 111 579 q 112 538 111 551 q 113 519 113 524 q 115 518 113 519 q 119 517 118 517 q 171 522 140 522 q 222 515 201 522 m 351 36 q 383 47 360 47 q 415 36 406 47 q 438 46 421 42 q 471 50 454 50 q 493 43 488 50 q 508 43 496 40 q 532 47 515 44 q 554 44 549 49 q 569 46 565 46 q 568 60 574 46 q 540 109 554 82 q 506 156 526 136 q 498 167 501 161 q 493 178 494 172 q 481 210 493 188 q 457 257 469 233 q 440 290 444 281 q 436 306 438 297 q 425 321 435 315 q 417 336 415 326 q 413 351 419 346 q 392 381 399 364 q 375 411 386 397 q 363 433 368 421 q 354 456 358 444 q 319 475 344 475 l 186 475 q 171 476 179 475 q 156 481 163 476 q 142 481 153 483 q 121 476 131 479 q 111 468 111 472 q 117 461 114 465 q 118 454 119 457 q 110 436 113 446 q 107 417 107 426 l 108 250 q 107 233 108 242 q 106 218 106 225 q 117 188 106 199 q 109 174 111 182 q 107 160 107 167 q 110 119 107 144 q 106 112 110 114 q 106 103 101 110 q 112 83 113 94 q 107 61 111 72 q 126 44 99 43 q 137 44 132 43 q 147 44 142 44 q 253 42 219 42 q 298 45 286 43 q 315 47 310 47 q 351 36 336 47 m 314 225 q 267 208 289 207 q 240 228 244 208 q 233 244 239 236 q 226 258 226 253 q 234 278 229 269 q 244 296 239 288 q 267 301 253 304 q 297 290 282 297 q 318 274 313 282 q 325 249 331 261 q 314 225 322 233 m 288 247 q 290 254 290 250 q 289 261 292 258 q 279 267 288 264 q 268 267 271 269 q 265 263 267 265 q 264 257 264 260 q 265 253 264 256 q 268 249 267 251 q 276 243 269 243 q 288 247 282 243 m 201 1185 q 218 1185 211 1188 q 225 1181 221 1185 q 232 1175 229 1178 q 219 1158 233 1174 q 185 1117 206 1142 q 142 1069 164 1093 q 106 1029 121 1046 q 97 1024 103 1024 q 89 1031 92 1025 q 72 1056 83 1046 q 50 1075 61 1065 q 35 1090 40 1083 q 19 1106 31 1096 q 3 1120 11 1110 q -12 1135 -6 1131 q -26 1153 -18 1144 q -43 1171 -35 1163 q -40 1185 -49 1183 q -21 1183 -32 1186 q 2 1172 -14 1183 q 37 1145 18 1161 q 71 1115 56 1129 q 92 1094 86 1101 q 101 1092 99 1092 q 113 1096 104 1092 q 120 1105 115 1097 q 128 1117 125 1113 q 140 1131 131 1119 q 151 1146 149 1143 q 169 1163 156 1151 q 201 1185 182 1175 z "},"Â":{"ha":628,"x_min":-43,"x_max":628,"o":"m 143 -7 q 122 -1 139 -3 q 88 1 104 0 q 67 1 72 1 q 57 8 61 3 q 57 17 53 14 q 67 38 67 26 q 67 67 67 49 q 67 301 67 210 q 67 446 67 393 q 68 524 68 499 q 68 558 68 550 q 68 571 68 567 q 75 581 78 575 q 69 592 72 586 q 75 600 67 597 q 77 613 76 607 q 78 626 78 619 l 78 761 q 78 772 78 767 q 79 783 79 778 q 77 798 79 790 q 68 811 75 806 q 67 818 67 814 q 67 825 67 822 l 67 946 q 83 970 67 963 q 110 967 99 978 q 123 954 117 961 q 135 940 129 947 q 149 916 142 928 q 167 894 156 904 q 179 872 167 881 q 192 849 192 864 q 200 828 193 839 q 213 807 207 818 q 264 711 239 760 q 315 613 289 663 q 328 593 322 603 q 342 575 333 583 q 353 553 350 565 q 367 529 357 540 q 382 488 382 514 q 411 439 400 465 q 440 390 422 413 q 454 363 450 381 q 468 332 458 346 q 484 305 475 324 q 501 267 493 286 q 514 239 510 247 q 529 216 521 229 q 543 190 538 203 q 583 119 563 156 q 621 46 603 83 q 626 34 625 40 q 628 24 628 28 q 606 3 628 7 q 574 0 585 0 l 526 11 q 501 5 513 10 q 474 0 489 0 q 442 1 468 0 q 382 1 415 1 q 320 1 349 1 q 279 1 292 1 l 183 1 q 160 -3 175 1 q 143 -7 144 -8 m 222 515 q 247 515 238 513 q 281 518 258 521 q 315 517 304 515 q 321 520 318 517 q 322 524 324 524 q 302 567 313 540 q 276 604 292 594 q 260 628 275 606 q 228 680 246 650 q 200 731 211 710 q 192 747 190 738 q 188 763 194 757 q 174 778 179 769 q 163 796 169 788 q 153 810 157 803 q 149 826 150 817 q 132 870 144 861 q 119 890 119 879 q 115 893 119 893 q 110 889 110 893 q 110 860 110 885 q 113 806 111 836 q 118 752 115 776 q 125 724 121 728 q 118 697 128 721 q 115 647 136 674 q 111 628 114 644 q 111 608 108 611 q 114 596 117 603 q 111 582 111 589 q 111 565 111 579 q 112 538 111 551 q 113 519 113 524 q 115 518 113 519 q 119 517 118 517 q 171 522 140 522 q 222 515 201 522 m 351 36 q 383 47 360 47 q 415 36 406 47 q 438 46 421 42 q 471 50 454 50 q 493 43 488 50 q 508 43 496 40 q 532 47 515 44 q 554 44 549 49 q 569 46 565 46 q 568 60 574 46 q 540 109 554 82 q 506 156 526 136 q 498 167 501 161 q 493 178 494 172 q 481 210 493 188 q 457 257 469 233 q 440 290 444 281 q 436 306 438 297 q 425 321 435 315 q 417 336 415 326 q 413 351 419 346 q 392 381 399 364 q 375 411 386 397 q 363 433 368 421 q 354 456 358 444 q 319 475 344 475 l 186 475 q 171 476 179 475 q 156 481 163 476 q 142 481 153 483 q 121 476 131 479 q 111 468 111 472 q 117 461 114 465 q 118 454 119 457 q 110 436 113 446 q 107 417 107 426 l 108 250 q 107 233 108 242 q 106 218 106 225 q 117 188 106 199 q 109 174 111 182 q 107 160 107 167 q 110 119 107 144 q 106 112 110 114 q 106 103 101 110 q 112 83 113 94 q 107 61 111 72 q 126 44 99 43 q 137 44 132 43 q 147 44 142 44 q 253 42 219 42 q 298 45 286 43 q 315 47 310 47 q 351 36 336 47 m 314 225 q 267 208 289 207 q 240 228 244 208 q 233 244 239 236 q 226 258 226 253 q 234 278 229 269 q 244 296 239 288 q 267 301 253 304 q 297 290 282 297 q 318 274 313 282 q 325 249 331 261 q 314 225 322 233 m 288 247 q 290 254 290 250 q 289 261 292 258 q 279 267 288 264 q 268 267 271 269 q 265 263 267 265 q 264 257 264 260 q 265 253 264 256 q 268 249 267 251 q 276 243 269 243 q 288 247 282 243 m 207 1022 q 174 1044 188 1033 q 157 1061 161 1056 q 145 1076 154 1064 q 133 1090 136 1089 q 126 1102 131 1094 q 118 1111 121 1110 q 107 1115 110 1115 q 97 1113 104 1115 q 76 1092 92 1107 q 42 1062 61 1078 q 8 1035 24 1046 q -15 1024 -8 1024 q -35 1023 -26 1022 q -37 1036 -43 1024 q -21 1053 -29 1044 q -7 1072 -12 1063 q 8 1087 0 1076 q 25 1101 17 1097 q 41 1117 36 1111 q 56 1132 46 1124 q 78 1151 67 1142 q 94 1176 89 1161 q 103 1183 97 1182 q 111 1178 108 1183 q 148 1138 126 1161 q 190 1090 169 1114 q 225 1049 211 1065 q 238 1032 239 1033 q 231 1026 235 1031 q 224 1022 226 1022 q 207 1022 217 1019 z "},"Ấ":{"ha":628,"x_min":-43,"x_max":628,"o":"m 143 -7 q 122 -1 139 -3 q 88 1 104 0 q 67 1 72 1 q 57 8 61 3 q 57 17 53 14 q 67 38 67 26 q 67 67 67 49 q 67 301 67 210 q 67 446 67 393 q 68 524 68 499 q 68 558 68 550 q 68 571 68 567 q 75 581 78 575 q 69 592 72 586 q 75 600 67 597 q 77 613 76 607 q 78 626 78 619 l 78 761 q 78 772 78 767 q 79 783 79 778 q 77 798 79 790 q 68 811 75 806 q 67 818 67 814 q 67 825 67 822 l 67 946 q 83 970 67 963 q 110 967 99 978 q 123 954 117 961 q 135 940 129 947 q 149 916 142 928 q 167 894 156 904 q 179 872 167 881 q 192 849 192 864 q 200 828 193 839 q 213 807 207 818 q 264 711 239 760 q 315 613 289 663 q 328 593 322 603 q 342 575 333 583 q 353 553 350 565 q 367 529 357 540 q 382 488 382 514 q 411 439 400 465 q 440 390 422 413 q 454 363 450 381 q 468 332 458 346 q 484 305 475 324 q 501 267 493 286 q 514 239 510 247 q 529 216 521 229 q 543 190 538 203 q 583 119 563 156 q 621 46 603 83 q 626 34 625 40 q 628 24 628 28 q 606 3 628 7 q 574 0 585 0 l 526 11 q 501 5 513 10 q 474 0 489 0 q 442 1 468 0 q 382 1 415 1 q 320 1 349 1 q 279 1 292 1 l 183 1 q 160 -3 175 1 q 143 -7 144 -8 m 222 515 q 247 515 238 513 q 281 518 258 521 q 315 517 304 515 q 321 520 318 517 q 322 524 324 524 q 302 567 313 540 q 276 604 292 594 q 260 628 275 606 q 228 680 246 650 q 200 731 211 710 q 192 747 190 738 q 188 763 194 757 q 174 778 179 769 q 163 796 169 788 q 153 810 157 803 q 149 826 150 817 q 132 870 144 861 q 119 890 119 879 q 115 893 119 893 q 110 889 110 893 q 110 860 110 885 q 113 806 111 836 q 118 752 115 776 q 125 724 121 728 q 118 697 128 721 q 115 647 136 674 q 111 628 114 644 q 111 608 108 611 q 114 596 117 603 q 111 582 111 589 q 111 565 111 579 q 112 538 111 551 q 113 519 113 524 q 115 518 113 519 q 119 517 118 517 q 171 522 140 522 q 222 515 201 522 m 351 36 q 383 47 360 47 q 415 36 406 47 q 438 46 421 42 q 471 50 454 50 q 493 43 488 50 q 508 43 496 40 q 532 47 515 44 q 554 44 549 49 q 569 46 565 46 q 568 60 574 46 q 540 109 554 82 q 506 156 526 136 q 498 167 501 161 q 493 178 494 172 q 481 210 493 188 q 457 257 469 233 q 440 290 444 281 q 436 306 438 297 q 425 321 435 315 q 417 336 415 326 q 413 351 419 346 q 392 381 399 364 q 375 411 386 397 q 363 433 368 421 q 354 456 358 444 q 319 475 344 475 l 186 475 q 171 476 179 475 q 156 481 163 476 q 142 481 153 483 q 121 476 131 479 q 111 468 111 472 q 117 461 114 465 q 118 454 119 457 q 110 436 113 446 q 107 417 107 426 l 108 250 q 107 233 108 242 q 106 218 106 225 q 117 188 106 199 q 109 174 111 182 q 107 160 107 167 q 110 119 107 144 q 106 112 110 114 q 106 103 101 110 q 112 83 113 94 q 107 61 111 72 q 126 44 99 43 q 137 44 132 43 q 147 44 142 44 q 253 42 219 42 q 298 45 286 43 q 315 47 310 47 q 351 36 336 47 m 314 225 q 267 208 289 207 q 240 228 244 208 q 233 244 239 236 q 226 258 226 253 q 234 278 229 269 q 244 296 239 288 q 267 301 253 304 q 297 290 282 297 q 318 274 313 282 q 325 249 331 261 q 314 225 322 233 m 288 247 q 290 254 290 250 q 289 261 292 258 q 279 267 288 264 q 268 267 271 269 q 265 263 267 265 q 264 257 264 260 q 265 253 264 256 q 268 249 267 251 q 276 243 269 243 q 288 247 282 243 m 207 1022 q 174 1044 188 1033 q 157 1061 161 1056 q 145 1076 154 1064 q 133 1090 136 1089 q 126 1102 131 1094 q 118 1111 121 1110 q 107 1115 110 1115 q 97 1113 104 1115 q 76 1092 92 1107 q 42 1062 61 1078 q 8 1035 24 1046 q -15 1024 -8 1024 q -35 1023 -26 1022 q -37 1036 -43 1024 q -21 1053 -29 1044 q -7 1072 -12 1063 q 8 1087 0 1076 q 25 1101 17 1097 q 41 1117 36 1111 q 56 1132 46 1124 q 78 1151 67 1142 q 94 1176 89 1161 q 103 1183 97 1182 q 111 1178 108 1183 q 148 1138 126 1161 q 190 1090 169 1114 q 225 1049 211 1065 q 238 1032 239 1033 q 231 1026 235 1031 q 224 1022 226 1022 q 207 1022 217 1019 m 50 1221 q 79 1249 65 1235 q 108 1276 93 1263 q 154 1324 138 1301 q 175 1342 165 1333 q 194 1363 185 1351 q 206 1376 200 1369 q 222 1385 213 1383 q 229 1384 225 1388 q 236 1382 233 1381 q 249 1377 240 1385 q 254 1365 257 1369 q 241 1333 249 1349 q 211 1310 233 1317 q 196 1301 203 1307 q 182 1289 189 1296 q 158 1261 172 1276 q 119 1226 143 1246 q 76 1212 94 1208 q 50 1221 57 1215 z "},"Ậ":{"ha":628,"x_min":-43,"x_max":628,"o":"m 143 -7 q 122 -1 139 -3 q 88 1 104 0 q 67 1 72 1 q 57 8 61 3 q 57 17 53 14 q 67 38 67 26 q 67 67 67 49 q 67 301 67 210 q 67 446 67 393 q 68 524 68 499 q 68 558 68 550 q 68 571 68 567 q 75 581 78 575 q 69 592 72 586 q 75 600 67 597 q 77 613 76 607 q 78 626 78 619 l 78 761 q 78 772 78 767 q 79 783 79 778 q 77 798 79 790 q 68 811 75 806 q 67 818 67 814 q 67 825 67 822 l 67 946 q 83 970 67 963 q 110 967 99 978 q 123 954 117 961 q 135 940 129 947 q 149 916 142 928 q 167 894 156 904 q 179 872 167 881 q 192 849 192 864 q 200 828 193 839 q 213 807 207 818 q 264 711 239 760 q 315 613 289 663 q 328 593 322 603 q 342 575 333 583 q 353 553 350 565 q 367 529 357 540 q 382 488 382 514 q 411 439 400 465 q 440 390 422 413 q 454 363 450 381 q 468 332 458 346 q 484 305 475 324 q 501 267 493 286 q 514 239 510 247 q 529 216 521 229 q 543 190 538 203 q 583 119 563 156 q 621 46 603 83 q 626 34 625 40 q 628 24 628 28 q 606 3 628 7 q 574 0 585 0 l 526 11 q 501 5 513 10 q 474 0 489 0 q 442 1 468 0 q 382 1 415 1 q 320 1 349 1 q 279 1 292 1 l 183 1 q 160 -3 175 1 q 143 -7 144 -8 m 222 515 q 247 515 238 513 q 281 518 258 521 q 315 517 304 515 q 321 520 318 517 q 322 524 324 524 q 302 567 313 540 q 276 604 292 594 q 260 628 275 606 q 228 680 246 650 q 200 731 211 710 q 192 747 190 738 q 188 763 194 757 q 174 778 179 769 q 163 796 169 788 q 153 810 157 803 q 149 826 150 817 q 132 870 144 861 q 119 890 119 879 q 115 893 119 893 q 110 889 110 893 q 110 860 110 885 q 113 806 111 836 q 118 752 115 776 q 125 724 121 728 q 118 697 128 721 q 115 647 136 674 q 111 628 114 644 q 111 608 108 611 q 114 596 117 603 q 111 582 111 589 q 111 565 111 579 q 112 538 111 551 q 113 519 113 524 q 115 518 113 519 q 119 517 118 517 q 171 522 140 522 q 222 515 201 522 m 351 36 q 383 47 360 47 q 415 36 406 47 q 438 46 421 42 q 471 50 454 50 q 493 43 488 50 q 508 43 496 40 q 532 47 515 44 q 554 44 549 49 q 569 46 565 46 q 568 60 574 46 q 540 109 554 82 q 506 156 526 136 q 498 167 501 161 q 493 178 494 172 q 481 210 493 188 q 457 257 469 233 q 440 290 444 281 q 436 306 438 297 q 425 321 435 315 q 417 336 415 326 q 413 351 419 346 q 392 381 399 364 q 375 411 386 397 q 363 433 368 421 q 354 456 358 444 q 319 475 344 475 l 186 475 q 171 476 179 475 q 156 481 163 476 q 142 481 153 483 q 121 476 131 479 q 111 468 111 472 q 117 461 114 465 q 118 454 119 457 q 110 436 113 446 q 107 417 107 426 l 108 250 q 107 233 108 242 q 106 218 106 225 q 117 188 106 199 q 109 174 111 182 q 107 160 107 167 q 110 119 107 144 q 106 112 110 114 q 106 103 101 110 q 112 83 113 94 q 107 61 111 72 q 126 44 99 43 q 137 44 132 43 q 147 44 142 44 q 253 42 219 42 q 298 45 286 43 q 315 47 310 47 q 351 36 336 47 m 314 225 q 267 208 289 207 q 240 228 244 208 q 233 244 239 236 q 226 258 226 253 q 234 278 229 269 q 244 296 239 288 q 267 301 253 304 q 297 290 282 297 q 318 274 313 282 q 325 249 331 261 q 314 225 322 233 m 288 247 q 290 254 290 250 q 289 261 292 258 q 279 267 288 264 q 268 267 271 269 q 265 263 267 265 q 264 257 264 260 q 265 253 264 256 q 268 249 267 251 q 276 243 269 243 q 288 247 282 243 m 329 -186 q 274 -160 286 -186 q 274 -130 272 -150 q 294 -100 276 -110 q 322 -88 308 -93 q 346 -90 336 -83 q 363 -101 353 -96 q 378 -118 372 -107 q 375 -164 392 -140 q 355 -180 367 -174 q 329 -186 343 -186 m 207 1022 q 174 1044 188 1033 q 157 1061 161 1056 q 145 1076 154 1064 q 133 1090 136 1089 q 126 1102 131 1094 q 118 1111 121 1110 q 107 1115 110 1115 q 97 1113 104 1115 q 76 1092 92 1107 q 42 1062 61 1078 q 8 1035 24 1046 q -15 1024 -8 1024 q -35 1023 -26 1022 q -37 1036 -43 1024 q -21 1053 -29 1044 q -7 1072 -12 1063 q 8 1087 0 1076 q 25 1101 17 1097 q 41 1117 36 1111 q 56 1132 46 1124 q 78 1151 67 1142 q 94 1176 89 1161 q 103 1183 97 1182 q 111 1178 108 1183 q 148 1138 126 1161 q 190 1090 169 1114 q 225 1049 211 1065 q 238 1032 239 1033 q 231 1026 235 1031 q 224 1022 226 1022 q 207 1022 217 1019 z "},"Ầ":{"ha":628,"x_min":-43,"x_max":628,"o":"m 143 -7 q 122 -1 139 -3 q 88 1 104 0 q 67 1 72 1 q 57 8 61 3 q 57 17 53 14 q 67 38 67 26 q 67 67 67 49 q 67 301 67 210 q 67 446 67 393 q 68 524 68 499 q 68 558 68 550 q 68 571 68 567 q 75 581 78 575 q 69 592 72 586 q 75 600 67 597 q 77 613 76 607 q 78 626 78 619 l 78 761 q 78 772 78 767 q 79 783 79 778 q 77 798 79 790 q 68 811 75 806 q 67 818 67 814 q 67 825 67 822 l 67 946 q 83 970 67 963 q 110 967 99 978 q 123 954 117 961 q 135 940 129 947 q 149 916 142 928 q 167 894 156 904 q 179 872 167 881 q 192 849 192 864 q 200 828 193 839 q 213 807 207 818 q 264 711 239 760 q 315 613 289 663 q 328 593 322 603 q 342 575 333 583 q 353 553 350 565 q 367 529 357 540 q 382 488 382 514 q 411 439 400 465 q 440 390 422 413 q 454 363 450 381 q 468 332 458 346 q 484 305 475 324 q 501 267 493 286 q 514 239 510 247 q 529 216 521 229 q 543 190 538 203 q 583 119 563 156 q 621 46 603 83 q 626 34 625 40 q 628 24 628 28 q 606 3 628 7 q 574 0 585 0 l 526 11 q 501 5 513 10 q 474 0 489 0 q 442 1 468 0 q 382 1 415 1 q 320 1 349 1 q 279 1 292 1 l 183 1 q 160 -3 175 1 q 143 -7 144 -8 m 222 515 q 247 515 238 513 q 281 518 258 521 q 315 517 304 515 q 321 520 318 517 q 322 524 324 524 q 302 567 313 540 q 276 604 292 594 q 260 628 275 606 q 228 680 246 650 q 200 731 211 710 q 192 747 190 738 q 188 763 194 757 q 174 778 179 769 q 163 796 169 788 q 153 810 157 803 q 149 826 150 817 q 132 870 144 861 q 119 890 119 879 q 115 893 119 893 q 110 889 110 893 q 110 860 110 885 q 113 806 111 836 q 118 752 115 776 q 125 724 121 728 q 118 697 128 721 q 115 647 136 674 q 111 628 114 644 q 111 608 108 611 q 114 596 117 603 q 111 582 111 589 q 111 565 111 579 q 112 538 111 551 q 113 519 113 524 q 115 518 113 519 q 119 517 118 517 q 171 522 140 522 q 222 515 201 522 m 351 36 q 383 47 360 47 q 415 36 406 47 q 438 46 421 42 q 471 50 454 50 q 493 43 488 50 q 508 43 496 40 q 532 47 515 44 q 554 44 549 49 q 569 46 565 46 q 568 60 574 46 q 540 109 554 82 q 506 156 526 136 q 498 167 501 161 q 493 178 494 172 q 481 210 493 188 q 457 257 469 233 q 440 290 444 281 q 436 306 438 297 q 425 321 435 315 q 417 336 415 326 q 413 351 419 346 q 392 381 399 364 q 375 411 386 397 q 363 433 368 421 q 354 456 358 444 q 319 475 344 475 l 186 475 q 171 476 179 475 q 156 481 163 476 q 142 481 153 483 q 121 476 131 479 q 111 468 111 472 q 117 461 114 465 q 118 454 119 457 q 110 436 113 446 q 107 417 107 426 l 108 250 q 107 233 108 242 q 106 218 106 225 q 117 188 106 199 q 109 174 111 182 q 107 160 107 167 q 110 119 107 144 q 106 112 110 114 q 106 103 101 110 q 112 83 113 94 q 107 61 111 72 q 126 44 99 43 q 137 44 132 43 q 147 44 142 44 q 253 42 219 42 q 298 45 286 43 q 315 47 310 47 q 351 36 336 47 m 314 225 q 267 208 289 207 q 240 228 244 208 q 233 244 239 236 q 226 258 226 253 q 234 278 229 269 q 244 296 239 288 q 267 301 253 304 q 297 290 282 297 q 318 274 313 282 q 325 249 331 261 q 314 225 322 233 m 288 247 q 290 254 290 250 q 289 261 292 258 q 279 267 288 264 q 268 267 271 269 q 265 263 267 265 q 264 257 264 260 q 265 253 264 256 q 268 249 267 251 q 276 243 269 243 q 288 247 282 243 m 207 1022 q 174 1044 188 1033 q 157 1061 161 1056 q 145 1076 154 1064 q 133 1090 136 1089 q 126 1102 131 1094 q 118 1111 121 1110 q 107 1115 110 1115 q 97 1113 104 1115 q 76 1092 92 1107 q 42 1062 61 1078 q 8 1035 24 1046 q -15 1024 -8 1024 q -35 1023 -26 1022 q -37 1036 -43 1024 q -21 1053 -29 1044 q -7 1072 -12 1063 q 8 1087 0 1076 q 25 1101 17 1097 q 41 1117 36 1111 q 56 1132 46 1124 q 78 1151 67 1142 q 94 1176 89 1161 q 103 1183 97 1182 q 111 1178 108 1183 q 148 1138 126 1161 q 190 1090 169 1114 q 225 1049 211 1065 q 238 1032 239 1033 q 231 1026 235 1031 q 224 1022 226 1022 q 207 1022 217 1019 m 185 1221 q 160 1212 179 1215 q 115 1226 140 1208 q 78 1261 93 1246 q 53 1289 64 1276 q 40 1301 47 1296 q 24 1310 32 1307 q -6 1333 1 1317 q -19 1365 -12 1349 q -13 1377 -21 1369 q -1 1382 -6 1385 q 6 1384 1 1381 q 13 1385 10 1388 q 28 1376 22 1383 q 40 1363 35 1369 q 60 1342 50 1351 q 81 1324 69 1333 q 126 1276 97 1301 q 156 1249 142 1263 q 185 1221 171 1235 z "},"Ẩ":{"ha":628,"x_min":-43,"x_max":628,"o":"m 143 -7 q 122 -1 139 -3 q 88 1 104 0 q 67 1 72 1 q 57 8 61 3 q 57 17 53 14 q 67 38 67 26 q 67 67 67 49 q 67 301 67 210 q 67 446 67 393 q 68 524 68 499 q 68 558 68 550 q 68 571 68 567 q 75 581 78 575 q 69 592 72 586 q 75 600 67 597 q 77 613 76 607 q 78 626 78 619 l 78 761 q 78 772 78 767 q 79 783 79 778 q 77 798 79 790 q 68 811 75 806 q 67 818 67 814 q 67 825 67 822 l 67 946 q 83 970 67 963 q 110 967 99 978 q 123 954 117 961 q 135 940 129 947 q 149 916 142 928 q 167 894 156 904 q 179 872 167 881 q 192 849 192 864 q 200 828 193 839 q 213 807 207 818 q 264 711 239 760 q 315 613 289 663 q 328 593 322 603 q 342 575 333 583 q 353 553 350 565 q 367 529 357 540 q 382 488 382 514 q 411 439 400 465 q 440 390 422 413 q 454 363 450 381 q 468 332 458 346 q 484 305 475 324 q 501 267 493 286 q 514 239 510 247 q 529 216 521 229 q 543 190 538 203 q 583 119 563 156 q 621 46 603 83 q 626 34 625 40 q 628 24 628 28 q 606 3 628 7 q 574 0 585 0 l 526 11 q 501 5 513 10 q 474 0 489 0 q 442 1 468 0 q 382 1 415 1 q 320 1 349 1 q 279 1 292 1 l 183 1 q 160 -3 175 1 q 143 -7 144 -8 m 222 515 q 247 515 238 513 q 281 518 258 521 q 315 517 304 515 q 321 520 318 517 q 322 524 324 524 q 302 567 313 540 q 276 604 292 594 q 260 628 275 606 q 228 680 246 650 q 200 731 211 710 q 192 747 190 738 q 188 763 194 757 q 174 778 179 769 q 163 796 169 788 q 153 810 157 803 q 149 826 150 817 q 132 870 144 861 q 119 890 119 879 q 115 893 119 893 q 110 889 110 893 q 110 860 110 885 q 113 806 111 836 q 118 752 115 776 q 125 724 121 728 q 118 697 128 721 q 115 647 136 674 q 111 628 114 644 q 111 608 108 611 q 114 596 117 603 q 111 582 111 589 q 111 565 111 579 q 112 538 111 551 q 113 519 113 524 q 115 518 113 519 q 119 517 118 517 q 171 522 140 522 q 222 515 201 522 m 351 36 q 383 47 360 47 q 415 36 406 47 q 438 46 421 42 q 471 50 454 50 q 493 43 488 50 q 508 43 496 40 q 532 47 515 44 q 554 44 549 49 q 569 46 565 46 q 568 60 574 46 q 540 109 554 82 q 506 156 526 136 q 498 167 501 161 q 493 178 494 172 q 481 210 493 188 q 457 257 469 233 q 440 290 444 281 q 436 306 438 297 q 425 321 435 315 q 417 336 415 326 q 413 351 419 346 q 392 381 399 364 q 375 411 386 397 q 363 433 368 421 q 354 456 358 444 q 319 475 344 475 l 186 475 q 171 476 179 475 q 156 481 163 476 q 142 481 153 483 q 121 476 131 479 q 111 468 111 472 q 117 461 114 465 q 118 454 119 457 q 110 436 113 446 q 107 417 107 426 l 108 250 q 107 233 108 242 q 106 218 106 225 q 117 188 106 199 q 109 174 111 182 q 107 160 107 167 q 110 119 107 144 q 106 112 110 114 q 106 103 101 110 q 112 83 113 94 q 107 61 111 72 q 126 44 99 43 q 137 44 132 43 q 147 44 142 44 q 253 42 219 42 q 298 45 286 43 q 315 47 310 47 q 351 36 336 47 m 314 225 q 267 208 289 207 q 240 228 244 208 q 233 244 239 236 q 226 258 226 253 q 234 278 229 269 q 244 296 239 288 q 267 301 253 304 q 297 290 282 297 q 318 274 313 282 q 325 249 331 261 q 314 225 322 233 m 288 247 q 290 254 290 250 q 289 261 292 258 q 279 267 288 264 q 268 267 271 269 q 265 263 267 265 q 264 257 264 260 q 265 253 264 256 q 268 249 267 251 q 276 243 269 243 q 288 247 282 243 m 207 1022 q 174 1044 188 1033 q 157 1061 161 1056 q 145 1076 154 1064 q 133 1090 136 1089 q 126 1102 131 1094 q 118 1111 121 1110 q 107 1115 110 1115 q 97 1113 104 1115 q 76 1092 92 1107 q 42 1062 61 1078 q 8 1035 24 1046 q -15 1024 -8 1024 q -35 1023 -26 1022 q -37 1036 -43 1024 q -21 1053 -29 1044 q -7 1072 -12 1063 q 8 1087 0 1076 q 25 1101 17 1097 q 41 1117 36 1111 q 56 1132 46 1124 q 78 1151 67 1142 q 94 1176 89 1161 q 103 1183 97 1182 q 111 1178 108 1183 q 148 1138 126 1161 q 190 1090 169 1114 q 225 1049 211 1065 q 238 1032 239 1033 q 231 1026 235 1031 q 224 1022 226 1022 q 207 1022 217 1019 m 93 1208 q 78 1219 83 1208 q 75 1235 74 1229 q 83 1247 78 1242 q 94 1253 89 1251 q 125 1269 108 1260 q 142 1286 142 1278 q 133 1314 142 1296 q 113 1348 124 1332 q 94 1364 101 1364 q 84 1360 86 1364 q 71 1353 82 1356 q 51 1344 57 1350 q 38 1331 46 1338 q 20 1331 29 1324 q 11 1347 11 1339 q 17 1360 11 1354 q 42 1378 24 1365 q 79 1403 61 1392 q 106 1414 97 1414 q 122 1410 113 1414 q 132 1400 131 1407 q 143 1383 138 1393 q 150 1367 149 1374 q 165 1332 157 1346 q 183 1306 172 1318 q 192 1292 190 1299 q 194 1283 194 1285 q 190 1262 194 1271 q 171 1246 186 1253 l 93 1208 z "},"Ẫ":{"ha":628,"x_min":-58,"x_max":628,"o":"m 143 -7 q 122 -1 139 -3 q 88 1 104 0 q 67 1 72 1 q 57 8 61 3 q 57 17 53 14 q 67 38 67 26 q 67 67 67 49 q 67 301 67 210 q 67 446 67 393 q 68 524 68 499 q 68 558 68 550 q 68 571 68 567 q 75 581 78 575 q 69 592 72 586 q 75 600 67 597 q 77 613 76 607 q 78 626 78 619 l 78 761 q 78 772 78 767 q 79 783 79 778 q 77 798 79 790 q 68 811 75 806 q 67 818 67 814 q 67 825 67 822 l 67 946 q 83 970 67 963 q 110 967 99 978 q 123 954 117 961 q 135 940 129 947 q 149 916 142 928 q 167 894 156 904 q 179 872 167 881 q 192 849 192 864 q 200 828 193 839 q 213 807 207 818 q 264 711 239 760 q 315 613 289 663 q 328 593 322 603 q 342 575 333 583 q 353 553 350 565 q 367 529 357 540 q 382 488 382 514 q 411 439 400 465 q 440 390 422 413 q 454 363 450 381 q 468 332 458 346 q 484 305 475 324 q 501 267 493 286 q 514 239 510 247 q 529 216 521 229 q 543 190 538 203 q 583 119 563 156 q 621 46 603 83 q 626 34 625 40 q 628 24 628 28 q 606 3 628 7 q 574 0 585 0 l 526 11 q 501 5 513 10 q 474 0 489 0 q 442 1 468 0 q 382 1 415 1 q 320 1 349 1 q 279 1 292 1 l 183 1 q 160 -3 175 1 q 143 -7 144 -8 m 222 515 q 247 515 238 513 q 281 518 258 521 q 315 517 304 515 q 321 520 318 517 q 322 524 324 524 q 302 567 313 540 q 276 604 292 594 q 260 628 275 606 q 228 680 246 650 q 200 731 211 710 q 192 747 190 738 q 188 763 194 757 q 174 778 179 769 q 163 796 169 788 q 153 810 157 803 q 149 826 150 817 q 132 870 144 861 q 119 890 119 879 q 115 893 119 893 q 110 889 110 893 q 110 860 110 885 q 113 806 111 836 q 118 752 115 776 q 125 724 121 728 q 118 697 128 721 q 115 647 136 674 q 111 628 114 644 q 111 608 108 611 q 114 596 117 603 q 111 582 111 589 q 111 565 111 579 q 112 538 111 551 q 113 519 113 524 q 115 518 113 519 q 119 517 118 517 q 171 522 140 522 q 222 515 201 522 m 351 36 q 383 47 360 47 q 415 36 406 47 q 438 46 421 42 q 471 50 454 50 q 493 43 488 50 q 508 43 496 40 q 532 47 515 44 q 554 44 549 49 q 569 46 565 46 q 568 60 574 46 q 540 109 554 82 q 506 156 526 136 q 498 167 501 161 q 493 178 494 172 q 481 210 493 188 q 457 257 469 233 q 440 290 444 281 q 436 306 438 297 q 425 321 435 315 q 417 336 415 326 q 413 351 419 346 q 392 381 399 364 q 375 411 386 397 q 363 433 368 421 q 354 456 358 444 q 319 475 344 475 l 186 475 q 171 476 179 475 q 156 481 163 476 q 142 481 153 483 q 121 476 131 479 q 111 468 111 472 q 117 461 114 465 q 118 454 119 457 q 110 436 113 446 q 107 417 107 426 l 108 250 q 107 233 108 242 q 106 218 106 225 q 117 188 106 199 q 109 174 111 182 q 107 160 107 167 q 110 119 107 144 q 106 112 110 114 q 106 103 101 110 q 112 83 113 94 q 107 61 111 72 q 126 44 99 43 q 137 44 132 43 q 147 44 142 44 q 253 42 219 42 q 298 45 286 43 q 315 47 310 47 q 351 36 336 47 m 314 225 q 267 208 289 207 q 240 228 244 208 q 233 244 239 236 q 226 258 226 253 q 234 278 229 269 q 244 296 239 288 q 267 301 253 304 q 297 290 282 297 q 318 274 313 282 q 325 249 331 261 q 314 225 322 233 m 288 247 q 290 254 290 250 q 289 261 292 258 q 279 267 288 264 q 268 267 271 269 q 265 263 267 265 q 264 257 264 260 q 265 253 264 256 q 268 249 267 251 q 276 243 269 243 q 288 247 282 243 m 192 1022 q 159 1044 172 1033 q 142 1061 146 1056 q 130 1076 139 1064 q 118 1090 121 1089 q 110 1102 115 1094 q 103 1111 106 1110 q 92 1115 94 1115 q 82 1113 89 1115 q 61 1092 76 1107 q 27 1062 46 1078 q -8 1035 8 1046 q -31 1024 -24 1024 q -50 1023 -42 1022 q -53 1036 -58 1024 q -36 1053 -44 1044 q -22 1072 -28 1063 q -7 1087 -15 1076 q 10 1101 1 1097 q 26 1117 21 1111 q 40 1132 31 1124 q 63 1151 51 1142 q 79 1176 74 1161 q 88 1183 82 1182 q 96 1178 93 1183 q 133 1138 111 1161 q 175 1090 154 1114 q 210 1049 196 1065 q 222 1032 224 1033 q 215 1026 219 1031 q 208 1022 211 1022 q 192 1022 201 1019 m 156 1213 q 135 1224 150 1213 q 105 1248 121 1235 q 76 1265 89 1261 q 57 1278 65 1269 q 40 1286 49 1286 q 19 1274 35 1286 q -13 1251 3 1263 q -35 1239 -29 1240 q -48 1247 -40 1238 q -56 1261 -56 1256 q -46 1276 -56 1271 q -19 1297 -36 1283 q 16 1321 -1 1310 q 42 1332 33 1332 q 65 1322 47 1332 q 99 1302 82 1313 q 118 1289 115 1292 q 144 1272 129 1281 q 160 1263 158 1263 q 194 1285 169 1268 q 238 1301 218 1301 q 247 1295 242 1301 q 251 1286 251 1289 q 233 1260 251 1269 q 200 1240 211 1246 q 178 1225 189 1233 q 169 1218 175 1224 q 156 1213 163 1213 z "},"Ȁ":{"ha":628,"x_min":-126,"x_max":628,"o":"m 143 -7 q 122 -1 139 -3 q 88 1 104 0 q 67 1 72 1 q 57 8 61 3 q 57 17 53 14 q 67 38 67 26 q 67 67 67 49 q 67 301 67 210 q 67 446 67 393 q 68 524 68 499 q 68 558 68 550 q 68 571 68 567 q 75 581 78 575 q 69 592 72 586 q 75 600 67 597 q 77 613 76 607 q 78 626 78 619 l 78 761 q 78 772 78 767 q 79 783 79 778 q 77 798 79 790 q 68 811 75 806 q 67 818 67 814 q 67 825 67 822 l 67 946 q 83 970 67 963 q 110 967 99 978 q 123 954 117 961 q 135 940 129 947 q 149 916 142 928 q 167 894 156 904 q 179 872 167 881 q 192 849 192 864 q 200 828 193 839 q 213 807 207 818 q 264 711 239 760 q 315 613 289 663 q 328 593 322 603 q 342 575 333 583 q 353 553 350 565 q 367 529 357 540 q 382 488 382 514 q 411 439 400 465 q 440 390 422 413 q 454 363 450 381 q 468 332 458 346 q 484 305 475 324 q 501 267 493 286 q 514 239 510 247 q 529 216 521 229 q 543 190 538 203 q 583 119 563 156 q 621 46 603 83 q 626 34 625 40 q 628 24 628 28 q 606 3 628 7 q 574 0 585 0 l 526 11 q 501 5 513 10 q 474 0 489 0 q 442 1 468 0 q 382 1 415 1 q 320 1 349 1 q 279 1 292 1 l 183 1 q 160 -3 175 1 q 143 -7 144 -8 m 222 515 q 247 515 238 513 q 281 518 258 521 q 315 517 304 515 q 321 520 318 517 q 322 524 324 524 q 302 567 313 540 q 276 604 292 594 q 260 628 275 606 q 228 680 246 650 q 200 731 211 710 q 192 747 190 738 q 188 763 194 757 q 174 778 179 769 q 163 796 169 788 q 153 810 157 803 q 149 826 150 817 q 132 870 144 861 q 119 890 119 879 q 115 893 119 893 q 110 889 110 893 q 110 860 110 885 q 113 806 111 836 q 118 752 115 776 q 125 724 121 728 q 118 697 128 721 q 115 647 136 674 q 111 628 114 644 q 111 608 108 611 q 114 596 117 603 q 111 582 111 589 q 111 565 111 579 q 112 538 111 551 q 113 519 113 524 q 115 518 113 519 q 119 517 118 517 q 171 522 140 522 q 222 515 201 522 m 351 36 q 383 47 360 47 q 415 36 406 47 q 438 46 421 42 q 471 50 454 50 q 493 43 488 50 q 508 43 496 40 q 532 47 515 44 q 554 44 549 49 q 569 46 565 46 q 568 60 574 46 q 540 109 554 82 q 506 156 526 136 q 498 167 501 161 q 493 178 494 172 q 481 210 493 188 q 457 257 469 233 q 440 290 444 281 q 436 306 438 297 q 425 321 435 315 q 417 336 415 326 q 413 351 419 346 q 392 381 399 364 q 375 411 386 397 q 363 433 368 421 q 354 456 358 444 q 319 475 344 475 l 186 475 q 171 476 179 475 q 156 481 163 476 q 142 481 153 483 q 121 476 131 479 q 111 468 111 472 q 117 461 114 465 q 118 454 119 457 q 110 436 113 446 q 107 417 107 426 l 108 250 q 107 233 108 242 q 106 218 106 225 q 117 188 106 199 q 109 174 111 182 q 107 160 107 167 q 110 119 107 144 q 106 112 110 114 q 106 103 101 110 q 112 83 113 94 q 107 61 111 72 q 126 44 99 43 q 137 44 132 43 q 147 44 142 44 q 253 42 219 42 q 298 45 286 43 q 315 47 310 47 q 351 36 336 47 m 314 225 q 267 208 289 207 q 240 228 244 208 q 233 244 239 236 q 226 258 226 253 q 234 278 229 269 q 244 296 239 288 q 267 301 253 304 q 297 290 282 297 q 318 274 313 282 q 325 249 331 261 q 314 225 322 233 m 288 247 q 290 254 290 250 q 289 261 292 258 q 279 267 288 264 q 268 267 271 269 q 265 263 267 265 q 264 257 264 260 q 265 253 264 256 q 268 249 267 251 q 276 243 269 243 q 288 247 282 243 m 67 1033 q 42 1027 61 1029 q -1 1047 22 1025 q -35 1084 -24 1067 q -58 1114 -47 1101 q -71 1127 -64 1121 q -87 1138 -78 1133 q -112 1162 -107 1144 q -125 1197 -118 1179 q -117 1208 -126 1201 q -106 1213 -108 1215 q -98 1213 -103 1211 q -89 1213 -93 1215 q -76 1203 -82 1211 q -64 1188 -69 1196 q -48 1167 -57 1178 q -29 1144 -39 1157 q -10 1122 -19 1132 q 14 1096 0 1111 q 40 1065 28 1082 q 67 1033 53 1049 m 219 1032 q 194 1026 214 1028 q 151 1046 175 1024 q 117 1083 129 1065 q 94 1113 106 1100 q 82 1126 89 1119 q 65 1136 75 1132 q 40 1160 46 1143 q 29 1196 35 1178 q 36 1207 28 1200 q 47 1211 44 1214 q 55 1212 50 1210 q 64 1213 60 1214 q 77 1202 71 1210 q 89 1186 83 1194 q 106 1166 96 1176 q 125 1144 115 1156 q 143 1120 133 1131 q 167 1094 153 1110 q 193 1064 181 1081 q 219 1032 206 1047 z "},"Ä":{"ha":628,"x_min":-65,"x_max":628,"o":"m 143 -7 q 122 -1 139 -3 q 88 1 104 0 q 67 1 72 1 q 57 8 61 3 q 57 17 53 14 q 67 38 67 26 q 67 67 67 49 q 67 301 67 210 q 67 446 67 393 q 68 524 68 499 q 68 558 68 550 q 68 571 68 567 q 75 581 78 575 q 69 592 72 586 q 75 600 67 597 q 77 613 76 607 q 78 626 78 619 l 78 761 q 78 772 78 767 q 79 783 79 778 q 77 798 79 790 q 68 811 75 806 q 67 818 67 814 q 67 825 67 822 l 67 946 q 83 970 67 963 q 110 967 99 978 q 123 954 117 961 q 135 940 129 947 q 149 916 142 928 q 167 894 156 904 q 179 872 167 881 q 192 849 192 864 q 200 828 193 839 q 213 807 207 818 q 264 711 239 760 q 315 613 289 663 q 328 593 322 603 q 342 575 333 583 q 353 553 350 565 q 367 529 357 540 q 382 488 382 514 q 411 439 400 465 q 440 390 422 413 q 454 363 450 381 q 468 332 458 346 q 484 305 475 324 q 501 267 493 286 q 514 239 510 247 q 529 216 521 229 q 543 190 538 203 q 583 119 563 156 q 621 46 603 83 q 626 34 625 40 q 628 24 628 28 q 606 3 628 7 q 574 0 585 0 l 526 11 q 501 5 513 10 q 474 0 489 0 q 442 1 468 0 q 382 1 415 1 q 320 1 349 1 q 279 1 292 1 l 183 1 q 160 -3 175 1 q 143 -7 144 -8 m 222 515 q 247 515 238 513 q 281 518 258 521 q 315 517 304 515 q 321 520 318 517 q 322 524 324 524 q 302 567 313 540 q 276 604 292 594 q 260 628 275 606 q 228 680 246 650 q 200 731 211 710 q 192 747 190 738 q 188 763 194 757 q 174 778 179 769 q 163 796 169 788 q 153 810 157 803 q 149 826 150 817 q 132 870 144 861 q 119 890 119 879 q 115 893 119 893 q 110 889 110 893 q 110 860 110 885 q 113 806 111 836 q 118 752 115 776 q 125 724 121 728 q 118 697 128 721 q 115 647 136 674 q 111 628 114 644 q 111 608 108 611 q 114 596 117 603 q 111 582 111 589 q 111 565 111 579 q 112 538 111 551 q 113 519 113 524 q 115 518 113 519 q 119 517 118 517 q 171 522 140 522 q 222 515 201 522 m 351 36 q 383 47 360 47 q 415 36 406 47 q 438 46 421 42 q 471 50 454 50 q 493 43 488 50 q 508 43 496 40 q 532 47 515 44 q 554 44 549 49 q 569 46 565 46 q 568 60 574 46 q 540 109 554 82 q 506 156 526 136 q 498 167 501 161 q 493 178 494 172 q 481 210 493 188 q 457 257 469 233 q 440 290 444 281 q 436 306 438 297 q 425 321 435 315 q 417 336 415 326 q 413 351 419 346 q 392 381 399 364 q 375 411 386 397 q 363 433 368 421 q 354 456 358 444 q 319 475 344 475 l 186 475 q 171 476 179 475 q 156 481 163 476 q 142 481 153 483 q 121 476 131 479 q 111 468 111 472 q 117 461 114 465 q 118 454 119 457 q 110 436 113 446 q 107 417 107 426 l 108 250 q 107 233 108 242 q 106 218 106 225 q 117 188 106 199 q 109 174 111 182 q 107 160 107 167 q 110 119 107 144 q 106 112 110 114 q 106 103 101 110 q 112 83 113 94 q 107 61 111 72 q 126 44 99 43 q 137 44 132 43 q 147 44 142 44 q 253 42 219 42 q 298 45 286 43 q 315 47 310 47 q 351 36 336 47 m 314 225 q 267 208 289 207 q 240 228 244 208 q 233 244 239 236 q 226 258 226 253 q 234 278 229 269 q 244 296 239 288 q 267 301 253 304 q 297 290 282 297 q 318 274 313 282 q 325 249 331 261 q 314 225 322 233 m 288 247 q 290 254 290 250 q 289 261 292 258 q 279 267 288 264 q 268 267 271 269 q 265 263 267 265 q 264 257 264 260 q 265 253 264 256 q 268 249 267 251 q 276 243 269 243 q 288 247 282 243 m 194 1018 q 139 1044 151 1018 q 140 1074 138 1054 q 160 1104 142 1094 q 188 1116 174 1111 q 211 1114 201 1121 q 228 1104 218 1108 q 246 1094 238 1100 q 253 1068 263 1085 q 232 1034 243 1050 q 194 1018 221 1018 m -17 1022 q -32 1026 -25 1021 q -49 1036 -39 1031 q -65 1064 -65 1049 q -47 1099 -64 1083 q -4 1115 -31 1115 q 31 1109 15 1115 q 53 1088 47 1103 q 52 1060 56 1081 q 29 1028 49 1039 q 6 1022 17 1019 q -17 1022 -4 1024 z "},"Ǟ":{"ha":628,"x_min":-65,"x_max":628,"o":"m 143 -7 q 122 -1 139 -3 q 88 1 104 0 q 67 1 72 1 q 57 8 61 3 q 57 17 53 14 q 67 38 67 26 q 67 67 67 49 q 67 301 67 210 q 67 446 67 393 q 68 524 68 499 q 68 558 68 550 q 68 571 68 567 q 75 581 78 575 q 69 592 72 586 q 75 600 67 597 q 77 613 76 607 q 78 626 78 619 l 78 761 q 78 772 78 767 q 79 783 79 778 q 77 798 79 790 q 68 811 75 806 q 67 818 67 814 q 67 825 67 822 l 67 946 q 83 970 67 963 q 110 967 99 978 q 123 954 117 961 q 135 940 129 947 q 149 916 142 928 q 167 894 156 904 q 179 872 167 881 q 192 849 192 864 q 200 828 193 839 q 213 807 207 818 q 264 711 239 760 q 315 613 289 663 q 328 593 322 603 q 342 575 333 583 q 353 553 350 565 q 367 529 357 540 q 382 488 382 514 q 411 439 400 465 q 440 390 422 413 q 454 363 450 381 q 468 332 458 346 q 484 305 475 324 q 501 267 493 286 q 514 239 510 247 q 529 216 521 229 q 543 190 538 203 q 583 119 563 156 q 621 46 603 83 q 626 34 625 40 q 628 24 628 28 q 606 3 628 7 q 574 0 585 0 l 526 11 q 501 5 513 10 q 474 0 489 0 q 442 1 468 0 q 382 1 415 1 q 320 1 349 1 q 279 1 292 1 l 183 1 q 160 -3 175 1 q 143 -7 144 -8 m 222 515 q 247 515 238 513 q 281 518 258 521 q 315 517 304 515 q 321 520 318 517 q 322 524 324 524 q 302 567 313 540 q 276 604 292 594 q 260 628 275 606 q 228 680 246 650 q 200 731 211 710 q 192 747 190 738 q 188 763 194 757 q 174 778 179 769 q 163 796 169 788 q 153 810 157 803 q 149 826 150 817 q 132 870 144 861 q 119 890 119 879 q 115 893 119 893 q 110 889 110 893 q 110 860 110 885 q 113 806 111 836 q 118 752 115 776 q 125 724 121 728 q 118 697 128 721 q 115 647 136 674 q 111 628 114 644 q 111 608 108 611 q 114 596 117 603 q 111 582 111 589 q 111 565 111 579 q 112 538 111 551 q 113 519 113 524 q 115 518 113 519 q 119 517 118 517 q 171 522 140 522 q 222 515 201 522 m 351 36 q 383 47 360 47 q 415 36 406 47 q 438 46 421 42 q 471 50 454 50 q 493 43 488 50 q 508 43 496 40 q 532 47 515 44 q 554 44 549 49 q 569 46 565 46 q 568 60 574 46 q 540 109 554 82 q 506 156 526 136 q 498 167 501 161 q 493 178 494 172 q 481 210 493 188 q 457 257 469 233 q 440 290 444 281 q 436 306 438 297 q 425 321 435 315 q 417 336 415 326 q 413 351 419 346 q 392 381 399 364 q 375 411 386 397 q 363 433 368 421 q 354 456 358 444 q 319 475 344 475 l 186 475 q 171 476 179 475 q 156 481 163 476 q 142 481 153 483 q 121 476 131 479 q 111 468 111 472 q 117 461 114 465 q 118 454 119 457 q 110 436 113 446 q 107 417 107 426 l 108 250 q 107 233 108 242 q 106 218 106 225 q 117 188 106 199 q 109 174 111 182 q 107 160 107 167 q 110 119 107 144 q 106 112 110 114 q 106 103 101 110 q 112 83 113 94 q 107 61 111 72 q 126 44 99 43 q 137 44 132 43 q 147 44 142 44 q 253 42 219 42 q 298 45 286 43 q 315 47 310 47 q 351 36 336 47 m 314 225 q 267 208 289 207 q 240 228 244 208 q 233 244 239 236 q 226 258 226 253 q 234 278 229 269 q 244 296 239 288 q 267 301 253 304 q 297 290 282 297 q 318 274 313 282 q 325 249 331 261 q 314 225 322 233 m 288 247 q 290 254 290 250 q 289 261 292 258 q 279 267 288 264 q 268 267 271 269 q 265 263 267 265 q 264 257 264 260 q 265 253 264 256 q 268 249 267 251 q 276 243 269 243 q 288 247 282 243 m 194 1018 q 139 1044 151 1018 q 140 1074 138 1054 q 160 1104 142 1094 q 188 1116 174 1111 q 211 1114 201 1121 q 228 1104 218 1108 q 246 1094 238 1100 q 253 1068 263 1085 q 232 1034 243 1050 q 194 1018 221 1018 m -17 1022 q -32 1026 -25 1021 q -49 1036 -39 1031 q -65 1064 -65 1049 q -47 1099 -64 1083 q -4 1115 -31 1115 q 31 1109 15 1115 q 53 1088 47 1103 q 52 1060 56 1081 q 29 1028 49 1039 q 6 1022 17 1019 q -17 1022 -4 1024 m 164 1158 q 140 1163 153 1158 q 120 1169 131 1167 q 99 1168 110 1171 q 74 1167 89 1167 q 25 1168 58 1167 q 10 1169 21 1168 q -1 1171 0 1169 q -31 1190 -25 1178 q -36 1211 -36 1201 l 57 1211 q 78 1209 75 1210 q 84 1209 81 1208 q 106 1211 88 1210 l 147 1211 q 169 1212 158 1211 q 190 1213 181 1213 q 201 1212 197 1213 q 210 1210 206 1211 q 215 1204 214 1208 q 222 1199 217 1200 q 226 1186 226 1199 q 222 1172 226 1174 q 193 1163 207 1168 q 164 1158 179 1158 z "},"Ȧ":{"ha":628,"x_min":40,"x_max":628,"o":"m 143 -7 q 122 -1 139 -3 q 88 1 104 0 q 67 1 72 1 q 57 8 61 3 q 57 17 53 14 q 67 38 67 26 q 67 67 67 49 q 67 301 67 210 q 67 446 67 393 q 68 524 68 499 q 68 558 68 550 q 68 571 68 567 q 75 581 78 575 q 69 592 72 586 q 75 600 67 597 q 77 613 76 607 q 78 626 78 619 l 78 761 q 78 772 78 767 q 79 783 79 778 q 77 798 79 790 q 68 811 75 806 q 67 818 67 814 q 67 825 67 822 l 67 946 q 83 970 67 963 q 110 967 99 978 q 123 954 117 961 q 135 940 129 947 q 149 916 142 928 q 167 894 156 904 q 179 872 167 881 q 192 849 192 864 q 200 828 193 839 q 213 807 207 818 q 264 711 239 760 q 315 613 289 663 q 328 593 322 603 q 342 575 333 583 q 353 553 350 565 q 367 529 357 540 q 382 488 382 514 q 411 439 400 465 q 440 390 422 413 q 454 363 450 381 q 468 332 458 346 q 484 305 475 324 q 501 267 493 286 q 514 239 510 247 q 529 216 521 229 q 543 190 538 203 q 583 119 563 156 q 621 46 603 83 q 626 34 625 40 q 628 24 628 28 q 606 3 628 7 q 574 0 585 0 l 526 11 q 501 5 513 10 q 474 0 489 0 q 442 1 468 0 q 382 1 415 1 q 320 1 349 1 q 279 1 292 1 l 183 1 q 160 -3 175 1 q 143 -7 144 -8 m 222 515 q 247 515 238 513 q 281 518 258 521 q 315 517 304 515 q 321 520 318 517 q 322 524 324 524 q 302 567 313 540 q 276 604 292 594 q 260 628 275 606 q 228 680 246 650 q 200 731 211 710 q 192 747 190 738 q 188 763 194 757 q 174 778 179 769 q 163 796 169 788 q 153 810 157 803 q 149 826 150 817 q 132 870 144 861 q 119 890 119 879 q 115 893 119 893 q 110 889 110 893 q 110 860 110 885 q 113 806 111 836 q 118 752 115 776 q 125 724 121 728 q 118 697 128 721 q 115 647 136 674 q 111 628 114 644 q 111 608 108 611 q 114 596 117 603 q 111 582 111 589 q 111 565 111 579 q 112 538 111 551 q 113 519 113 524 q 115 518 113 519 q 119 517 118 517 q 171 522 140 522 q 222 515 201 522 m 351 36 q 383 47 360 47 q 415 36 406 47 q 438 46 421 42 q 471 50 454 50 q 493 43 488 50 q 508 43 496 40 q 532 47 515 44 q 554 44 549 49 q 569 46 565 46 q 568 60 574 46 q 540 109 554 82 q 506 156 526 136 q 498 167 501 161 q 493 178 494 172 q 481 210 493 188 q 457 257 469 233 q 440 290 444 281 q 436 306 438 297 q 425 321 435 315 q 417 336 415 326 q 413 351 419 346 q 392 381 399 364 q 375 411 386 397 q 363 433 368 421 q 354 456 358 444 q 319 475 344 475 l 186 475 q 171 476 179 475 q 156 481 163 476 q 142 481 153 483 q 121 476 131 479 q 111 468 111 472 q 117 461 114 465 q 118 454 119 457 q 110 436 113 446 q 107 417 107 426 l 108 250 q 107 233 108 242 q 106 218 106 225 q 117 188 106 199 q 109 174 111 182 q 107 160 107 167 q 110 119 107 144 q 106 112 110 114 q 106 103 101 110 q 112 83 113 94 q 107 61 111 72 q 126 44 99 43 q 137 44 132 43 q 147 44 142 44 q 253 42 219 42 q 298 45 286 43 q 315 47 310 47 q 351 36 336 47 m 314 225 q 267 208 289 207 q 240 228 244 208 q 233 244 239 236 q 226 258 226 253 q 234 278 229 269 q 244 296 239 288 q 267 301 253 304 q 297 290 282 297 q 318 274 313 282 q 325 249 331 261 q 314 225 322 233 m 288 247 q 290 254 290 250 q 289 261 292 258 q 279 267 288 264 q 268 267 271 269 q 265 263 267 265 q 264 257 264 260 q 265 253 264 256 q 268 249 267 251 q 276 243 269 243 q 288 247 282 243 m 99 1017 q 63 1025 79 1017 q 43 1044 47 1033 q 43 1073 40 1053 q 65 1103 46 1093 q 92 1117 78 1113 q 115 1115 106 1122 q 132 1105 122 1110 q 150 1096 142 1100 q 158 1068 167 1083 q 137 1033 149 1050 q 99 1017 125 1017 z "},"Ạ":{"ha":628,"x_min":53,"x_max":628,"o":"m 143 -7 q 122 -1 139 -3 q 88 1 104 0 q 67 1 72 1 q 57 8 61 3 q 57 17 53 14 q 67 38 67 26 q 67 67 67 49 q 67 301 67 210 q 67 446 67 393 q 68 524 68 499 q 68 558 68 550 q 68 571 68 567 q 75 581 78 575 q 69 592 72 586 q 75 600 67 597 q 77 613 76 607 q 78 626 78 619 l 78 761 q 78 772 78 767 q 79 783 79 778 q 77 798 79 790 q 68 811 75 806 q 67 818 67 814 q 67 825 67 822 l 67 946 q 83 970 67 963 q 110 967 99 978 q 123 954 117 961 q 135 940 129 947 q 149 916 142 928 q 167 894 156 904 q 179 872 167 881 q 192 849 192 864 q 200 828 193 839 q 213 807 207 818 q 264 711 239 760 q 315 613 289 663 q 328 593 322 603 q 342 575 333 583 q 353 553 350 565 q 367 529 357 540 q 382 488 382 514 q 411 439 400 465 q 440 390 422 413 q 454 363 450 381 q 468 332 458 346 q 484 305 475 324 q 501 267 493 286 q 514 239 510 247 q 529 216 521 229 q 543 190 538 203 q 583 119 563 156 q 621 46 603 83 q 626 34 625 40 q 628 24 628 28 q 606 3 628 7 q 574 0 585 0 l 526 11 q 501 5 513 10 q 474 0 489 0 q 442 1 468 0 q 382 1 415 1 q 320 1 349 1 q 279 1 292 1 l 183 1 q 160 -3 175 1 q 143 -7 144 -8 m 222 515 q 247 515 238 513 q 281 518 258 521 q 315 517 304 515 q 321 520 318 517 q 322 524 324 524 q 302 567 313 540 q 276 604 292 594 q 260 628 275 606 q 228 680 246 650 q 200 731 211 710 q 192 747 190 738 q 188 763 194 757 q 174 778 179 769 q 163 796 169 788 q 153 810 157 803 q 149 826 150 817 q 132 870 144 861 q 119 890 119 879 q 115 893 119 893 q 110 889 110 893 q 110 860 110 885 q 113 806 111 836 q 118 752 115 776 q 125 724 121 728 q 118 697 128 721 q 115 647 136 674 q 111 628 114 644 q 111 608 108 611 q 114 596 117 603 q 111 582 111 589 q 111 565 111 579 q 112 538 111 551 q 113 519 113 524 q 115 518 113 519 q 119 517 118 517 q 171 522 140 522 q 222 515 201 522 m 351 36 q 383 47 360 47 q 415 36 406 47 q 438 46 421 42 q 471 50 454 50 q 493 43 488 50 q 508 43 496 40 q 532 47 515 44 q 554 44 549 49 q 569 46 565 46 q 568 60 574 46 q 540 109 554 82 q 506 156 526 136 q 498 167 501 161 q 493 178 494 172 q 481 210 493 188 q 457 257 469 233 q 440 290 444 281 q 436 306 438 297 q 425 321 435 315 q 417 336 415 326 q 413 351 419 346 q 392 381 399 364 q 375 411 386 397 q 363 433 368 421 q 354 456 358 444 q 319 475 344 475 l 186 475 q 171 476 179 475 q 156 481 163 476 q 142 481 153 483 q 121 476 131 479 q 111 468 111 472 q 117 461 114 465 q 118 454 119 457 q 110 436 113 446 q 107 417 107 426 l 108 250 q 107 233 108 242 q 106 218 106 225 q 117 188 106 199 q 109 174 111 182 q 107 160 107 167 q 110 119 107 144 q 106 112 110 114 q 106 103 101 110 q 112 83 113 94 q 107 61 111 72 q 126 44 99 43 q 137 44 132 43 q 147 44 142 44 q 253 42 219 42 q 298 45 286 43 q 315 47 310 47 q 351 36 336 47 m 314 225 q 267 208 289 207 q 240 228 244 208 q 233 244 239 236 q 226 258 226 253 q 234 278 229 269 q 244 296 239 288 q 267 301 253 304 q 297 290 282 297 q 318 274 313 282 q 325 249 331 261 q 314 225 322 233 m 288 247 q 290 254 290 250 q 289 261 292 258 q 279 267 288 264 q 268 267 271 269 q 265 263 267 265 q 264 257 264 260 q 265 253 264 256 q 268 249 267 251 q 276 243 269 243 q 288 247 282 243 m 329 -186 q 274 -160 286 -186 q 274 -130 272 -150 q 294 -100 276 -110 q 322 -88 308 -93 q 346 -90 336 -83 q 363 -101 353 -96 q 378 -118 372 -107 q 375 -164 392 -140 q 355 -180 367 -174 q 329 -186 343 -186 z "},"Ǡ":{"ha":628,"x_min":-31,"x_max":628,"o":"m 143 -7 q 122 -1 139 -3 q 88 1 104 0 q 67 1 72 1 q 57 8 61 3 q 57 17 53 14 q 67 38 67 26 q 67 67 67 49 q 67 301 67 210 q 67 446 67 393 q 68 524 68 499 q 68 558 68 550 q 68 571 68 567 q 75 581 78 575 q 69 592 72 586 q 75 600 67 597 q 77 613 76 607 q 78 626 78 619 l 78 761 q 78 772 78 767 q 79 783 79 778 q 77 798 79 790 q 68 811 75 806 q 67 818 67 814 q 67 825 67 822 l 67 946 q 83 970 67 963 q 110 967 99 978 q 123 954 117 961 q 135 940 129 947 q 149 916 142 928 q 167 894 156 904 q 179 872 167 881 q 192 849 192 864 q 200 828 193 839 q 213 807 207 818 q 264 711 239 760 q 315 613 289 663 q 328 593 322 603 q 342 575 333 583 q 353 553 350 565 q 367 529 357 540 q 382 488 382 514 q 411 439 400 465 q 440 390 422 413 q 454 363 450 381 q 468 332 458 346 q 484 305 475 324 q 501 267 493 286 q 514 239 510 247 q 529 216 521 229 q 543 190 538 203 q 583 119 563 156 q 621 46 603 83 q 626 34 625 40 q 628 24 628 28 q 606 3 628 7 q 574 0 585 0 l 526 11 q 501 5 513 10 q 474 0 489 0 q 442 1 468 0 q 382 1 415 1 q 320 1 349 1 q 279 1 292 1 l 183 1 q 160 -3 175 1 q 143 -7 144 -8 m 222 515 q 247 515 238 513 q 281 518 258 521 q 315 517 304 515 q 321 520 318 517 q 322 524 324 524 q 302 567 313 540 q 276 604 292 594 q 260 628 275 606 q 228 680 246 650 q 200 731 211 710 q 192 747 190 738 q 188 763 194 757 q 174 778 179 769 q 163 796 169 788 q 153 810 157 803 q 149 826 150 817 q 132 870 144 861 q 119 890 119 879 q 115 893 119 893 q 110 889 110 893 q 110 860 110 885 q 113 806 111 836 q 118 752 115 776 q 125 724 121 728 q 118 697 128 721 q 115 647 136 674 q 111 628 114 644 q 111 608 108 611 q 114 596 117 603 q 111 582 111 589 q 111 565 111 579 q 112 538 111 551 q 113 519 113 524 q 115 518 113 519 q 119 517 118 517 q 171 522 140 522 q 222 515 201 522 m 351 36 q 383 47 360 47 q 415 36 406 47 q 438 46 421 42 q 471 50 454 50 q 493 43 488 50 q 508 43 496 40 q 532 47 515 44 q 554 44 549 49 q 569 46 565 46 q 568 60 574 46 q 540 109 554 82 q 506 156 526 136 q 498 167 501 161 q 493 178 494 172 q 481 210 493 188 q 457 257 469 233 q 440 290 444 281 q 436 306 438 297 q 425 321 435 315 q 417 336 415 326 q 413 351 419 346 q 392 381 399 364 q 375 411 386 397 q 363 433 368 421 q 354 456 358 444 q 319 475 344 475 l 186 475 q 171 476 179 475 q 156 481 163 476 q 142 481 153 483 q 121 476 131 479 q 111 468 111 472 q 117 461 114 465 q 118 454 119 457 q 110 436 113 446 q 107 417 107 426 l 108 250 q 107 233 108 242 q 106 218 106 225 q 117 188 106 199 q 109 174 111 182 q 107 160 107 167 q 110 119 107 144 q 106 112 110 114 q 106 103 101 110 q 112 83 113 94 q 107 61 111 72 q 126 44 99 43 q 137 44 132 43 q 147 44 142 44 q 253 42 219 42 q 298 45 286 43 q 315 47 310 47 q 351 36 336 47 m 314 225 q 267 208 289 207 q 240 228 244 208 q 233 244 239 236 q 226 258 226 253 q 234 278 229 269 q 244 296 239 288 q 267 301 253 304 q 297 290 282 297 q 318 274 313 282 q 325 249 331 261 q 314 225 322 233 m 288 247 q 290 254 290 250 q 289 261 292 258 q 279 267 288 264 q 268 267 271 269 q 265 263 267 265 q 264 257 264 260 q 265 253 264 256 q 268 249 267 251 q 276 243 269 243 q 288 247 282 243 m 99 1017 q 63 1025 79 1017 q 43 1044 47 1033 q 43 1073 40 1053 q 65 1103 46 1093 q 92 1117 78 1113 q 115 1115 106 1122 q 132 1105 122 1110 q 150 1096 142 1100 q 158 1068 167 1083 q 137 1033 149 1050 q 99 1017 125 1017 m 169 1154 q 146 1158 158 1154 q 126 1165 136 1163 q 104 1164 115 1167 q 79 1163 94 1163 q 31 1164 64 1163 q 16 1165 26 1164 q 4 1167 6 1165 q -25 1185 -19 1174 q -31 1207 -31 1197 l 63 1207 q 83 1205 81 1206 q 90 1205 86 1204 q 111 1207 93 1206 l 153 1207 q 175 1208 164 1207 q 196 1208 186 1208 q 207 1208 203 1208 q 215 1206 211 1207 q 221 1200 219 1204 q 228 1194 222 1196 q 232 1182 232 1194 q 228 1168 232 1169 q 199 1159 213 1164 q 169 1154 185 1154 z "},"À":{"ha":628,"x_min":-31,"x_max":628,"o":"m 143 -7 q 122 -1 139 -3 q 88 1 104 0 q 67 1 72 1 q 57 8 61 3 q 57 17 53 14 q 67 38 67 26 q 67 67 67 49 q 67 301 67 210 q 67 446 67 393 q 68 524 68 499 q 68 558 68 550 q 68 571 68 567 q 75 581 78 575 q 69 592 72 586 q 75 600 67 597 q 77 613 76 607 q 78 626 78 619 l 78 761 q 78 772 78 767 q 79 783 79 778 q 77 798 79 790 q 68 811 75 806 q 67 818 67 814 q 67 825 67 822 l 67 946 q 83 970 67 963 q 110 967 99 978 q 123 954 117 961 q 135 940 129 947 q 149 916 142 928 q 167 894 156 904 q 179 872 167 881 q 192 849 192 864 q 200 828 193 839 q 213 807 207 818 q 264 711 239 760 q 315 613 289 663 q 328 593 322 603 q 342 575 333 583 q 353 553 350 565 q 367 529 357 540 q 382 488 382 514 q 411 439 400 465 q 440 390 422 413 q 454 363 450 381 q 468 332 458 346 q 484 305 475 324 q 501 267 493 286 q 514 239 510 247 q 529 216 521 229 q 543 190 538 203 q 583 119 563 156 q 621 46 603 83 q 626 34 625 40 q 628 24 628 28 q 606 3 628 7 q 574 0 585 0 l 526 11 q 501 5 513 10 q 474 0 489 0 q 442 1 468 0 q 382 1 415 1 q 320 1 349 1 q 279 1 292 1 l 183 1 q 160 -3 175 1 q 143 -7 144 -8 m 222 515 q 247 515 238 513 q 281 518 258 521 q 315 517 304 515 q 321 520 318 517 q 322 524 324 524 q 302 567 313 540 q 276 604 292 594 q 260 628 275 606 q 228 680 246 650 q 200 731 211 710 q 192 747 190 738 q 188 763 194 757 q 174 778 179 769 q 163 796 169 788 q 153 810 157 803 q 149 826 150 817 q 132 870 144 861 q 119 890 119 879 q 115 893 119 893 q 110 889 110 893 q 110 860 110 885 q 113 806 111 836 q 118 752 115 776 q 125 724 121 728 q 118 697 128 721 q 115 647 136 674 q 111 628 114 644 q 111 608 108 611 q 114 596 117 603 q 111 582 111 589 q 111 565 111 579 q 112 538 111 551 q 113 519 113 524 q 115 518 113 519 q 119 517 118 517 q 171 522 140 522 q 222 515 201 522 m 351 36 q 383 47 360 47 q 415 36 406 47 q 438 46 421 42 q 471 50 454 50 q 493 43 488 50 q 508 43 496 40 q 532 47 515 44 q 554 44 549 49 q 569 46 565 46 q 568 60 574 46 q 540 109 554 82 q 506 156 526 136 q 498 167 501 161 q 493 178 494 172 q 481 210 493 188 q 457 257 469 233 q 440 290 444 281 q 436 306 438 297 q 425 321 435 315 q 417 336 415 326 q 413 351 419 346 q 392 381 399 364 q 375 411 386 397 q 363 433 368 421 q 354 456 358 444 q 319 475 344 475 l 186 475 q 171 476 179 475 q 156 481 163 476 q 142 481 153 483 q 121 476 131 479 q 111 468 111 472 q 117 461 114 465 q 118 454 119 457 q 110 436 113 446 q 107 417 107 426 l 108 250 q 107 233 108 242 q 106 218 106 225 q 117 188 106 199 q 109 174 111 182 q 107 160 107 167 q 110 119 107 144 q 106 112 110 114 q 106 103 101 110 q 112 83 113 94 q 107 61 111 72 q 126 44 99 43 q 137 44 132 43 q 147 44 142 44 q 253 42 219 42 q 298 45 286 43 q 315 47 310 47 q 351 36 336 47 m 314 225 q 267 208 289 207 q 240 228 244 208 q 233 244 239 236 q 226 258 226 253 q 234 278 229 269 q 244 296 239 288 q 267 301 253 304 q 297 290 282 297 q 318 274 313 282 q 325 249 331 261 q 314 225 322 233 m 288 247 q 290 254 290 250 q 289 261 292 258 q 279 267 288 264 q 268 267 271 269 q 265 263 267 265 q 264 257 264 260 q 265 253 264 256 q 268 249 267 251 q 276 243 269 243 q 288 247 282 243 m 175 1033 q 150 1024 169 1028 q 106 1039 131 1021 q 69 1074 83 1058 q 43 1101 54 1089 q 30 1114 38 1108 q 14 1122 22 1119 q -15 1145 -8 1129 q -29 1178 -22 1161 q -23 1190 -31 1182 q -11 1194 -15 1197 q -4 1197 -8 1193 q 3 1197 0 1200 q 19 1189 13 1196 q 31 1175 25 1182 q 50 1155 40 1164 q 71 1136 60 1146 q 117 1089 88 1114 q 147 1061 132 1075 q 175 1033 161 1047 z "},"Ả":{"ha":628,"x_min":1,"x_max":628,"o":"m 143 -7 q 122 -1 139 -3 q 88 1 104 0 q 67 1 72 1 q 57 8 61 3 q 57 17 53 14 q 67 38 67 26 q 67 67 67 49 q 67 301 67 210 q 67 446 67 393 q 68 524 68 499 q 68 558 68 550 q 68 571 68 567 q 75 581 78 575 q 69 592 72 586 q 75 600 67 597 q 77 613 76 607 q 78 626 78 619 l 78 761 q 78 772 78 767 q 79 783 79 778 q 77 798 79 790 q 68 811 75 806 q 67 818 67 814 q 67 825 67 822 l 67 946 q 83 970 67 963 q 110 967 99 978 q 123 954 117 961 q 135 940 129 947 q 149 916 142 928 q 167 894 156 904 q 179 872 167 881 q 192 849 192 864 q 200 828 193 839 q 213 807 207 818 q 264 711 239 760 q 315 613 289 663 q 328 593 322 603 q 342 575 333 583 q 353 553 350 565 q 367 529 357 540 q 382 488 382 514 q 411 439 400 465 q 440 390 422 413 q 454 363 450 381 q 468 332 458 346 q 484 305 475 324 q 501 267 493 286 q 514 239 510 247 q 529 216 521 229 q 543 190 538 203 q 583 119 563 156 q 621 46 603 83 q 626 34 625 40 q 628 24 628 28 q 606 3 628 7 q 574 0 585 0 l 526 11 q 501 5 513 10 q 474 0 489 0 q 442 1 468 0 q 382 1 415 1 q 320 1 349 1 q 279 1 292 1 l 183 1 q 160 -3 175 1 q 143 -7 144 -8 m 222 515 q 247 515 238 513 q 281 518 258 521 q 315 517 304 515 q 321 520 318 517 q 322 524 324 524 q 302 567 313 540 q 276 604 292 594 q 260 628 275 606 q 228 680 246 650 q 200 731 211 710 q 192 747 190 738 q 188 763 194 757 q 174 778 179 769 q 163 796 169 788 q 153 810 157 803 q 149 826 150 817 q 132 870 144 861 q 119 890 119 879 q 115 893 119 893 q 110 889 110 893 q 110 860 110 885 q 113 806 111 836 q 118 752 115 776 q 125 724 121 728 q 118 697 128 721 q 115 647 136 674 q 111 628 114 644 q 111 608 108 611 q 114 596 117 603 q 111 582 111 589 q 111 565 111 579 q 112 538 111 551 q 113 519 113 524 q 115 518 113 519 q 119 517 118 517 q 171 522 140 522 q 222 515 201 522 m 351 36 q 383 47 360 47 q 415 36 406 47 q 438 46 421 42 q 471 50 454 50 q 493 43 488 50 q 508 43 496 40 q 532 47 515 44 q 554 44 549 49 q 569 46 565 46 q 568 60 574 46 q 540 109 554 82 q 506 156 526 136 q 498 167 501 161 q 493 178 494 172 q 481 210 493 188 q 457 257 469 233 q 440 290 444 281 q 436 306 438 297 q 425 321 435 315 q 417 336 415 326 q 413 351 419 346 q 392 381 399 364 q 375 411 386 397 q 363 433 368 421 q 354 456 358 444 q 319 475 344 475 l 186 475 q 171 476 179 475 q 156 481 163 476 q 142 481 153 483 q 121 476 131 479 q 111 468 111 472 q 117 461 114 465 q 118 454 119 457 q 110 436 113 446 q 107 417 107 426 l 108 250 q 107 233 108 242 q 106 218 106 225 q 117 188 106 199 q 109 174 111 182 q 107 160 107 167 q 110 119 107 144 q 106 112 110 114 q 106 103 101 110 q 112 83 113 94 q 107 61 111 72 q 126 44 99 43 q 137 44 132 43 q 147 44 142 44 q 253 42 219 42 q 298 45 286 43 q 315 47 310 47 q 351 36 336 47 m 314 225 q 267 208 289 207 q 240 228 244 208 q 233 244 239 236 q 226 258 226 253 q 234 278 229 269 q 244 296 239 288 q 267 301 253 304 q 297 290 282 297 q 318 274 313 282 q 325 249 331 261 q 314 225 322 233 m 288 247 q 290 254 290 250 q 289 261 292 258 q 279 267 288 264 q 268 267 271 269 q 265 263 267 265 q 264 257 264 260 q 265 253 264 256 q 268 249 267 251 q 276 243 269 243 q 288 247 282 243 m 83 1021 q 69 1031 74 1021 q 65 1047 64 1042 q 74 1059 68 1054 q 85 1065 79 1064 q 115 1081 99 1072 q 132 1099 132 1090 q 123 1126 132 1108 q 103 1160 114 1144 q 85 1176 92 1176 q 74 1172 76 1176 q 61 1165 72 1168 q 42 1156 47 1163 q 28 1143 36 1150 q 10 1144 19 1136 q 1 1160 1 1151 q 7 1172 1 1167 q 33 1191 14 1178 q 69 1215 51 1204 q 96 1226 88 1226 q 112 1223 103 1226 q 122 1213 121 1219 q 133 1196 128 1206 q 140 1179 139 1186 q 155 1144 147 1158 q 174 1118 163 1131 q 183 1104 181 1111 q 185 1096 185 1097 q 181 1074 185 1083 q 161 1058 176 1065 l 83 1021 z "},"Ȃ":{"ha":628,"x_min":-31,"x_max":628,"o":"m 143 -7 q 122 -1 139 -3 q 88 1 104 0 q 67 1 72 1 q 57 8 61 3 q 57 17 53 14 q 67 38 67 26 q 67 67 67 49 q 67 301 67 210 q 67 446 67 393 q 68 524 68 499 q 68 558 68 550 q 68 571 68 567 q 75 581 78 575 q 69 592 72 586 q 75 600 67 597 q 77 613 76 607 q 78 626 78 619 l 78 761 q 78 772 78 767 q 79 783 79 778 q 77 798 79 790 q 68 811 75 806 q 67 818 67 814 q 67 825 67 822 l 67 946 q 83 970 67 963 q 110 967 99 978 q 123 954 117 961 q 135 940 129 947 q 149 916 142 928 q 167 894 156 904 q 179 872 167 881 q 192 849 192 864 q 200 828 193 839 q 213 807 207 818 q 264 711 239 760 q 315 613 289 663 q 328 593 322 603 q 342 575 333 583 q 353 553 350 565 q 367 529 357 540 q 382 488 382 514 q 411 439 400 465 q 440 390 422 413 q 454 363 450 381 q 468 332 458 346 q 484 305 475 324 q 501 267 493 286 q 514 239 510 247 q 529 216 521 229 q 543 190 538 203 q 583 119 563 156 q 621 46 603 83 q 626 34 625 40 q 628 24 628 28 q 606 3 628 7 q 574 0 585 0 l 526 11 q 501 5 513 10 q 474 0 489 0 q 442 1 468 0 q 382 1 415 1 q 320 1 349 1 q 279 1 292 1 l 183 1 q 160 -3 175 1 q 143 -7 144 -8 m 222 515 q 247 515 238 513 q 281 518 258 521 q 315 517 304 515 q 321 520 318 517 q 322 524 324 524 q 302 567 313 540 q 276 604 292 594 q 260 628 275 606 q 228 680 246 650 q 200 731 211 710 q 192 747 190 738 q 188 763 194 757 q 174 778 179 769 q 163 796 169 788 q 153 810 157 803 q 149 826 150 817 q 132 870 144 861 q 119 890 119 879 q 115 893 119 893 q 110 889 110 893 q 110 860 110 885 q 113 806 111 836 q 118 752 115 776 q 125 724 121 728 q 118 697 128 721 q 115 647 136 674 q 111 628 114 644 q 111 608 108 611 q 114 596 117 603 q 111 582 111 589 q 111 565 111 579 q 112 538 111 551 q 113 519 113 524 q 115 518 113 519 q 119 517 118 517 q 171 522 140 522 q 222 515 201 522 m 351 36 q 383 47 360 47 q 415 36 406 47 q 438 46 421 42 q 471 50 454 50 q 493 43 488 50 q 508 43 496 40 q 532 47 515 44 q 554 44 549 49 q 569 46 565 46 q 568 60 574 46 q 540 109 554 82 q 506 156 526 136 q 498 167 501 161 q 493 178 494 172 q 481 210 493 188 q 457 257 469 233 q 440 290 444 281 q 436 306 438 297 q 425 321 435 315 q 417 336 415 326 q 413 351 419 346 q 392 381 399 364 q 375 411 386 397 q 363 433 368 421 q 354 456 358 444 q 319 475 344 475 l 186 475 q 171 476 179 475 q 156 481 163 476 q 142 481 153 483 q 121 476 131 479 q 111 468 111 472 q 117 461 114 465 q 118 454 119 457 q 110 436 113 446 q 107 417 107 426 l 108 250 q 107 233 108 242 q 106 218 106 225 q 117 188 106 199 q 109 174 111 182 q 107 160 107 167 q 110 119 107 144 q 106 112 110 114 q 106 103 101 110 q 112 83 113 94 q 107 61 111 72 q 126 44 99 43 q 137 44 132 43 q 147 44 142 44 q 253 42 219 42 q 298 45 286 43 q 315 47 310 47 q 351 36 336 47 m 314 225 q 267 208 289 207 q 240 228 244 208 q 233 244 239 236 q 226 258 226 253 q 234 278 229 269 q 244 296 239 288 q 267 301 253 304 q 297 290 282 297 q 318 274 313 282 q 325 249 331 261 q 314 225 322 233 m 288 247 q 290 254 290 250 q 289 261 292 258 q 279 267 288 264 q 268 267 271 269 q 265 263 267 265 q 264 257 264 260 q 265 253 264 256 q 268 249 267 251 q 276 243 269 243 q 288 247 282 243 m 221 1014 q 186 1015 193 1006 q 179 1033 179 1025 q 179 1053 179 1038 q 181 1081 179 1069 q 181 1098 183 1089 q 174 1114 178 1107 q 141 1116 157 1115 q 118 1113 125 1117 q 104 1109 110 1111 q 89 1111 99 1107 q 60 1115 76 1118 q 43 1117 47 1114 q 28 1118 39 1121 q 10 1106 18 1115 q 8 1086 1 1097 l 14 1046 q 7 1022 14 1036 q -15 1018 0 1008 q -27 1048 -24 1024 q -31 1098 -31 1072 q -29 1133 -31 1124 q -20 1149 -29 1140 q -4 1157 -11 1157 q 40 1157 7 1158 q 106 1154 72 1156 q 149 1153 139 1153 q 172 1155 160 1153 q 194 1163 183 1157 q 213 1151 196 1164 q 229 1124 231 1139 l 221 1014 z "},"Ɑ":{"ha":688,"x_min":0,"x_max":674,"o":"m 314 1 q 279 -15 301 -24 q 246 19 257 -7 l 238 39 q 229 65 236 51 q 215 89 222 78 q 182 151 200 117 q 140 208 164 185 l 96 283 q 85 317 96 301 q 65 346 75 332 q 41 392 57 361 q 13 453 25 424 q 0 490 0 482 q 15 533 4 514 q 49 592 26 557 q 94 665 71 628 q 133 729 117 701 q 151 764 150 757 q 163 783 164 771 q 172 806 163 796 q 192 831 183 818 q 208 858 201 844 q 222 890 215 874 q 239 919 229 906 q 245 932 244 926 q 247 943 246 938 q 256 965 251 954 q 271 983 261 975 q 292 985 283 993 q 319 956 310 971 q 343 907 329 942 q 361 874 350 890 q 378 831 372 858 q 390 802 381 815 q 406 774 400 789 q 423 742 410 765 q 450 697 436 719 q 468 664 464 674 q 480 644 474 654 q 488 621 486 635 q 492 607 488 614 q 501 594 496 600 q 517 576 510 586 q 532 556 525 565 l 529 874 q 522 903 525 889 q 519 931 519 918 q 524 953 519 938 q 538 968 528 968 q 553 954 544 968 q 571 904 561 940 q 569 871 572 885 q 567 842 567 857 q 568 824 567 833 q 574 804 569 815 q 572 778 575 801 q 569 746 569 756 q 573 715 569 740 q 576 671 576 690 q 576 617 576 646 q 574 567 575 588 q 574 547 574 547 q 576 474 581 504 q 574 401 571 444 q 578 276 579 324 q 576 193 576 229 q 577 122 576 157 q 579 33 578 86 q 606 31 594 32 q 624 31 617 31 q 642 32 638 31 q 653 35 647 33 q 674 17 674 29 q 651 6 674 13 q 600 0 628 0 q 557 3 578 0 q 536 21 536 6 l 533 394 q 517 363 525 378 q 497 336 508 349 q 472 296 482 318 q 444 256 463 274 q 432 222 444 239 q 396 165 419 206 q 389 148 397 154 q 376 133 381 142 q 372 113 372 128 q 368 94 372 99 q 341 50 358 81 q 314 1 324 19 m 274 54 q 284 46 281 44 q 297 56 288 47 q 308 80 308 65 q 317 101 307 94 q 332 131 331 111 q 340 161 333 151 q 357 187 346 169 q 378 222 368 204 q 390 247 389 240 q 406 269 393 260 q 419 292 418 278 q 433 313 431 300 q 444 335 436 325 q 469 369 460 350 q 488 411 479 389 q 508 453 499 440 q 521 478 517 467 l 482 538 q 475 546 479 542 q 471 554 471 550 q 462 576 469 567 q 451 597 454 586 q 438 626 450 603 q 410 678 425 649 q 379 733 394 708 q 356 768 364 758 q 333 806 346 781 q 309 858 321 832 q 289 897 297 885 q 276 884 281 893 q 264 861 272 875 q 235 824 253 853 q 203 764 218 794 q 182 721 188 733 q 172 695 176 708 q 151 674 167 682 q 107 594 133 631 q 63 517 81 557 q 53 502 60 510 q 49 483 47 494 q 61 465 50 475 q 72 449 72 456 q 81 424 72 435 q 94 403 89 414 q 150 296 122 342 q 154 277 156 286 q 163 261 153 268 q 179 243 174 254 q 190 222 185 232 q 233 139 213 185 q 274 54 253 93 m 300 439 q 250 443 254 439 q 239 462 243 451 q 231 482 235 472 q 240 501 228 489 q 263 515 253 514 q 276 522 271 517 q 294 522 282 526 q 317 504 310 515 q 331 481 325 493 q 320 457 333 475 q 300 439 307 439 m 286 469 q 293 475 289 469 q 296 482 297 481 q 291 490 293 486 q 285 494 289 493 q 279 495 281 497 q 275 493 278 493 q 268 489 272 492 q 265 483 264 486 q 272 472 268 478 q 286 469 274 469 z "},"Ā":{"ha":628,"x_min":-33,"x_max":628,"o":"m 143 -7 q 122 -1 139 -3 q 88 1 104 0 q 67 1 72 1 q 57 8 61 3 q 57 17 53 14 q 67 38 67 26 q 67 67 67 49 q 67 301 67 210 q 67 446 67 393 q 68 524 68 499 q 68 558 68 550 q 68 571 68 567 q 75 581 78 575 q 69 592 72 586 q 75 600 67 597 q 77 613 76 607 q 78 626 78 619 l 78 761 q 78 772 78 767 q 79 783 79 778 q 77 798 79 790 q 68 811 75 806 q 67 818 67 814 q 67 825 67 822 l 67 946 q 83 970 67 963 q 110 967 99 978 q 123 954 117 961 q 135 940 129 947 q 149 916 142 928 q 167 894 156 904 q 179 872 167 881 q 192 849 192 864 q 200 828 193 839 q 213 807 207 818 q 264 711 239 760 q 315 613 289 663 q 328 593 322 603 q 342 575 333 583 q 353 553 350 565 q 367 529 357 540 q 382 488 382 514 q 411 439 400 465 q 440 390 422 413 q 454 363 450 381 q 468 332 458 346 q 484 305 475 324 q 501 267 493 286 q 514 239 510 247 q 529 216 521 229 q 543 190 538 203 q 583 119 563 156 q 621 46 603 83 q 626 34 625 40 q 628 24 628 28 q 606 3 628 7 q 574 0 585 0 l 526 11 q 501 5 513 10 q 474 0 489 0 q 442 1 468 0 q 382 1 415 1 q 320 1 349 1 q 279 1 292 1 l 183 1 q 160 -3 175 1 q 143 -7 144 -8 m 222 515 q 247 515 238 513 q 281 518 258 521 q 315 517 304 515 q 321 520 318 517 q 322 524 324 524 q 302 567 313 540 q 276 604 292 594 q 260 628 275 606 q 228 680 246 650 q 200 731 211 710 q 192 747 190 738 q 188 763 194 757 q 174 778 179 769 q 163 796 169 788 q 153 810 157 803 q 149 826 150 817 q 132 870 144 861 q 119 890 119 879 q 115 893 119 893 q 110 889 110 893 q 110 860 110 885 q 113 806 111 836 q 118 752 115 776 q 125 724 121 728 q 118 697 128 721 q 115 647 136 674 q 111 628 114 644 q 111 608 108 611 q 114 596 117 603 q 111 582 111 589 q 111 565 111 579 q 112 538 111 551 q 113 519 113 524 q 115 518 113 519 q 119 517 118 517 q 171 522 140 522 q 222 515 201 522 m 351 36 q 383 47 360 47 q 415 36 406 47 q 438 46 421 42 q 471 50 454 50 q 493 43 488 50 q 508 43 496 40 q 532 47 515 44 q 554 44 549 49 q 569 46 565 46 q 568 60 574 46 q 540 109 554 82 q 506 156 526 136 q 498 167 501 161 q 493 178 494 172 q 481 210 493 188 q 457 257 469 233 q 440 290 444 281 q 436 306 438 297 q 425 321 435 315 q 417 336 415 326 q 413 351 419 346 q 392 381 399 364 q 375 411 386 397 q 363 433 368 421 q 354 456 358 444 q 319 475 344 475 l 186 475 q 171 476 179 475 q 156 481 163 476 q 142 481 153 483 q 121 476 131 479 q 111 468 111 472 q 117 461 114 465 q 118 454 119 457 q 110 436 113 446 q 107 417 107 426 l 108 250 q 107 233 108 242 q 106 218 106 225 q 117 188 106 199 q 109 174 111 182 q 107 160 107 167 q 110 119 107 144 q 106 112 110 114 q 106 103 101 110 q 112 83 113 94 q 107 61 111 72 q 126 44 99 43 q 137 44 132 43 q 147 44 142 44 q 253 42 219 42 q 298 45 286 43 q 315 47 310 47 q 351 36 336 47 m 314 225 q 267 208 289 207 q 240 228 244 208 q 233 244 239 236 q 226 258 226 253 q 234 278 229 269 q 244 296 239 288 q 267 301 253 304 q 297 290 282 297 q 318 274 313 282 q 325 249 331 261 q 314 225 322 233 m 288 247 q 290 254 290 250 q 289 261 292 258 q 279 267 288 264 q 268 267 271 269 q 265 263 267 265 q 264 257 264 260 q 265 253 264 256 q 268 249 267 251 q 276 243 269 243 q 288 247 282 243 m 167 1040 q 143 1044 156 1040 q 123 1051 133 1049 q 101 1050 113 1053 q 76 1049 92 1049 q 28 1050 61 1049 q 13 1051 24 1050 q 1 1053 3 1051 q -28 1072 -22 1060 q -33 1093 -33 1083 l 60 1093 q 81 1091 78 1092 q 87 1091 83 1090 q 108 1093 90 1092 l 150 1093 q 172 1094 161 1093 q 193 1094 183 1094 q 204 1094 200 1094 q 213 1092 208 1093 q 218 1086 217 1090 q 225 1081 219 1082 q 229 1068 229 1081 q 225 1054 229 1056 q 196 1045 210 1050 q 167 1040 182 1040 z "},"Ą":{"ha":628,"x_min":53,"x_max":628,"o":"m 143 -7 q 122 -1 139 -3 q 88 1 104 0 q 67 1 72 1 q 57 8 61 3 q 57 17 53 14 q 67 38 67 26 q 67 67 67 49 q 67 301 67 210 q 67 446 67 393 q 68 524 68 499 q 68 558 68 550 q 68 571 68 567 q 75 581 78 575 q 69 592 72 586 q 75 600 67 597 q 77 613 76 607 q 78 626 78 619 l 78 761 q 78 772 78 767 q 79 783 79 778 q 77 798 79 790 q 68 811 75 806 q 67 818 67 814 q 67 825 67 822 l 67 946 q 83 970 67 963 q 110 967 99 978 q 123 954 117 961 q 135 940 129 947 q 149 916 142 928 q 167 894 156 904 q 179 872 167 881 q 192 849 192 864 q 200 828 193 839 q 213 807 207 818 q 264 711 239 760 q 315 613 289 663 q 328 593 322 603 q 342 575 333 583 q 353 553 350 565 q 367 529 357 540 q 382 488 382 514 q 411 439 400 465 q 440 390 422 413 q 454 363 450 381 q 468 332 458 346 q 484 305 475 324 q 501 267 493 286 q 514 239 510 247 q 529 216 521 229 q 543 190 538 203 q 583 119 563 156 q 621 46 603 83 q 626 34 625 40 q 628 24 628 28 q 606 3 628 7 q 574 0 585 0 l 526 11 q 501 5 513 10 q 474 0 489 0 q 442 1 468 0 q 382 1 415 1 q 320 1 349 1 q 279 1 292 1 l 183 1 q 160 -3 175 1 q 143 -7 144 -8 m 222 515 q 247 515 238 513 q 281 518 258 521 q 315 517 304 515 q 321 520 318 517 q 322 524 324 524 q 302 567 313 540 q 276 604 292 594 q 260 628 275 606 q 228 680 246 650 q 200 731 211 710 q 192 747 190 738 q 188 763 194 757 q 174 778 179 769 q 163 796 169 788 q 153 810 157 803 q 149 826 150 817 q 132 870 144 861 q 119 890 119 879 q 115 893 119 893 q 110 889 110 893 q 110 860 110 885 q 113 806 111 836 q 118 752 115 776 q 125 724 121 728 q 118 697 128 721 q 115 647 136 674 q 111 628 114 644 q 111 608 108 611 q 114 596 117 603 q 111 582 111 589 q 111 565 111 579 q 112 538 111 551 q 113 519 113 524 q 115 518 113 519 q 119 517 118 517 q 171 522 140 522 q 222 515 201 522 m 351 36 q 383 47 360 47 q 415 36 406 47 q 438 46 421 42 q 471 50 454 50 q 493 43 488 50 q 508 43 496 40 q 532 47 515 44 q 554 44 549 49 q 569 46 565 46 q 568 60 574 46 q 540 109 554 82 q 506 156 526 136 q 498 167 501 161 q 493 178 494 172 q 481 210 493 188 q 457 257 469 233 q 440 290 444 281 q 436 306 438 297 q 425 321 435 315 q 417 336 415 326 q 413 351 419 346 q 392 381 399 364 q 375 411 386 397 q 363 433 368 421 q 354 456 358 444 q 319 475 344 475 l 186 475 q 171 476 179 475 q 156 481 163 476 q 142 481 153 483 q 121 476 131 479 q 111 468 111 472 q 117 461 114 465 q 118 454 119 457 q 110 436 113 446 q 107 417 107 426 l 108 250 q 107 233 108 242 q 106 218 106 225 q 117 188 106 199 q 109 174 111 182 q 107 160 107 167 q 110 119 107 144 q 106 112 110 114 q 106 103 101 110 q 112 83 113 94 q 107 61 111 72 q 126 44 99 43 q 137 44 132 43 q 147 44 142 44 q 253 42 219 42 q 298 45 286 43 q 315 47 310 47 q 351 36 336 47 m 314 225 q 267 208 289 207 q 240 228 244 208 q 233 244 239 236 q 226 258 226 253 q 234 278 229 269 q 244 296 239 288 q 267 301 253 304 q 297 290 282 297 q 318 274 313 282 q 325 249 331 261 q 314 225 322 233 m 288 247 q 290 254 290 250 q 289 261 292 258 q 279 267 288 264 q 268 267 271 269 q 265 263 267 265 q 264 257 264 260 q 265 253 264 256 q 268 249 267 251 q 276 243 269 243 q 288 247 282 243 m 485 -278 q 451 -275 463 -278 q 436 -269 439 -272 q 429 -243 429 -262 q 431 -208 429 -229 q 431 -153 433 -186 q 435 -122 431 -144 q 438 -94 439 -99 q 434 -61 436 -83 q 432 -32 432 -39 q 431 -15 432 -25 q 432 6 431 -4 q 440 17 435 15 q 451 19 446 19 q 467 20 458 19 q 478 10 476 21 q 479 -16 479 4 q 479 -42 479 -36 q 476 -90 479 -61 q 474 -131 472 -119 q 476 -153 476 -142 q 474 -198 476 -174 q 474 -228 471 -222 q 510 -233 478 -233 l 563 -233 q 597 -235 582 -233 q 618 -242 613 -236 q 625 -256 625 -246 q 610 -278 625 -274 q 592 -278 606 -276 q 574 -278 579 -281 q 554 -274 565 -274 q 538 -274 546 -274 q 521 -276 529 -275 q 502 -278 511 -278 q 485 -278 493 -278 z "},"Å":{"ha":628,"x_min":4,"x_max":628,"o":"m 143 -7 q 122 -1 139 -3 q 88 1 104 0 q 67 1 72 1 q 57 8 61 3 q 57 17 53 14 q 67 38 67 26 q 67 67 67 49 q 67 301 67 210 q 67 446 67 393 q 68 524 68 499 q 68 558 68 550 q 68 571 68 567 q 75 581 78 575 q 69 592 72 586 q 75 600 67 597 q 77 613 76 607 q 78 626 78 619 l 78 761 q 78 772 78 767 q 79 783 79 778 q 77 798 79 790 q 68 811 75 806 q 67 818 67 814 q 67 825 67 822 l 67 946 q 83 970 67 963 q 110 967 99 978 q 123 954 117 961 q 135 940 129 947 q 149 916 142 928 q 167 894 156 904 q 179 872 167 881 q 192 849 192 864 q 200 828 193 839 q 213 807 207 818 q 264 711 239 760 q 315 613 289 663 q 328 593 322 603 q 342 575 333 583 q 353 553 350 565 q 367 529 357 540 q 382 488 382 514 q 411 439 400 465 q 440 390 422 413 q 454 363 450 381 q 468 332 458 346 q 484 305 475 324 q 501 267 493 286 q 514 239 510 247 q 529 216 521 229 q 543 190 538 203 q 583 119 563 156 q 621 46 603 83 q 626 34 625 40 q 628 24 628 28 q 606 3 628 7 q 574 0 585 0 l 526 11 q 501 5 513 10 q 474 0 489 0 q 442 1 468 0 q 382 1 415 1 q 320 1 349 1 q 279 1 292 1 l 183 1 q 160 -3 175 1 q 143 -7 144 -8 m 222 515 q 247 515 238 513 q 281 518 258 521 q 315 517 304 515 q 321 520 318 517 q 322 524 324 524 q 302 567 313 540 q 276 604 292 594 q 260 628 275 606 q 228 680 246 650 q 200 731 211 710 q 192 747 190 738 q 188 763 194 757 q 174 778 179 769 q 163 796 169 788 q 153 810 157 803 q 149 826 150 817 q 132 870 144 861 q 119 890 119 879 q 115 893 119 893 q 110 889 110 893 q 110 860 110 885 q 113 806 111 836 q 118 752 115 776 q 125 724 121 728 q 118 697 128 721 q 115 647 136 674 q 111 628 114 644 q 111 608 108 611 q 114 596 117 603 q 111 582 111 589 q 111 565 111 579 q 112 538 111 551 q 113 519 113 524 q 115 518 113 519 q 119 517 118 517 q 171 522 140 522 q 222 515 201 522 m 351 36 q 383 47 360 47 q 415 36 406 47 q 438 46 421 42 q 471 50 454 50 q 493 43 488 50 q 508 43 496 40 q 532 47 515 44 q 554 44 549 49 q 569 46 565 46 q 568 60 574 46 q 540 109 554 82 q 506 156 526 136 q 498 167 501 161 q 493 178 494 172 q 481 210 493 188 q 457 257 469 233 q 440 290 444 281 q 436 306 438 297 q 425 321 435 315 q 417 336 415 326 q 413 351 419 346 q 392 381 399 364 q 375 411 386 397 q 363 433 368 421 q 354 456 358 444 q 319 475 344 475 l 186 475 q 171 476 179 475 q 156 481 163 476 q 142 481 153 483 q 121 476 131 479 q 111 468 111 472 q 117 461 114 465 q 118 454 119 457 q 110 436 113 446 q 107 417 107 426 l 108 250 q 107 233 108 242 q 106 218 106 225 q 117 188 106 199 q 109 174 111 182 q 107 160 107 167 q 110 119 107 144 q 106 112 110 114 q 106 103 101 110 q 112 83 113 94 q 107 61 111 72 q 126 44 99 43 q 137 44 132 43 q 147 44 142 44 q 253 42 219 42 q 298 45 286 43 q 315 47 310 47 q 351 36 336 47 m 314 225 q 267 208 289 207 q 240 228 244 208 q 233 244 239 236 q 226 258 226 253 q 234 278 229 269 q 244 296 239 288 q 267 301 253 304 q 297 290 282 297 q 318 274 313 282 q 325 249 331 261 q 314 225 322 233 m 288 247 q 290 254 290 250 q 289 261 292 258 q 279 267 288 264 q 268 267 271 269 q 265 263 267 265 q 264 257 264 260 q 265 253 264 256 q 268 249 267 251 q 276 243 269 243 q 288 247 282 243 m 32 1018 q 18 1026 31 1017 q 7 1046 6 1035 l 10 1093 l 6 1156 q 20 1177 4 1179 q 63 1175 36 1175 q 89 1176 71 1175 q 126 1177 107 1176 q 153 1176 146 1178 q 164 1170 158 1176 q 169 1158 169 1164 q 172 1135 171 1151 q 169 1103 172 1118 q 172 1069 172 1088 q 171 1043 172 1050 q 165 1031 171 1038 q 153 1025 158 1025 q 127 1025 146 1025 q 90 1026 108 1025 q 64 1026 72 1026 q 32 1018 47 1026 m 122 1064 q 133 1070 128 1064 q 132 1082 138 1076 q 130 1090 131 1086 q 129 1096 129 1094 l 129 1104 q 131 1113 129 1113 q 131 1131 136 1124 q 122 1138 126 1138 q 110 1138 115 1139 q 97 1136 104 1136 q 76 1137 88 1136 q 57 1136 65 1138 q 51 1118 51 1128 l 51 1114 q 54 1100 54 1113 q 53 1082 54 1088 q 58 1065 51 1072 q 69 1065 67 1064 q 81 1067 71 1065 q 88 1067 83 1067 q 100 1067 92 1068 q 110 1064 103 1065 q 122 1064 117 1063 z "},"Ǻ":{"ha":628,"x_min":4,"x_max":628,"o":"m 143 -7 q 122 -1 139 -3 q 88 1 104 0 q 67 1 72 1 q 57 8 61 3 q 57 17 53 14 q 67 38 67 26 q 67 67 67 49 q 67 301 67 210 q 67 446 67 393 q 68 524 68 499 q 68 558 68 550 q 68 571 68 567 q 75 581 78 575 q 69 592 72 586 q 75 600 67 597 q 77 613 76 607 q 78 626 78 619 l 78 761 q 78 772 78 767 q 79 783 79 778 q 77 798 79 790 q 68 811 75 806 q 67 818 67 814 q 67 825 67 822 l 67 946 q 83 970 67 963 q 110 967 99 978 q 123 954 117 961 q 135 940 129 947 q 149 916 142 928 q 167 894 156 904 q 179 872 167 881 q 192 849 192 864 q 200 828 193 839 q 213 807 207 818 q 264 711 239 760 q 315 613 289 663 q 328 593 322 603 q 342 575 333 583 q 353 553 350 565 q 367 529 357 540 q 382 488 382 514 q 411 439 400 465 q 440 390 422 413 q 454 363 450 381 q 468 332 458 346 q 484 305 475 324 q 501 267 493 286 q 514 239 510 247 q 529 216 521 229 q 543 190 538 203 q 583 119 563 156 q 621 46 603 83 q 626 34 625 40 q 628 24 628 28 q 606 3 628 7 q 574 0 585 0 l 526 11 q 501 5 513 10 q 474 0 489 0 q 442 1 468 0 q 382 1 415 1 q 320 1 349 1 q 279 1 292 1 l 183 1 q 160 -3 175 1 q 143 -7 144 -8 m 222 515 q 247 515 238 513 q 281 518 258 521 q 315 517 304 515 q 321 520 318 517 q 322 524 324 524 q 302 567 313 540 q 276 604 292 594 q 260 628 275 606 q 228 680 246 650 q 200 731 211 710 q 192 747 190 738 q 188 763 194 757 q 174 778 179 769 q 163 796 169 788 q 153 810 157 803 q 149 826 150 817 q 132 870 144 861 q 119 890 119 879 q 115 893 119 893 q 110 889 110 893 q 110 860 110 885 q 113 806 111 836 q 118 752 115 776 q 125 724 121 728 q 118 697 128 721 q 115 647 136 674 q 111 628 114 644 q 111 608 108 611 q 114 596 117 603 q 111 582 111 589 q 111 565 111 579 q 112 538 111 551 q 113 519 113 524 q 115 518 113 519 q 119 517 118 517 q 171 522 140 522 q 222 515 201 522 m 351 36 q 383 47 360 47 q 415 36 406 47 q 438 46 421 42 q 471 50 454 50 q 493 43 488 50 q 508 43 496 40 q 532 47 515 44 q 554 44 549 49 q 569 46 565 46 q 568 60 574 46 q 540 109 554 82 q 506 156 526 136 q 498 167 501 161 q 493 178 494 172 q 481 210 493 188 q 457 257 469 233 q 440 290 444 281 q 436 306 438 297 q 425 321 435 315 q 417 336 415 326 q 413 351 419 346 q 392 381 399 364 q 375 411 386 397 q 363 433 368 421 q 354 456 358 444 q 319 475 344 475 l 186 475 q 171 476 179 475 q 156 481 163 476 q 142 481 153 483 q 121 476 131 479 q 111 468 111 472 q 117 461 114 465 q 118 454 119 457 q 110 436 113 446 q 107 417 107 426 l 108 250 q 107 233 108 242 q 106 218 106 225 q 117 188 106 199 q 109 174 111 182 q 107 160 107 167 q 110 119 107 144 q 106 112 110 114 q 106 103 101 110 q 112 83 113 94 q 107 61 111 72 q 126 44 99 43 q 137 44 132 43 q 147 44 142 44 q 253 42 219 42 q 298 45 286 43 q 315 47 310 47 q 351 36 336 47 m 314 225 q 267 208 289 207 q 240 228 244 208 q 233 244 239 236 q 226 258 226 253 q 234 278 229 269 q 244 296 239 288 q 267 301 253 304 q 297 290 282 297 q 318 274 313 282 q 325 249 331 261 q 314 225 322 233 m 288 247 q 290 254 290 250 q 289 261 292 258 q 279 267 288 264 q 268 267 271 269 q 265 263 267 265 q 264 257 264 260 q 265 253 264 256 q 268 249 267 251 q 276 243 269 243 q 288 247 282 243 m 32 1018 q 18 1026 31 1017 q 7 1046 6 1035 l 10 1093 l 6 1156 q 20 1177 4 1179 q 63 1175 36 1175 q 89 1176 71 1175 q 126 1177 107 1176 q 153 1176 146 1178 q 164 1170 158 1176 q 169 1158 169 1164 q 172 1135 171 1151 q 169 1103 172 1118 q 172 1069 172 1088 q 171 1043 172 1050 q 165 1031 171 1038 q 153 1025 158 1025 q 127 1025 146 1025 q 90 1026 108 1025 q 64 1026 72 1026 q 32 1018 47 1026 m 122 1064 q 133 1070 128 1064 q 132 1082 138 1076 q 130 1090 131 1086 q 129 1096 129 1094 l 129 1104 q 131 1113 129 1113 q 131 1131 136 1124 q 122 1138 126 1138 q 110 1138 115 1139 q 97 1136 104 1136 q 76 1137 88 1136 q 57 1136 65 1138 q 51 1118 51 1128 l 51 1114 q 54 1100 54 1113 q 53 1082 54 1088 q 58 1065 51 1072 q 69 1065 67 1064 q 81 1067 71 1065 q 88 1067 83 1067 q 100 1067 92 1068 q 110 1064 103 1065 q 122 1064 117 1063 m 31 1238 q 60 1265 46 1251 q 89 1293 74 1279 q 135 1340 118 1318 q 156 1359 146 1350 q 175 1379 165 1368 q 187 1393 181 1386 q 203 1401 193 1400 q 210 1401 206 1404 q 217 1399 214 1397 q 229 1394 221 1401 q 235 1382 238 1386 q 222 1349 229 1365 q 192 1326 214 1333 q 176 1318 183 1324 q 163 1306 169 1313 q 138 1278 153 1293 q 100 1243 124 1263 q 56 1228 75 1225 q 31 1238 38 1232 z "},"Ḁ":{"ha":628,"x_min":53,"x_max":628,"o":"m 143 -7 q 122 -1 139 -3 q 88 1 104 0 q 67 1 72 1 q 57 8 61 3 q 57 17 53 14 q 67 38 67 26 q 67 67 67 49 q 67 301 67 210 q 67 446 67 393 q 68 524 68 499 q 68 558 68 550 q 68 571 68 567 q 75 581 78 575 q 69 592 72 586 q 75 600 67 597 q 77 613 76 607 q 78 626 78 619 l 78 761 q 78 772 78 767 q 79 783 79 778 q 77 798 79 790 q 68 811 75 806 q 67 818 67 814 q 67 825 67 822 l 67 946 q 83 970 67 963 q 110 967 99 978 q 123 954 117 961 q 135 940 129 947 q 149 916 142 928 q 167 894 156 904 q 179 872 167 881 q 192 849 192 864 q 200 828 193 839 q 213 807 207 818 q 264 711 239 760 q 315 613 289 663 q 328 593 322 603 q 342 575 333 583 q 353 553 350 565 q 367 529 357 540 q 382 488 382 514 q 411 439 400 465 q 440 390 422 413 q 454 363 450 381 q 468 332 458 346 q 484 305 475 324 q 501 267 493 286 q 514 239 510 247 q 529 216 521 229 q 543 190 538 203 q 583 119 563 156 q 621 46 603 83 q 626 34 625 40 q 628 24 628 28 q 606 3 628 7 q 574 0 585 0 l 526 11 q 501 5 513 10 q 474 0 489 0 q 442 1 468 0 q 382 1 415 1 q 320 1 349 1 q 279 1 292 1 l 183 1 q 160 -3 175 1 q 143 -7 144 -8 m 222 515 q 247 515 238 513 q 281 518 258 521 q 315 517 304 515 q 321 520 318 517 q 322 524 324 524 q 302 567 313 540 q 276 604 292 594 q 260 628 275 606 q 228 680 246 650 q 200 731 211 710 q 192 747 190 738 q 188 763 194 757 q 174 778 179 769 q 163 796 169 788 q 153 810 157 803 q 149 826 150 817 q 132 870 144 861 q 119 890 119 879 q 115 893 119 893 q 110 889 110 893 q 110 860 110 885 q 113 806 111 836 q 118 752 115 776 q 125 724 121 728 q 118 697 128 721 q 115 647 136 674 q 111 628 114 644 q 111 608 108 611 q 114 596 117 603 q 111 582 111 589 q 111 565 111 579 q 112 538 111 551 q 113 519 113 524 q 115 518 113 519 q 119 517 118 517 q 171 522 140 522 q 222 515 201 522 m 351 36 q 383 47 360 47 q 415 36 406 47 q 438 46 421 42 q 471 50 454 50 q 493 43 488 50 q 508 43 496 40 q 532 47 515 44 q 554 44 549 49 q 569 46 565 46 q 568 60 574 46 q 540 109 554 82 q 506 156 526 136 q 498 167 501 161 q 493 178 494 172 q 481 210 493 188 q 457 257 469 233 q 440 290 444 281 q 436 306 438 297 q 425 321 435 315 q 417 336 415 326 q 413 351 419 346 q 392 381 399 364 q 375 411 386 397 q 363 433 368 421 q 354 456 358 444 q 319 475 344 475 l 186 475 q 171 476 179 475 q 156 481 163 476 q 142 481 153 483 q 121 476 131 479 q 111 468 111 472 q 117 461 114 465 q 118 454 119 457 q 110 436 113 446 q 107 417 107 426 l 108 250 q 107 233 108 242 q 106 218 106 225 q 117 188 106 199 q 109 174 111 182 q 107 160 107 167 q 110 119 107 144 q 106 112 110 114 q 106 103 101 110 q 112 83 113 94 q 107 61 111 72 q 126 44 99 43 q 137 44 132 43 q 147 44 142 44 q 253 42 219 42 q 298 45 286 43 q 315 47 310 47 q 351 36 336 47 m 314 225 q 267 208 289 207 q 240 228 244 208 q 233 244 239 236 q 226 258 226 253 q 234 278 229 269 q 244 296 239 288 q 267 301 253 304 q 297 290 282 297 q 318 274 313 282 q 325 249 331 261 q 314 225 322 233 m 288 247 q 290 254 290 250 q 289 261 292 258 q 279 267 288 264 q 268 267 271 269 q 265 263 267 265 q 264 257 264 260 q 265 253 264 256 q 268 249 267 251 q 276 243 269 243 q 288 247 282 243 m 271 -224 q 257 -216 269 -225 q 246 -196 244 -207 l 249 -149 l 244 -86 q 259 -65 243 -62 q 301 -67 275 -67 q 328 -66 310 -67 q 365 -65 346 -65 q 392 -65 385 -64 q 403 -72 397 -65 q 408 -83 408 -78 q 410 -107 410 -90 q 408 -139 411 -124 q 411 -173 411 -154 q 410 -199 411 -192 q 403 -210 410 -204 q 392 -217 397 -217 q 366 -217 385 -217 q 329 -216 347 -217 q 303 -215 311 -215 q 271 -224 286 -215 m 361 -178 q 372 -172 367 -178 q 371 -160 376 -165 q 369 -151 369 -156 q 368 -146 368 -147 l 368 -137 q 369 -129 368 -129 q 370 -111 375 -118 q 361 -104 365 -104 q 349 -104 354 -103 q 336 -106 343 -106 q 315 -105 326 -106 q 296 -106 304 -104 q 290 -124 290 -114 l 290 -128 q 293 -142 293 -129 q 292 -160 293 -154 q 297 -176 290 -169 q 308 -177 306 -178 q 319 -175 310 -176 q 326 -174 322 -175 q 339 -175 331 -174 q 349 -178 342 -176 q 361 -178 356 -179 z "},"Ⱥ":{"ha":646,"x_min":56,"x_max":646,"o":"m 79 -87 q 63 -92 69 -92 q 56 -79 57 -93 q 58 -53 56 -69 q 71 -1 61 -36 q 79 14 74 6 q 75 26 69 22 q 85 46 85 36 q 85 67 85 56 q 85 301 85 210 q 85 446 85 393 q 86 524 86 499 q 86 558 86 550 q 86 571 86 567 q 93 581 96 575 q 88 592 90 586 q 93 600 85 597 q 95 613 94 607 q 96 626 96 619 l 96 761 q 97 772 96 767 q 97 783 97 778 q 95 798 97 790 q 86 811 93 806 q 85 818 85 814 q 85 825 85 822 l 85 946 q 101 970 85 963 q 128 967 117 978 q 141 954 135 961 q 153 940 147 947 q 167 916 160 928 q 185 894 174 904 q 197 872 185 881 q 210 849 210 864 q 218 828 211 839 q 231 807 225 818 q 282 711 257 760 q 333 613 307 663 q 343 597 339 606 q 354 582 347 589 q 402 687 375 628 q 456 805 429 746 q 504 908 483 864 q 517 940 508 917 q 529 971 526 963 q 556 1013 543 1004 q 571 1025 568 1022 q 583 1004 582 1018 q 583 982 585 994 q 575 960 581 969 q 512 824 546 899 q 443 674 478 749 q 379 536 408 599 q 385 529 382 532 q 400 488 400 514 q 429 439 418 465 q 458 390 440 413 q 471 367 468 381 q 486 342 474 353 q 504 315 493 336 q 525 272 515 294 q 536 240 535 250 q 547 215 539 228 q 561 190 556 203 q 601 119 581 156 q 639 46 621 83 q 644 34 643 40 q 646 24 646 28 q 624 4 646 7 q 592 1 603 1 l 544 13 q 519 6 531 11 q 492 1 507 1 q 465 1 486 1 q 419 1 444 1 q 373 1 393 1 q 346 1 353 1 q 329 4 333 1 q 319 9 325 7 q 297 11 314 11 l 201 11 q 178 6 193 11 q 161 3 163 1 q 133 8 156 7 q 106 -39 124 -18 q 79 -87 88 -60 m 239 524 q 265 524 254 518 q 291 528 276 532 q 317 526 306 525 q 322 531 319 526 q 324 538 325 536 q 310 570 314 550 q 290 600 306 590 q 275 627 289 601 q 244 685 261 653 q 217 739 228 718 q 209 756 207 746 q 203 772 211 767 q 190 788 194 779 q 178 806 185 797 q 167 820 172 813 q 163 838 163 828 q 151 854 163 849 q 140 871 140 860 q 135 874 140 874 q 131 869 131 874 q 131 845 131 865 q 131 801 131 825 q 134 756 132 776 q 140 732 136 736 q 133 704 143 728 q 131 651 150 679 q 129 631 129 649 q 132 611 129 614 q 139 599 138 606 q 140 585 140 592 q 140 560 140 581 q 142 531 140 539 q 144 527 142 529 q 149 526 147 525 q 194 535 171 535 q 239 524 218 535 m 122 107 q 123 106 122 107 q 126 101 124 106 q 147 135 138 119 q 159 159 153 146 q 167 181 165 172 q 190 238 172 214 q 201 276 190 251 q 223 326 211 301 q 240 363 235 350 q 256 392 246 381 q 275 421 267 404 q 288 453 276 442 q 308 482 299 465 l 203 482 q 186 483 194 482 q 171 488 178 483 q 150 486 167 492 q 133 475 133 481 q 139 467 136 472 q 140 460 142 463 q 132 442 135 451 q 129 422 129 432 l 131 250 q 129 233 131 242 q 128 217 128 224 q 139 185 128 197 q 131 172 133 179 q 129 157 129 164 q 129 139 129 151 q 126 119 129 126 q 122 115 125 117 q 122 107 118 113 m 569 43 q 585 44 581 44 q 583 58 589 44 q 558 107 569 82 q 525 153 546 132 q 517 164 521 158 q 513 175 514 169 q 501 210 513 186 q 475 257 489 233 q 457 292 461 281 q 453 308 454 299 q 442 322 451 317 q 434 338 432 328 q 429 354 436 349 q 407 384 414 367 q 389 415 400 401 q 376 438 382 426 q 367 461 371 450 q 347 481 360 476 q 344 467 344 475 q 334 442 344 451 q 318 421 324 432 q 259 296 288 358 q 200 171 231 233 q 192 134 199 151 q 169 103 186 117 q 164 78 167 90 q 156 54 161 65 q 163 54 160 54 q 271 54 236 54 q 318 54 306 54 q 336 54 331 54 q 356 53 347 54 q 372 44 364 51 q 406 56 382 56 q 439 44 429 56 q 461 53 444 50 q 495 53 478 56 q 518 44 513 51 q 535 44 524 42 q 553 47 542 46 q 569 43 564 47 z "},"Ã":{"ha":628,"x_min":-50,"x_max":628,"o":"m 143 -7 q 122 -1 139 -3 q 88 1 104 0 q 67 1 72 1 q 57 8 61 3 q 57 17 53 14 q 67 38 67 26 q 67 67 67 49 q 67 301 67 210 q 67 446 67 393 q 68 524 68 499 q 68 558 68 550 q 68 571 68 567 q 75 581 78 575 q 69 592 72 586 q 75 600 67 597 q 77 613 76 607 q 78 626 78 619 l 78 761 q 78 772 78 767 q 79 783 79 778 q 77 798 79 790 q 68 811 75 806 q 67 818 67 814 q 67 825 67 822 l 67 946 q 83 970 67 963 q 110 967 99 978 q 123 954 117 961 q 135 940 129 947 q 149 916 142 928 q 167 894 156 904 q 179 872 167 881 q 192 849 192 864 q 200 828 193 839 q 213 807 207 818 q 264 711 239 760 q 315 613 289 663 q 328 593 322 603 q 342 575 333 583 q 353 553 350 565 q 367 529 357 540 q 382 488 382 514 q 411 439 400 465 q 440 390 422 413 q 454 363 450 381 q 468 332 458 346 q 484 305 475 324 q 501 267 493 286 q 514 239 510 247 q 529 216 521 229 q 543 190 538 203 q 583 119 563 156 q 621 46 603 83 q 626 34 625 40 q 628 24 628 28 q 606 3 628 7 q 574 0 585 0 l 526 11 q 501 5 513 10 q 474 0 489 0 q 442 1 468 0 q 382 1 415 1 q 320 1 349 1 q 279 1 292 1 l 183 1 q 160 -3 175 1 q 143 -7 144 -8 m 222 515 q 247 515 238 513 q 281 518 258 521 q 315 517 304 515 q 321 520 318 517 q 322 524 324 524 q 302 567 313 540 q 276 604 292 594 q 260 628 275 606 q 228 680 246 650 q 200 731 211 710 q 192 747 190 738 q 188 763 194 757 q 174 778 179 769 q 163 796 169 788 q 153 810 157 803 q 149 826 150 817 q 132 870 144 861 q 119 890 119 879 q 115 893 119 893 q 110 889 110 893 q 110 860 110 885 q 113 806 111 836 q 118 752 115 776 q 125 724 121 728 q 118 697 128 721 q 115 647 136 674 q 111 628 114 644 q 111 608 108 611 q 114 596 117 603 q 111 582 111 589 q 111 565 111 579 q 112 538 111 551 q 113 519 113 524 q 115 518 113 519 q 119 517 118 517 q 171 522 140 522 q 222 515 201 522 m 351 36 q 383 47 360 47 q 415 36 406 47 q 438 46 421 42 q 471 50 454 50 q 493 43 488 50 q 508 43 496 40 q 532 47 515 44 q 554 44 549 49 q 569 46 565 46 q 568 60 574 46 q 540 109 554 82 q 506 156 526 136 q 498 167 501 161 q 493 178 494 172 q 481 210 493 188 q 457 257 469 233 q 440 290 444 281 q 436 306 438 297 q 425 321 435 315 q 417 336 415 326 q 413 351 419 346 q 392 381 399 364 q 375 411 386 397 q 363 433 368 421 q 354 456 358 444 q 319 475 344 475 l 186 475 q 171 476 179 475 q 156 481 163 476 q 142 481 153 483 q 121 476 131 479 q 111 468 111 472 q 117 461 114 465 q 118 454 119 457 q 110 436 113 446 q 107 417 107 426 l 108 250 q 107 233 108 242 q 106 218 106 225 q 117 188 106 199 q 109 174 111 182 q 107 160 107 167 q 110 119 107 144 q 106 112 110 114 q 106 103 101 110 q 112 83 113 94 q 107 61 111 72 q 126 44 99 43 q 137 44 132 43 q 147 44 142 44 q 253 42 219 42 q 298 45 286 43 q 315 47 310 47 q 351 36 336 47 m 314 225 q 267 208 289 207 q 240 228 244 208 q 233 244 239 236 q 226 258 226 253 q 234 278 229 269 q 244 296 239 288 q 267 301 253 304 q 297 290 282 297 q 318 274 313 282 q 325 249 331 261 q 314 225 322 233 m 288 247 q 290 254 290 250 q 289 261 292 258 q 279 267 288 264 q 268 267 271 269 q 265 263 267 265 q 264 257 264 260 q 265 253 264 256 q 268 249 267 251 q 276 243 269 243 q 288 247 282 243 m 161 1025 q 141 1036 156 1025 q 110 1060 126 1047 q 82 1078 94 1074 q 63 1090 71 1082 q 46 1099 54 1099 q 24 1087 40 1099 q -8 1064 8 1075 q -29 1051 -24 1053 q -42 1059 -35 1050 q -50 1074 -50 1068 q -40 1089 -50 1083 q -13 1109 -31 1096 q 22 1133 4 1122 q 47 1144 39 1144 q 70 1135 53 1144 q 104 1115 88 1125 q 124 1101 121 1104 q 149 1084 135 1093 q 165 1075 164 1075 q 199 1097 175 1081 q 243 1114 224 1114 q 252 1108 247 1114 q 257 1099 257 1101 q 239 1072 257 1082 q 206 1052 217 1058 q 183 1038 194 1046 q 174 1031 181 1036 q 161 1025 168 1025 z "},"Æ":{"ha":768,"x_min":53,"x_max":771,"o":"m 364 0 l 275 11 q 255 7 261 14 q 226 1 249 0 q 190 2 218 1 q 132 3 163 3 q 86 1 101 3 q 82 1 85 1 l 81 1 q 75 4 76 1 q 59 19 65 8 q 57 40 53 31 q 68 67 63 54 q 75 93 74 81 q 85 131 75 100 q 108 199 94 161 q 133 265 121 236 q 149 300 144 294 q 161 326 160 313 q 169 353 163 340 q 194 403 186 376 q 215 456 201 431 q 225 500 211 483 q 235 524 232 511 q 243 549 238 538 q 255 569 250 558 q 265 589 260 579 q 303 693 285 642 q 340 796 322 744 q 351 818 344 807 q 356 839 357 829 q 366 864 354 854 q 375 888 378 874 q 390 911 386 899 q 400 938 394 924 q 414 954 407 947 q 428 967 421 961 q 456 969 440 979 q 467 971 460 971 l 738 971 q 751 967 746 971 q 761 957 757 963 q 763 949 763 954 q 761 943 763 943 q 736 931 747 942 q 711 921 725 921 q 692 925 703 921 q 664 932 678 932 q 633 926 654 932 q 604 921 611 921 q 542 921 568 921 q 471 919 515 921 l 471 825 q 472 818 471 822 q 469 811 472 814 q 461 798 464 806 q 458 783 458 790 q 459 772 458 778 q 460 761 460 767 l 460 626 q 460 613 460 619 q 463 600 461 607 q 468 592 471 597 q 463 581 465 586 q 469 571 461 575 l 469 525 l 503 525 q 538 526 518 525 q 572 526 557 526 q 589 526 581 526 q 604 524 597 525 q 613 519 611 522 q 622 514 615 515 q 629 505 629 513 q 622 494 629 497 q 576 486 600 490 q 529 482 553 482 q 501 482 519 482 q 471 483 482 482 q 473 410 472 461 q 474 299 474 360 q 474 181 474 238 q 477 88 475 125 q 483 51 479 51 l 747 51 q 766 40 761 51 q 766 17 771 29 q 746 3 761 6 l 654 3 q 610 6 647 3 q 526 1 574 8 q 506 1 526 1 q 456 -1 485 0 q 402 -1 428 -1 q 364 0 376 -1 m 290 524 q 317 524 301 518 q 353 533 331 532 q 395 532 376 533 q 414 531 414 531 q 415 560 415 539 q 415 585 415 581 q 417 599 415 592 q 424 611 418 606 q 427 631 426 614 q 425 651 428 649 q 422 704 406 679 q 415 732 413 728 q 422 756 419 736 q 424 801 424 776 q 425 845 425 825 q 425 869 425 865 q 421 874 425 874 q 422 871 417 874 q 413 853 424 860 q 404 835 403 846 q 402 817 406 825 q 393 801 399 808 q 384 782 388 792 q 374 764 381 772 q 369 747 365 757 q 364 729 374 738 q 343 672 356 707 q 320 610 331 638 q 308 582 310 583 q 296 563 303 578 q 282 528 289 547 q 290 524 286 526 m 733 468 q 706 469 721 456 q 681 496 692 483 q 676 513 668 508 q 690 535 685 517 q 711 555 690 554 q 743 553 732 556 q 760 537 754 549 q 767 514 767 525 q 761 496 767 501 l 733 468 m 726 500 l 733 508 q 735 513 735 510 q 729 522 735 522 q 720 524 726 524 q 714 518 714 525 q 710 513 713 514 q 713 508 708 511 q 719 501 715 504 q 726 500 724 497 m 133 44 q 167 56 144 56 q 200 44 190 56 q 217 53 208 51 q 236 54 226 54 q 254 54 243 54 q 297 54 265 54 q 393 54 328 54 q 405 53 400 54 q 415 54 410 53 q 433 69 426 61 q 432 85 439 76 q 433 107 421 96 q 434 115 438 113 q 429 119 431 117 q 426 139 426 126 q 426 157 426 151 q 425 172 426 164 q 417 185 424 179 q 428 217 428 197 q 426 233 428 224 q 425 250 425 242 l 426 422 q 424 442 426 432 q 415 460 422 451 q 417 467 414 463 q 422 475 421 472 q 406 486 422 481 q 385 488 389 492 q 369 483 378 483 q 353 482 361 482 l 267 482 q 257 452 261 465 q 251 435 253 439 q 236 386 247 411 q 223 353 228 371 q 204 321 218 335 q 201 304 199 314 q 196 288 204 294 q 188 271 188 279 q 185 254 188 263 q 174 223 183 247 q 151 167 164 199 q 128 104 139 135 q 111 53 117 74 q 133 44 125 53 z "},"Ǽ":{"ha":768,"x_min":53,"x_max":771,"o":"m 364 0 l 275 11 q 255 7 261 14 q 226 1 249 0 q 190 2 218 1 q 132 3 163 3 q 86 1 101 3 q 82 1 85 1 l 81 1 q 75 4 76 1 q 59 19 65 8 q 57 40 53 31 q 68 67 63 54 q 75 93 74 81 q 85 131 75 100 q 108 199 94 161 q 133 265 121 236 q 149 300 144 294 q 161 326 160 313 q 169 353 163 340 q 194 403 186 376 q 215 456 201 431 q 225 500 211 483 q 235 524 232 511 q 243 549 238 538 q 255 569 250 558 q 265 589 260 579 q 303 693 285 642 q 340 796 322 744 q 351 818 344 807 q 356 839 357 829 q 366 864 354 854 q 375 888 378 874 q 390 911 386 899 q 400 938 394 924 q 414 954 407 947 q 428 967 421 961 q 456 969 440 979 q 467 971 460 971 l 738 971 q 751 967 746 971 q 761 957 757 963 q 763 949 763 954 q 761 943 763 943 q 736 931 747 942 q 711 921 725 921 q 692 925 703 921 q 664 932 678 932 q 633 926 654 932 q 604 921 611 921 q 542 921 568 921 q 471 919 515 921 l 471 825 q 472 818 471 822 q 469 811 472 814 q 461 798 464 806 q 458 783 458 790 q 459 772 458 778 q 460 761 460 767 l 460 626 q 460 613 460 619 q 463 600 461 607 q 468 592 471 597 q 463 581 465 586 q 469 571 461 575 l 469 525 l 503 525 q 538 526 518 525 q 572 526 557 526 q 589 526 581 526 q 604 524 597 525 q 613 519 611 522 q 622 514 615 515 q 629 505 629 513 q 622 494 629 497 q 576 486 600 490 q 529 482 553 482 q 501 482 519 482 q 471 483 482 482 q 473 410 472 461 q 474 299 474 360 q 474 181 474 238 q 477 88 475 125 q 483 51 479 51 l 747 51 q 766 40 761 51 q 766 17 771 29 q 746 3 761 6 l 654 3 q 610 6 647 3 q 526 1 574 8 q 506 1 526 1 q 456 -1 485 0 q 402 -1 428 -1 q 364 0 376 -1 m 290 524 q 317 524 301 518 q 353 533 331 532 q 395 532 376 533 q 414 531 414 531 q 415 560 415 539 q 415 585 415 581 q 417 599 415 592 q 424 611 418 606 q 427 631 426 614 q 425 651 428 649 q 422 704 406 679 q 415 732 413 728 q 422 756 419 736 q 424 801 424 776 q 425 845 425 825 q 425 869 425 865 q 421 874 425 874 q 422 871 417 874 q 413 853 424 860 q 404 835 403 846 q 402 817 406 825 q 393 801 399 808 q 384 782 388 792 q 374 764 381 772 q 369 747 365 757 q 364 729 374 738 q 343 672 356 707 q 320 610 331 638 q 308 582 310 583 q 296 563 303 578 q 282 528 289 547 q 290 524 286 526 m 733 468 q 706 469 721 456 q 681 496 692 483 q 676 513 668 508 q 690 535 685 517 q 711 555 690 554 q 743 553 732 556 q 760 537 754 549 q 767 514 767 525 q 761 496 767 501 l 733 468 m 726 500 l 733 508 q 735 513 735 510 q 729 522 735 522 q 720 524 726 524 q 714 518 714 525 q 710 513 713 514 q 713 508 708 511 q 719 501 715 504 q 726 500 724 497 m 133 44 q 167 56 144 56 q 200 44 190 56 q 217 53 208 51 q 236 54 226 54 q 254 54 243 54 q 297 54 265 54 q 393 54 328 54 q 405 53 400 54 q 415 54 410 53 q 433 69 426 61 q 432 85 439 76 q 433 107 421 96 q 434 115 438 113 q 429 119 431 117 q 426 139 426 126 q 426 157 426 151 q 425 172 426 164 q 417 185 424 179 q 428 217 428 197 q 426 233 428 224 q 425 250 425 242 l 426 422 q 424 442 426 432 q 415 460 422 451 q 417 467 414 463 q 422 475 421 472 q 406 486 422 481 q 385 488 389 492 q 369 483 378 483 q 353 482 361 482 l 267 482 q 257 452 261 465 q 251 435 253 439 q 236 386 247 411 q 223 353 228 371 q 204 321 218 335 q 201 304 199 314 q 196 288 204 294 q 188 271 188 279 q 185 254 188 263 q 174 223 183 247 q 151 167 164 199 q 128 104 139 135 q 111 53 117 74 q 133 44 125 53 m 493 1033 q 522 1061 508 1047 q 551 1089 536 1075 q 597 1136 581 1114 q 618 1155 608 1146 q 638 1175 628 1164 q 649 1189 643 1182 q 665 1197 656 1196 q 672 1197 668 1200 q 679 1194 676 1193 q 692 1190 683 1197 q 697 1178 700 1182 q 684 1145 692 1161 q 654 1122 676 1129 q 639 1114 646 1119 q 625 1101 632 1108 q 601 1074 615 1089 q 563 1039 586 1058 q 519 1024 538 1021 q 493 1033 500 1028 z "},"Ǣ":{"ha":768,"x_min":53,"x_max":771,"o":"m 364 0 l 275 11 q 255 7 261 14 q 226 1 249 0 q 190 2 218 1 q 132 3 163 3 q 86 1 101 3 q 82 1 85 1 l 81 1 q 75 4 76 1 q 59 19 65 8 q 57 40 53 31 q 68 67 63 54 q 75 93 74 81 q 85 131 75 100 q 108 199 94 161 q 133 265 121 236 q 149 300 144 294 q 161 326 160 313 q 169 353 163 340 q 194 403 186 376 q 215 456 201 431 q 225 500 211 483 q 235 524 232 511 q 243 549 238 538 q 255 569 250 558 q 265 589 260 579 q 303 693 285 642 q 340 796 322 744 q 351 818 344 807 q 356 839 357 829 q 366 864 354 854 q 375 888 378 874 q 390 911 386 899 q 400 938 394 924 q 414 954 407 947 q 428 967 421 961 q 456 969 440 979 q 467 971 460 971 l 738 971 q 751 967 746 971 q 761 957 757 963 q 763 949 763 954 q 761 943 763 943 q 736 931 747 942 q 711 921 725 921 q 692 925 703 921 q 664 932 678 932 q 633 926 654 932 q 604 921 611 921 q 542 921 568 921 q 471 919 515 921 l 471 825 q 472 818 471 822 q 469 811 472 814 q 461 798 464 806 q 458 783 458 790 q 459 772 458 778 q 460 761 460 767 l 460 626 q 460 613 460 619 q 463 600 461 607 q 468 592 471 597 q 463 581 465 586 q 469 571 461 575 l 469 525 l 503 525 q 538 526 518 525 q 572 526 557 526 q 589 526 581 526 q 604 524 597 525 q 613 519 611 522 q 622 514 615 515 q 629 505 629 513 q 622 494 629 497 q 576 486 600 490 q 529 482 553 482 q 501 482 519 482 q 471 483 482 482 q 473 410 472 461 q 474 299 474 360 q 474 181 474 238 q 477 88 475 125 q 483 51 479 51 l 747 51 q 766 40 761 51 q 766 17 771 29 q 746 3 761 6 l 654 3 q 610 6 647 3 q 526 1 574 8 q 506 1 526 1 q 456 -1 485 0 q 402 -1 428 -1 q 364 0 376 -1 m 290 524 q 317 524 301 518 q 353 533 331 532 q 395 532 376 533 q 414 531 414 531 q 415 560 415 539 q 415 585 415 581 q 417 599 415 592 q 424 611 418 606 q 427 631 426 614 q 425 651 428 649 q 422 704 406 679 q 415 732 413 728 q 422 756 419 736 q 424 801 424 776 q 425 845 425 825 q 425 869 425 865 q 421 874 425 874 q 422 871 417 874 q 413 853 424 860 q 404 835 403 846 q 402 817 406 825 q 393 801 399 808 q 384 782 388 792 q 374 764 381 772 q 369 747 365 757 q 364 729 374 738 q 343 672 356 707 q 320 610 331 638 q 308 582 310 583 q 296 563 303 578 q 282 528 289 547 q 290 524 286 526 m 733 468 q 706 469 721 456 q 681 496 692 483 q 676 513 668 508 q 690 535 685 517 q 711 555 690 554 q 743 553 732 556 q 760 537 754 549 q 767 514 767 525 q 761 496 767 501 l 733 468 m 726 500 l 733 508 q 735 513 735 510 q 729 522 735 522 q 720 524 726 524 q 714 518 714 525 q 710 513 713 514 q 713 508 708 511 q 719 501 715 504 q 726 500 724 497 m 133 44 q 167 56 144 56 q 200 44 190 56 q 217 53 208 51 q 236 54 226 54 q 254 54 243 54 q 297 54 265 54 q 393 54 328 54 q 405 53 400 54 q 415 54 410 53 q 433 69 426 61 q 432 85 439 76 q 433 107 421 96 q 434 115 438 113 q 429 119 431 117 q 426 139 426 126 q 426 157 426 151 q 425 172 426 164 q 417 185 424 179 q 428 217 428 197 q 426 233 428 224 q 425 250 425 242 l 426 422 q 424 442 426 432 q 415 460 422 451 q 417 467 414 463 q 422 475 421 472 q 406 486 422 481 q 385 488 389 492 q 369 483 378 483 q 353 482 361 482 l 267 482 q 257 452 261 465 q 251 435 253 439 q 236 386 247 411 q 223 353 228 371 q 204 321 218 335 q 201 304 199 314 q 196 288 204 294 q 188 271 188 279 q 185 254 188 263 q 174 223 183 247 q 151 167 164 199 q 128 104 139 135 q 111 53 117 74 q 133 44 125 53 m 619 1040 q 596 1044 608 1040 q 576 1051 586 1049 q 554 1050 565 1053 q 529 1049 544 1049 q 481 1050 514 1049 q 466 1051 476 1050 q 454 1053 456 1051 q 425 1072 431 1060 q 419 1093 419 1083 l 513 1093 q 533 1091 531 1092 q 540 1091 536 1090 q 561 1093 543 1092 l 603 1093 q 625 1094 614 1093 q 646 1094 636 1094 q 657 1094 653 1094 q 665 1092 661 1093 q 671 1086 669 1090 q 678 1081 672 1082 q 682 1068 682 1081 q 678 1054 682 1056 q 649 1045 663 1050 q 619 1040 635 1040 z "},"B":{"ha":613,"x_min":54,"x_max":617,"o":"m 85 -3 q 69 -1 81 -7 q 56 11 57 6 q 56 22 54 17 q 57 32 57 26 q 58 116 57 65 q 58 223 58 167 q 58 328 58 279 q 56 408 57 378 q 58 425 56 417 q 67 440 60 433 q 65 458 68 442 q 62 495 63 474 q 65 533 61 517 q 68 548 68 540 q 65 561 68 556 q 58 578 60 569 q 57 596 57 586 l 65 635 q 58 649 60 642 q 57 664 57 657 l 57 935 q 65 953 57 944 q 85 958 72 961 q 111 964 100 958 q 136 969 122 969 l 336 969 q 358 961 349 969 q 374 958 368 953 q 481 969 388 969 l 535 958 q 541 956 538 958 q 547 950 544 953 q 551 943 553 946 q 546 938 549 940 q 542 927 544 932 q 536 919 540 922 q 486 865 521 906 q 406 772 451 824 q 315 668 361 719 q 233 580 269 617 q 178 533 196 543 q 157 513 165 525 q 139 490 149 501 q 140 482 138 489 q 150 469 142 475 q 171 460 158 464 q 183 444 183 457 q 197 434 183 435 q 207 421 210 433 q 221 408 214 414 q 233 394 228 401 q 276 357 253 374 q 314 314 300 340 q 344 294 321 313 q 395 249 367 276 q 451 195 424 222 q 498 148 479 168 q 518 125 517 128 q 533 112 524 115 q 547 97 543 108 q 563 79 550 90 q 587 58 575 68 q 599 44 599 49 q 609 31 601 38 q 608 17 617 24 q 585 4 600 10 q 564 1 571 -1 q 536 2 553 4 q 518 1 519 0 q 472 10 503 11 q 409 7 440 10 q 360 7 378 4 q 348 1 353 7 q 335 1 343 -4 q 314 7 328 7 l 117 7 q 100 5 108 8 q 85 -3 92 1 m 103 500 q 138 543 114 519 q 183 587 161 567 q 206 611 204 607 q 224 638 210 619 q 254 672 238 656 q 282 692 271 688 q 307 719 282 714 q 326 734 321 722 q 336 756 331 746 q 362 776 346 758 q 395 816 378 793 q 426 858 413 839 q 446 882 440 876 q 470 905 453 889 q 493 929 488 921 l 472 929 q 452 927 465 928 q 432 926 439 926 l 149 926 q 118 926 133 926 q 101 919 103 925 q 100 893 100 910 q 97 851 100 876 q 94 748 96 789 q 96 689 92 707 q 105 641 103 657 q 101 597 107 625 q 98 569 99 581 q 97 556 97 557 l 93 504 l 103 500 m 231 769 q 189 790 213 769 q 177 808 178 801 q 185 822 176 814 l 206 842 q 226 849 213 849 q 247 844 239 850 q 262 830 254 836 q 276 815 269 824 q 278 810 278 815 l 278 803 q 231 769 260 769 m 228 797 q 242 807 238 797 l 242 813 q 233 821 236 815 q 219 819 228 825 l 213 814 q 214 804 208 810 q 228 797 221 797 m 124 43 q 251 44 158 43 q 500 47 344 44 q 529 46 518 47 q 544 46 540 44 q 529 61 542 51 q 514 72 517 71 q 490 96 510 78 q 448 136 471 114 q 406 176 425 158 q 383 199 388 194 q 371 205 374 199 q 365 217 368 211 q 351 221 361 224 q 298 279 329 253 q 224 346 267 306 q 215 360 218 353 q 203 374 211 368 q 188 383 194 378 q 175 393 182 389 q 160 401 161 392 q 149 415 160 410 q 128 431 133 422 q 115 443 122 440 q 106 444 113 444 q 100 442 100 444 q 98 434 99 438 q 97 426 97 431 q 104 349 96 358 q 97 305 99 336 q 97 233 96 274 q 99 155 97 193 q 101 90 100 117 q 103 60 103 64 q 106 47 103 50 q 124 43 110 43 m 236 131 q 193 150 214 131 q 181 168 181 163 q 190 183 181 174 l 210 204 q 231 211 217 211 q 254 207 244 211 q 268 192 261 199 q 285 176 275 186 q 286 171 286 176 l 286 164 q 236 131 264 131 m 233 158 q 247 168 243 158 l 247 174 q 239 182 242 176 q 225 181 233 186 l 218 175 q 219 165 214 171 q 233 158 226 158 z "},"Ḃ":{"ha":613,"x_min":54,"x_max":617,"o":"m 85 -3 q 69 -1 81 -7 q 56 11 57 6 q 56 22 54 17 q 57 32 57 26 q 58 116 57 65 q 58 223 58 167 q 58 328 58 279 q 56 408 57 378 q 58 425 56 417 q 67 440 60 433 q 65 458 68 442 q 62 495 63 474 q 65 533 61 517 q 68 548 68 540 q 65 561 68 556 q 58 578 60 569 q 57 596 57 586 l 65 635 q 58 649 60 642 q 57 664 57 657 l 57 935 q 65 953 57 944 q 85 958 72 961 q 111 964 100 958 q 136 969 122 969 l 336 969 q 358 961 349 969 q 374 958 368 953 q 481 969 388 969 l 535 958 q 541 956 538 958 q 547 950 544 953 q 551 943 553 946 q 546 938 549 940 q 542 927 544 932 q 536 919 540 922 q 486 865 521 906 q 406 772 451 824 q 315 668 361 719 q 233 580 269 617 q 178 533 196 543 q 157 513 165 525 q 139 490 149 501 q 140 482 138 489 q 150 469 142 475 q 171 460 158 464 q 183 444 183 457 q 197 434 183 435 q 207 421 210 433 q 221 408 214 414 q 233 394 228 401 q 276 357 253 374 q 314 314 300 340 q 344 294 321 313 q 395 249 367 276 q 451 195 424 222 q 498 148 479 168 q 518 125 517 128 q 533 112 524 115 q 547 97 543 108 q 563 79 550 90 q 587 58 575 68 q 599 44 599 49 q 609 31 601 38 q 608 17 617 24 q 585 4 600 10 q 564 1 571 -1 q 536 2 553 4 q 518 1 519 0 q 472 10 503 11 q 409 7 440 10 q 360 7 378 4 q 348 1 353 7 q 335 1 343 -4 q 314 7 328 7 l 117 7 q 100 5 108 8 q 85 -3 92 1 m 103 500 q 138 543 114 519 q 183 587 161 567 q 206 611 204 607 q 224 638 210 619 q 254 672 238 656 q 282 692 271 688 q 307 719 282 714 q 326 734 321 722 q 336 756 331 746 q 362 776 346 758 q 395 816 378 793 q 426 858 413 839 q 446 882 440 876 q 470 905 453 889 q 493 929 488 921 l 472 929 q 452 927 465 928 q 432 926 439 926 l 149 926 q 118 926 133 926 q 101 919 103 925 q 100 893 100 910 q 97 851 100 876 q 94 748 96 789 q 96 689 92 707 q 105 641 103 657 q 101 597 107 625 q 98 569 99 581 q 97 556 97 557 l 93 504 l 103 500 m 231 769 q 189 790 213 769 q 177 808 178 801 q 185 822 176 814 l 206 842 q 226 849 213 849 q 247 844 239 850 q 262 830 254 836 q 276 815 269 824 q 278 810 278 815 l 278 803 q 231 769 260 769 m 228 797 q 242 807 238 797 l 242 813 q 233 821 236 815 q 219 819 228 825 l 213 814 q 214 804 208 810 q 228 797 221 797 m 124 43 q 251 44 158 43 q 500 47 344 44 q 529 46 518 47 q 544 46 540 44 q 529 61 542 51 q 514 72 517 71 q 490 96 510 78 q 448 136 471 114 q 406 176 425 158 q 383 199 388 194 q 371 205 374 199 q 365 217 368 211 q 351 221 361 224 q 298 279 329 253 q 224 346 267 306 q 215 360 218 353 q 203 374 211 368 q 188 383 194 378 q 175 393 182 389 q 160 401 161 392 q 149 415 160 410 q 128 431 133 422 q 115 443 122 440 q 106 444 113 444 q 100 442 100 444 q 98 434 99 438 q 97 426 97 431 q 104 349 96 358 q 97 305 99 336 q 97 233 96 274 q 99 155 97 193 q 101 90 100 117 q 103 60 103 64 q 106 47 103 50 q 124 43 110 43 m 236 131 q 193 150 214 131 q 181 168 181 163 q 190 183 181 174 l 210 204 q 231 211 217 211 q 254 207 244 211 q 268 192 261 199 q 285 176 275 186 q 286 171 286 176 l 286 164 q 236 131 264 131 m 233 158 q 247 168 243 158 l 247 174 q 239 182 242 176 q 225 181 233 186 l 218 175 q 219 165 214 171 q 233 158 226 158 m 325 1011 q 290 1019 306 1011 q 269 1039 274 1028 q 269 1067 267 1047 q 292 1097 272 1088 q 318 1112 304 1107 q 342 1110 332 1117 q 358 1099 349 1104 q 376 1090 368 1094 q 385 1063 393 1078 q 363 1028 375 1044 q 325 1011 351 1011 z "},"Ḅ":{"ha":613,"x_min":54,"x_max":617,"o":"m 85 -3 q 69 -1 81 -7 q 56 11 57 6 q 56 22 54 17 q 57 32 57 26 q 58 116 57 65 q 58 223 58 167 q 58 328 58 279 q 56 408 57 378 q 58 425 56 417 q 67 440 60 433 q 65 458 68 442 q 62 495 63 474 q 65 533 61 517 q 68 548 68 540 q 65 561 68 556 q 58 578 60 569 q 57 596 57 586 l 65 635 q 58 649 60 642 q 57 664 57 657 l 57 935 q 65 953 57 944 q 85 958 72 961 q 111 964 100 958 q 136 969 122 969 l 336 969 q 358 961 349 969 q 374 958 368 953 q 481 969 388 969 l 535 958 q 541 956 538 958 q 547 950 544 953 q 551 943 553 946 q 546 938 549 940 q 542 927 544 932 q 536 919 540 922 q 486 865 521 906 q 406 772 451 824 q 315 668 361 719 q 233 580 269 617 q 178 533 196 543 q 157 513 165 525 q 139 490 149 501 q 140 482 138 489 q 150 469 142 475 q 171 460 158 464 q 183 444 183 457 q 197 434 183 435 q 207 421 210 433 q 221 408 214 414 q 233 394 228 401 q 276 357 253 374 q 314 314 300 340 q 344 294 321 313 q 395 249 367 276 q 451 195 424 222 q 498 148 479 168 q 518 125 517 128 q 533 112 524 115 q 547 97 543 108 q 563 79 550 90 q 587 58 575 68 q 599 44 599 49 q 609 31 601 38 q 608 17 617 24 q 585 4 600 10 q 564 1 571 -1 q 536 2 553 4 q 518 1 519 0 q 472 10 503 11 q 409 7 440 10 q 360 7 378 4 q 348 1 353 7 q 335 1 343 -4 q 314 7 328 7 l 117 7 q 100 5 108 8 q 85 -3 92 1 m 103 500 q 138 543 114 519 q 183 587 161 567 q 206 611 204 607 q 224 638 210 619 q 254 672 238 656 q 282 692 271 688 q 307 719 282 714 q 326 734 321 722 q 336 756 331 746 q 362 776 346 758 q 395 816 378 793 q 426 858 413 839 q 446 882 440 876 q 470 905 453 889 q 493 929 488 921 l 472 929 q 452 927 465 928 q 432 926 439 926 l 149 926 q 118 926 133 926 q 101 919 103 925 q 100 893 100 910 q 97 851 100 876 q 94 748 96 789 q 96 689 92 707 q 105 641 103 657 q 101 597 107 625 q 98 569 99 581 q 97 556 97 557 l 93 504 l 103 500 m 231 769 q 189 790 213 769 q 177 808 178 801 q 185 822 176 814 l 206 842 q 226 849 213 849 q 247 844 239 850 q 262 830 254 836 q 276 815 269 824 q 278 810 278 815 l 278 803 q 231 769 260 769 m 228 797 q 242 807 238 797 l 242 813 q 233 821 236 815 q 219 819 228 825 l 213 814 q 214 804 208 810 q 228 797 221 797 m 124 43 q 251 44 158 43 q 500 47 344 44 q 529 46 518 47 q 544 46 540 44 q 529 61 542 51 q 514 72 517 71 q 490 96 510 78 q 448 136 471 114 q 406 176 425 158 q 383 199 388 194 q 371 205 374 199 q 365 217 368 211 q 351 221 361 224 q 298 279 329 253 q 224 346 267 306 q 215 360 218 353 q 203 374 211 368 q 188 383 194 378 q 175 393 182 389 q 160 401 161 392 q 149 415 160 410 q 128 431 133 422 q 115 443 122 440 q 106 444 113 444 q 100 442 100 444 q 98 434 99 438 q 97 426 97 431 q 104 349 96 358 q 97 305 99 336 q 97 233 96 274 q 99 155 97 193 q 101 90 100 117 q 103 60 103 64 q 106 47 103 50 q 124 43 110 43 m 236 131 q 193 150 214 131 q 181 168 181 163 q 190 183 181 174 l 210 204 q 231 211 217 211 q 254 207 244 211 q 268 192 261 199 q 285 176 275 186 q 286 171 286 176 l 286 164 q 236 131 264 131 m 233 158 q 247 168 243 158 l 247 174 q 239 182 242 176 q 225 181 233 186 l 218 175 q 219 165 214 171 q 233 158 226 158 m 297 -187 q 242 -161 254 -187 q 242 -131 240 -151 q 263 -101 244 -111 q 290 -90 276 -94 q 314 -92 304 -85 q 331 -103 321 -97 q 346 -119 340 -108 q 343 -165 360 -142 q 323 -181 335 -175 q 297 -187 311 -187 z "},"Ꞵ":{"ha":613,"x_min":42,"x_max":617,"o":"m 82 -272 q 71 -276 76 -278 q 58 -271 65 -275 q 56 -244 61 -257 q 49 -215 51 -232 q 56 -175 46 -199 q 48 -154 46 -164 q 56 -135 50 -144 q 57 -93 42 -115 q 57 -53 57 -67 q 57 -26 57 -39 q 56 11 57 -12 l 56 11 q 56 22 54 17 q 57 32 57 26 q 58 116 57 65 q 58 223 58 167 q 58 328 58 279 q 56 408 57 378 q 58 425 56 417 q 67 440 60 433 q 65 458 68 442 q 62 495 63 474 q 65 533 61 517 q 68 548 68 540 q 65 561 68 556 q 58 578 60 569 q 57 596 57 586 l 65 635 q 58 649 60 642 q 57 664 57 657 l 57 935 q 65 953 57 944 q 85 958 72 961 q 111 964 100 958 q 136 969 122 969 l 336 969 q 358 961 349 969 q 374 958 368 953 q 481 969 388 969 l 535 958 q 541 956 538 958 q 547 950 544 953 q 551 943 553 946 q 546 938 549 940 q 542 927 544 932 q 536 919 540 922 q 486 865 521 906 q 406 772 451 824 q 315 668 361 719 q 233 580 269 617 q 178 533 196 543 q 157 513 165 525 q 139 490 149 501 q 140 482 138 489 q 150 469 142 475 q 171 460 158 464 q 183 444 183 457 q 197 434 183 435 q 207 421 210 433 q 221 408 214 414 q 233 394 228 401 q 276 357 253 374 q 314 314 300 340 q 344 294 321 313 q 395 249 367 276 q 451 195 424 222 q 498 148 479 168 q 518 125 517 128 q 533 112 524 115 q 547 97 543 108 q 563 79 550 90 q 587 58 575 68 q 599 44 599 49 q 609 31 601 38 q 608 17 617 24 q 585 4 600 10 q 564 1 571 -1 q 536 2 553 4 q 518 1 519 0 q 472 10 503 11 q 409 7 440 10 q 360 7 378 4 q 348 1 353 7 q 335 1 343 -4 q 314 7 328 7 l 117 7 q 106 6 111 7 q 106 -16 106 -6 q 99 -35 107 -26 q 99 -51 101 -43 q 93 -69 97 -58 q 90 -81 90 -72 q 92 -96 90 -89 q 94 -134 94 -106 q 94 -191 94 -162 q 94 -231 94 -219 q 88 -258 88 -249 q 82 -272 88 -267 m 103 500 q 138 543 114 519 q 183 587 161 567 q 206 611 204 607 q 224 638 210 619 q 254 672 238 656 q 282 692 271 688 q 307 719 282 714 q 326 734 321 722 q 336 756 331 746 q 362 776 346 758 q 395 816 378 793 q 426 858 413 839 q 446 882 440 876 q 470 905 453 889 q 493 929 488 921 l 472 929 q 452 927 465 928 q 432 926 439 926 l 149 926 q 118 926 133 926 q 101 919 103 925 q 100 893 100 910 q 97 851 100 876 q 94 748 96 789 q 96 689 92 707 q 105 641 103 657 q 101 597 107 625 q 98 569 99 581 q 97 556 97 557 l 93 504 l 103 500 m 231 769 q 189 790 213 769 q 177 808 178 801 q 185 822 176 814 l 206 842 q 226 849 213 849 q 247 844 239 850 q 262 830 254 836 q 276 815 269 824 q 278 810 278 815 l 278 803 q 231 769 260 769 m 228 797 q 242 807 238 797 l 242 813 q 233 821 236 815 q 219 819 228 825 l 213 814 q 214 804 208 810 q 228 797 221 797 m 124 43 q 251 44 158 43 q 500 47 344 44 q 529 46 518 47 q 544 46 540 44 q 529 61 542 51 q 514 72 517 71 q 490 96 510 78 q 448 136 471 114 q 406 176 425 158 q 383 199 388 194 q 371 205 374 199 q 365 217 368 211 q 351 221 361 224 q 298 279 329 253 q 224 346 267 306 q 215 360 218 353 q 203 374 211 368 q 188 383 194 378 q 175 393 182 389 q 160 401 161 392 q 149 415 160 410 q 128 431 133 422 q 115 443 122 440 q 106 444 113 444 q 100 442 100 444 q 98 434 99 438 q 97 426 97 431 q 104 349 96 358 q 97 305 99 336 q 97 233 96 274 q 99 155 97 193 q 101 90 100 117 q 103 60 103 64 q 106 47 103 50 q 124 43 110 43 m 236 131 q 193 150 214 131 q 181 168 181 163 q 190 183 181 174 l 210 204 q 231 211 217 211 q 254 207 244 211 q 268 192 261 199 q 285 176 275 186 q 286 171 286 176 l 286 164 q 236 131 264 131 m 233 158 q 247 168 243 158 l 247 174 q 239 182 242 176 q 225 181 233 186 l 218 175 q 219 165 214 171 q 233 158 226 158 z "},"Ɓ":{"ha":722,"x_min":-1,"x_max":726,"o":"m 194 -3 q 178 -1 190 -7 q 165 11 167 6 q 165 22 164 17 q 167 32 167 26 q 167 116 167 65 q 168 223 168 167 q 167 328 168 279 q 165 408 167 378 q 167 425 165 417 q 176 440 169 433 q 175 458 178 442 q 172 495 172 474 q 175 533 171 517 q 178 548 178 540 q 175 561 178 556 q 168 578 169 569 q 167 596 167 586 l 175 635 q 168 649 169 642 q 167 664 167 657 l 167 924 q 146 921 149 924 q 132 921 143 918 q 109 923 125 924 q 86 922 93 922 q 54 906 63 924 q 45 863 46 888 q 44 815 44 838 q 38 785 44 793 q 19 776 38 776 q 1 793 1 776 q 1 810 3 797 q 1 829 -1 824 q 4 853 8 839 q 1 882 0 868 q 14 940 4 917 q 63 965 24 964 q 72 965 68 965 q 107 964 75 965 q 135 964 114 964 q 161 965 156 964 q 232 968 210 972 q 246 969 239 969 l 446 969 q 468 961 458 969 q 483 958 478 953 q 590 969 497 969 l 644 958 q 651 956 647 958 q 657 950 654 953 q 660 943 663 946 q 656 938 658 940 q 652 927 654 932 q 646 919 650 922 q 596 865 631 906 q 516 772 561 824 q 425 668 471 719 q 342 580 379 617 q 288 533 306 543 q 267 513 275 525 q 249 490 258 501 q 249 482 247 489 q 260 469 251 475 q 281 460 268 464 q 293 444 293 457 q 306 434 293 435 q 317 421 319 433 q 331 408 324 414 q 343 394 338 401 q 386 357 363 374 q 424 314 410 340 q 453 294 431 313 q 505 249 476 276 q 561 195 533 222 q 608 148 589 168 q 628 125 626 128 q 643 112 633 115 q 657 97 653 108 q 672 79 660 90 q 697 58 685 68 q 708 44 708 49 q 719 31 711 38 q 718 17 726 24 q 695 4 710 10 q 674 1 681 -1 q 646 2 663 4 q 628 1 629 0 q 581 10 613 11 q 519 7 550 10 q 469 7 488 4 q 458 1 463 7 q 444 1 453 -4 q 424 7 438 7 l 226 7 q 210 5 218 8 q 194 -3 201 1 m 213 500 q 247 543 224 519 q 292 587 271 567 q 315 611 314 607 q 333 638 319 619 q 364 672 347 656 q 392 692 381 688 q 417 719 392 714 q 435 734 431 722 q 446 756 440 746 q 472 776 456 758 q 505 816 488 793 q 536 858 522 839 q 556 882 550 876 q 580 905 563 889 q 603 929 597 921 l 582 929 q 562 927 575 928 q 542 926 549 926 l 258 926 q 242 926 250 926 q 226 925 233 926 l 224 924 q 221 925 222 925 q 211 919 211 922 q 210 893 210 910 q 207 851 210 876 q 203 748 206 789 q 206 689 201 707 q 215 641 213 657 q 211 597 217 625 q 208 569 208 581 q 207 556 207 557 l 203 504 l 213 500 m 340 769 q 299 790 322 769 q 287 808 288 801 q 294 822 286 814 l 315 842 q 335 849 322 849 q 357 844 349 850 q 372 830 364 836 q 386 815 379 824 q 388 810 388 815 l 388 803 q 340 769 369 769 m 338 797 q 351 807 347 797 l 351 813 q 343 821 346 815 q 329 819 338 825 l 322 814 q 324 804 318 810 q 338 797 331 797 m 233 43 q 361 44 268 43 q 610 47 454 44 q 639 46 628 47 q 654 46 650 44 q 639 61 651 51 q 624 72 626 71 q 600 96 619 78 q 558 136 581 114 q 516 176 535 158 q 493 199 497 194 q 481 205 483 199 q 474 217 478 211 q 461 221 471 224 q 408 279 439 253 q 333 346 376 306 q 324 360 328 353 q 313 374 321 368 q 298 383 304 378 q 285 393 292 389 q 270 401 271 392 q 258 415 269 410 q 238 431 243 422 q 225 443 232 440 q 216 444 222 444 q 210 442 210 444 q 208 434 208 438 q 207 426 207 431 q 214 349 206 358 q 207 305 208 336 q 206 233 206 274 q 208 155 207 193 q 211 90 210 117 q 213 60 213 64 q 216 47 213 50 q 233 43 219 43 m 346 131 q 303 150 324 131 q 290 168 290 163 q 300 183 290 174 l 319 204 q 340 211 326 211 q 364 207 354 211 q 378 192 371 199 q 394 176 385 186 q 396 171 396 176 l 396 164 q 346 131 374 131 m 343 158 q 357 168 353 158 l 357 174 q 349 182 351 176 q 335 181 343 186 l 328 175 q 329 165 324 171 q 343 158 336 158 z "},"Ḇ":{"ha":613,"x_min":54,"x_max":617,"o":"m 85 -3 q 69 -1 81 -7 q 56 11 57 6 q 56 22 54 17 q 57 32 57 26 q 58 116 57 65 q 58 223 58 167 q 58 328 58 279 q 56 408 57 378 q 58 425 56 417 q 67 440 60 433 q 65 458 68 442 q 62 495 63 474 q 65 533 61 517 q 68 548 68 540 q 65 561 68 556 q 58 578 60 569 q 57 596 57 586 l 65 635 q 58 649 60 642 q 57 664 57 657 l 57 935 q 65 953 57 944 q 85 958 72 961 q 111 964 100 958 q 136 969 122 969 l 336 969 q 358 961 349 969 q 374 958 368 953 q 481 969 388 969 l 535 958 q 541 956 538 958 q 547 950 544 953 q 551 943 553 946 q 546 938 549 940 q 542 927 544 932 q 536 919 540 922 q 486 865 521 906 q 406 772 451 824 q 315 668 361 719 q 233 580 269 617 q 178 533 196 543 q 157 513 165 525 q 139 490 149 501 q 140 482 138 489 q 150 469 142 475 q 171 460 158 464 q 183 444 183 457 q 197 434 183 435 q 207 421 210 433 q 221 408 214 414 q 233 394 228 401 q 276 357 253 374 q 314 314 300 340 q 344 294 321 313 q 395 249 367 276 q 451 195 424 222 q 498 148 479 168 q 518 125 517 128 q 533 112 524 115 q 547 97 543 108 q 563 79 550 90 q 587 58 575 68 q 599 44 599 49 q 609 31 601 38 q 608 17 617 24 q 585 4 600 10 q 564 1 571 -1 q 536 2 553 4 q 518 1 519 0 q 472 10 503 11 q 409 7 440 10 q 360 7 378 4 q 348 1 353 7 q 335 1 343 -4 q 314 7 328 7 l 117 7 q 100 5 108 8 q 85 -3 92 1 m 103 500 q 138 543 114 519 q 183 587 161 567 q 206 611 204 607 q 224 638 210 619 q 254 672 238 656 q 282 692 271 688 q 307 719 282 714 q 326 734 321 722 q 336 756 331 746 q 362 776 346 758 q 395 816 378 793 q 426 858 413 839 q 446 882 440 876 q 470 905 453 889 q 493 929 488 921 l 472 929 q 452 927 465 928 q 432 926 439 926 l 149 926 q 118 926 133 926 q 101 919 103 925 q 100 893 100 910 q 97 851 100 876 q 94 748 96 789 q 96 689 92 707 q 105 641 103 657 q 101 597 107 625 q 98 569 99 581 q 97 556 97 557 l 93 504 l 103 500 m 231 769 q 189 790 213 769 q 177 808 178 801 q 185 822 176 814 l 206 842 q 226 849 213 849 q 247 844 239 850 q 262 830 254 836 q 276 815 269 824 q 278 810 278 815 l 278 803 q 231 769 260 769 m 228 797 q 242 807 238 797 l 242 813 q 233 821 236 815 q 219 819 228 825 l 213 814 q 214 804 208 810 q 228 797 221 797 m 124 43 q 251 44 158 43 q 500 47 344 44 q 529 46 518 47 q 544 46 540 44 q 529 61 542 51 q 514 72 517 71 q 490 96 510 78 q 448 136 471 114 q 406 176 425 158 q 383 199 388 194 q 371 205 374 199 q 365 217 368 211 q 351 221 361 224 q 298 279 329 253 q 224 346 267 306 q 215 360 218 353 q 203 374 211 368 q 188 383 194 378 q 175 393 182 389 q 160 401 161 392 q 149 415 160 410 q 128 431 133 422 q 115 443 122 440 q 106 444 113 444 q 100 442 100 444 q 98 434 99 438 q 97 426 97 431 q 104 349 96 358 q 97 305 99 336 q 97 233 96 274 q 99 155 97 193 q 101 90 100 117 q 103 60 103 64 q 106 47 103 50 q 124 43 110 43 m 236 131 q 193 150 214 131 q 181 168 181 163 q 190 183 181 174 l 210 204 q 231 211 217 211 q 254 207 244 211 q 268 192 261 199 q 285 176 275 186 q 286 171 286 176 l 286 164 q 236 131 264 131 m 233 158 q 247 168 243 158 l 247 174 q 239 182 242 176 q 225 181 233 186 l 218 175 q 219 165 214 171 q 233 158 226 158 m 364 -136 q 340 -132 353 -136 q 320 -126 331 -128 q 299 -126 310 -124 q 274 -128 289 -128 q 225 -126 258 -128 q 210 -126 221 -126 q 199 -124 200 -125 q 169 -105 175 -117 q 164 -83 164 -93 l 257 -83 q 278 -85 275 -85 q 284 -85 281 -86 q 306 -83 288 -85 l 347 -83 q 369 -83 358 -83 q 390 -82 381 -82 q 401 -83 397 -82 q 410 -85 406 -83 q 415 -90 414 -86 q 422 -96 417 -94 q 426 -108 426 -96 q 422 -122 426 -121 q 393 -131 407 -126 q 364 -136 379 -136 z "},"Ƀ":{"ha":613,"x_min":-76,"x_max":617,"o":"m 85 -3 q 69 -1 81 -7 q 56 11 57 6 q 56 22 54 17 q 57 32 57 26 q 58 116 57 65 q 58 223 58 167 q 58 328 58 279 q 56 408 57 378 q 58 425 56 417 q 67 440 60 433 q 65 458 68 442 q 62 495 63 474 q 65 533 61 517 q 68 548 68 540 q 65 561 68 556 q 58 578 60 569 q 57 596 57 586 l 65 635 q 58 649 60 642 q 57 664 57 657 l 57 935 q 65 953 57 944 q 85 958 72 961 q 111 964 100 958 q 136 969 122 969 l 336 969 q 358 961 349 969 q 374 958 368 953 q 481 969 388 969 l 535 958 q 541 956 538 958 q 547 950 544 953 q 551 943 553 946 q 546 938 549 940 q 542 927 544 932 q 536 919 540 922 q 486 865 521 906 q 406 772 451 824 q 315 668 361 719 q 233 580 269 617 q 178 533 196 543 q 157 513 165 525 q 139 490 149 501 q 140 482 138 489 q 150 469 142 475 q 171 460 158 464 q 183 444 183 457 q 197 434 183 435 q 207 421 210 433 q 221 408 214 414 q 233 394 228 401 q 276 357 253 374 q 314 314 300 340 q 344 294 321 313 q 395 249 367 276 q 451 195 424 222 q 498 148 479 168 q 518 125 517 128 q 533 112 524 115 q 547 97 543 108 q 563 79 550 90 q 587 58 575 68 q 599 44 599 49 q 609 31 601 38 q 608 17 617 24 q 585 4 600 10 q 564 1 571 -1 q 536 2 553 4 q 518 1 519 0 q 472 10 503 11 q 409 7 440 10 q 360 7 378 4 q 348 1 353 7 q 335 1 343 -4 q 314 7 328 7 l 117 7 q 100 5 108 8 q 85 -3 92 1 m 103 500 q 138 543 114 519 q 183 587 161 567 q 206 611 204 607 q 224 638 210 619 q 254 672 238 656 q 282 692 271 688 q 307 719 282 714 q 326 734 321 722 q 336 756 331 746 q 362 776 346 758 q 395 816 378 793 q 426 858 413 839 q 446 882 440 876 q 470 905 453 889 q 493 929 488 921 l 472 929 q 452 927 465 928 q 432 926 439 926 l 149 926 q 118 926 133 926 q 101 919 103 925 q 100 893 100 910 q 97 851 100 876 q 94 748 96 789 q 96 689 92 707 q 105 641 103 657 q 101 597 107 625 q 98 569 99 581 q 97 556 97 557 l 93 504 l 103 500 m 231 769 q 189 790 213 769 q 177 808 178 801 q 185 822 176 814 l 206 842 q 226 849 213 849 q 247 844 239 850 q 262 830 254 836 q 276 815 269 824 q 278 810 278 815 l 278 803 q 231 769 260 769 m 228 797 q 242 807 238 797 l 242 813 q 233 821 236 815 q 219 819 228 825 l 213 814 q 214 804 208 810 q 228 797 221 797 m 124 43 q 251 44 158 43 q 500 47 344 44 q 529 46 518 47 q 544 46 540 44 q 529 61 542 51 q 514 72 517 71 q 490 96 510 78 q 448 136 471 114 q 406 176 425 158 q 383 199 388 194 q 371 205 374 199 q 365 217 368 211 q 351 221 361 224 q 298 279 329 253 q 224 346 267 306 q 215 360 218 353 q 203 374 211 368 q 188 383 194 378 q 175 393 182 389 q 160 401 161 392 q 149 415 160 410 q 128 431 133 422 q 115 443 122 440 q 106 444 113 444 q 100 442 100 444 q 98 434 99 438 q 97 426 97 431 q 104 349 96 358 q 97 305 99 336 q 97 233 96 274 q 99 155 97 193 q 101 90 100 117 q 103 60 103 64 q 106 47 103 50 q 124 43 110 43 m 236 131 q 193 150 214 131 q 181 168 181 163 q 190 183 181 174 l 210 204 q 231 211 217 211 q 254 207 244 211 q 268 192 261 199 q 285 176 275 186 q 286 171 286 176 l 286 164 q 236 131 264 131 m 233 158 q 247 168 243 158 l 247 174 q 239 182 242 176 q 225 181 233 186 l 218 175 q 219 165 214 171 q 233 158 226 158 m 29 469 q 8 470 24 469 q -20 472 -7 471 q -35 472 -33 472 q -66 492 -56 479 q -76 515 -76 506 l 88 515 q 104 515 104 515 q 107 515 104 515 q 131 515 110 515 q 151 516 150 517 q 169 515 151 515 q 208 516 188 515 q 246 517 228 517 q 264 516 256 517 q 281 514 272 515 q 290 508 288 513 q 300 503 292 504 q 308 494 308 503 q 300 483 308 485 q 250 474 275 479 q 199 469 225 469 q 164 472 189 469 q 119 472 139 474 q 81 469 94 471 q 29 469 68 468 z "},"Ƃ":{"ha":613,"x_min":56,"x_max":619,"o":"m 150 469 q 171 460 158 464 q 183 444 183 457 q 197 434 183 435 q 207 421 210 433 q 221 408 214 414 q 233 394 228 401 q 276 357 253 374 q 314 314 300 340 q 344 294 321 313 q 395 249 367 276 q 451 195 424 222 q 498 148 479 168 q 518 125 517 128 q 533 112 524 115 q 547 97 543 108 q 563 78 550 90 q 589 55 576 65 q 601 40 601 44 q 612 26 604 33 q 611 13 619 19 q 588 0 603 6 q 567 -3 574 -6 q 539 -2 556 0 q 521 -3 522 -4 q 474 6 506 7 q 412 3 443 6 q 363 3 381 0 q 351 -3 356 3 q 338 -3 346 -8 q 317 3 331 3 l 119 3 q 103 1 111 4 q 88 -7 94 -3 q 72 -5 83 -11 q 58 7 60 1 q 58 17 57 13 q 60 28 60 22 q 60 113 60 61 q 60 221 60 164 q 58 328 60 278 q 56 408 57 378 q 56 425 56 417 q 61 440 57 433 q 60 458 61 442 q 58 495 58 474 q 60 533 58 517 q 62 548 61 540 q 60 561 63 556 q 56 596 56 578 l 60 635 q 58 649 58 642 q 57 664 57 657 l 57 935 q 65 953 57 944 q 85 958 72 961 q 111 964 100 958 q 136 969 122 969 l 336 969 q 358 961 349 969 q 374 958 368 953 q 481 969 388 969 l 535 958 q 541 956 538 958 q 547 950 544 953 q 551 943 553 946 q 546 938 549 940 q 529 931 544 935 q 497 927 514 928 q 472 929 481 926 q 452 927 465 928 q 432 926 439 926 l 149 926 q 118 926 133 926 q 101 919 103 925 q 100 893 100 910 q 97 851 100 876 q 94 748 96 789 q 96 689 92 707 q 105 641 103 657 q 101 597 107 625 q 98 569 99 581 q 97 556 97 557 l 99 504 l 150 469 m 126 39 q 254 40 161 39 q 503 43 347 40 q 532 42 521 43 q 547 42 543 40 q 532 57 544 47 q 517 68 519 67 q 493 92 513 74 q 449 134 474 111 q 406 176 425 157 q 383 199 388 194 q 371 205 374 199 q 365 217 368 211 q 351 221 361 224 q 298 279 329 253 q 224 346 267 306 q 215 360 218 353 q 203 374 211 368 q 188 383 194 378 q 175 393 182 389 q 160 401 161 392 q 149 415 160 410 q 128 431 133 422 q 115 443 122 440 q 106 444 113 444 q 100 442 100 444 q 98 434 99 438 q 97 426 97 431 q 104 349 96 358 q 97 304 99 336 q 97 232 96 272 q 101 153 99 192 q 104 87 103 114 q 106 56 106 60 q 109 42 106 46 q 126 39 113 39 m 236 131 q 193 150 214 131 q 181 168 181 163 q 190 183 181 174 l 210 204 q 231 211 217 211 q 254 207 244 211 q 268 192 261 199 q 285 176 275 186 q 286 171 286 176 l 286 164 q 236 131 264 131 m 233 158 q 247 168 243 158 l 247 174 q 239 182 242 176 q 225 181 233 186 l 218 175 q 219 165 214 171 q 233 158 226 158 z "},"C":{"ha":663,"x_min":56,"x_max":636,"o":"m 85 -15 q 56 11 56 -15 l 56 51 q 56 68 56 58 q 60 105 57 78 q 67 186 63 132 q 66 230 67 211 q 65 271 65 249 q 64 328 64 293 q 65 421 64 364 q 67 438 65 429 q 76 451 69 446 q 76 468 82 460 q 67 487 69 478 q 65 506 65 496 q 69 621 65 585 q 72 658 72 657 q 71 674 72 664 q 67 712 69 683 q 65 803 65 740 q 74 826 65 818 q 76 844 83 835 q 66 864 65 857 q 76 886 67 871 q 77 913 85 897 q 63 942 69 928 q 67 965 57 957 q 89 972 78 972 q 131 958 100 972 q 198 926 161 944 q 266 893 235 908 q 307 875 297 878 q 350 859 317 874 q 426 825 383 844 q 504 788 468 806 q 557 763 540 771 q 570 761 564 758 q 576 772 576 764 q 576 797 576 776 q 576 842 576 817 q 576 890 576 868 q 576 921 576 913 q 581 944 576 933 q 589 965 585 954 q 598 970 592 969 q 608 967 604 971 q 619 958 615 963 q 624 946 624 953 q 624 886 624 901 q 622 863 625 871 q 626 851 621 857 q 633 841 631 846 q 626 829 636 836 q 633 810 633 822 q 627 788 633 799 q 621 764 621 776 q 622 747 621 756 q 624 731 624 739 q 599 708 622 713 q 563 713 576 703 q 524 732 554 718 q 452 764 493 746 q 370 800 411 782 q 300 832 329 818 q 264 851 271 846 q 233 864 254 861 q 180 884 213 867 q 128 911 147 901 q 117 908 118 917 q 117 876 117 900 q 112 862 117 869 q 113 839 107 854 q 115 828 115 835 q 115 814 115 821 l 115 493 q 115 478 115 486 q 108 464 115 471 q 110 455 104 460 q 115 431 115 450 q 115 418 115 425 q 115 404 114 411 q 109 392 117 397 q 111 378 101 386 q 115 360 114 375 q 114 329 115 344 q 108 311 113 314 q 109 302 103 306 q 113 293 115 299 q 104 275 104 282 q 103 227 104 240 q 103 208 103 214 q 103 189 103 201 q 103 144 103 176 q 104 46 103 111 q 117 44 107 39 q 136 51 128 49 q 198 81 160 63 q 275 117 236 99 q 341 149 314 136 q 369 163 368 163 q 406 172 382 163 q 458 193 431 181 q 508 217 485 206 q 540 233 531 228 q 563 238 551 239 q 583 247 574 238 q 597 249 588 250 q 613 247 606 249 q 622 238 622 247 q 622 185 622 201 q 622 161 622 169 q 622 137 622 153 q 622 85 622 121 q 635 56 622 68 q 629 30 633 49 q 624 7 625 11 q 620 -6 622 0 q 607 -11 618 -11 q 586 -5 597 -11 q 575 8 575 1 q 576 30 575 17 q 576 81 576 43 q 576 196 576 118 q 497 165 524 175 q 460 151 471 154 q 443 145 449 147 q 427 138 438 143 q 392 121 417 133 q 315 83 367 108 q 278 71 297 75 q 243 54 260 67 q 212 38 236 49 q 158 14 188 26 q 108 -7 129 1 q 85 -15 86 -15 m 358 429 q 324 447 333 429 q 314 474 314 464 q 328 502 314 490 q 369 514 343 514 q 392 511 383 517 q 410 494 401 506 q 410 463 421 479 q 387 441 400 453 q 358 429 374 429 m 363 461 q 376 471 372 461 q 376 479 379 474 q 367 483 371 485 q 353 474 353 483 q 355 467 353 472 q 363 461 357 461 z "},"Ć":{"ha":663,"x_min":56,"x_max":636,"o":"m 85 -15 q 56 11 56 -15 l 56 51 q 56 68 56 58 q 60 105 57 78 q 67 186 63 132 q 66 230 67 211 q 65 271 65 249 q 64 328 64 293 q 65 421 64 364 q 67 438 65 429 q 76 451 69 446 q 76 468 82 460 q 67 487 69 478 q 65 506 65 496 q 69 621 65 585 q 72 658 72 657 q 71 674 72 664 q 67 712 69 683 q 65 803 65 740 q 74 826 65 818 q 76 844 83 835 q 66 864 65 857 q 76 886 67 871 q 77 913 85 897 q 63 942 69 928 q 67 965 57 957 q 89 972 78 972 q 131 958 100 972 q 198 926 161 944 q 266 893 235 908 q 307 875 297 878 q 350 859 317 874 q 426 825 383 844 q 504 788 468 806 q 557 763 540 771 q 570 761 564 758 q 576 772 576 764 q 576 797 576 776 q 576 842 576 817 q 576 890 576 868 q 576 921 576 913 q 581 944 576 933 q 589 965 585 954 q 598 970 592 969 q 608 967 604 971 q 619 958 615 963 q 624 946 624 953 q 624 886 624 901 q 622 863 625 871 q 626 851 621 857 q 633 841 631 846 q 626 829 636 836 q 633 810 633 822 q 627 788 633 799 q 621 764 621 776 q 622 747 621 756 q 624 731 624 739 q 599 708 622 713 q 563 713 576 703 q 524 732 554 718 q 452 764 493 746 q 370 800 411 782 q 300 832 329 818 q 264 851 271 846 q 233 864 254 861 q 180 884 213 867 q 128 911 147 901 q 117 908 118 917 q 117 876 117 900 q 112 862 117 869 q 113 839 107 854 q 115 828 115 835 q 115 814 115 821 l 115 493 q 115 478 115 486 q 108 464 115 471 q 110 455 104 460 q 115 431 115 450 q 115 418 115 425 q 115 404 114 411 q 109 392 117 397 q 111 378 101 386 q 115 360 114 375 q 114 329 115 344 q 108 311 113 314 q 109 302 103 306 q 113 293 115 299 q 104 275 104 282 q 103 227 104 240 q 103 208 103 214 q 103 189 103 201 q 103 144 103 176 q 104 46 103 111 q 117 44 107 39 q 136 51 128 49 q 198 81 160 63 q 275 117 236 99 q 341 149 314 136 q 369 163 368 163 q 406 172 382 163 q 458 193 431 181 q 508 217 485 206 q 540 233 531 228 q 563 238 551 239 q 583 247 574 238 q 597 249 588 250 q 613 247 606 249 q 622 238 622 247 q 622 185 622 201 q 622 161 622 169 q 622 137 622 153 q 622 85 622 121 q 635 56 622 68 q 629 30 633 49 q 624 7 625 11 q 620 -6 622 0 q 607 -11 618 -11 q 586 -5 597 -11 q 575 8 575 1 q 576 30 575 17 q 576 81 576 43 q 576 196 576 118 q 497 165 524 175 q 460 151 471 154 q 443 145 449 147 q 427 138 438 143 q 392 121 417 133 q 315 83 367 108 q 278 71 297 75 q 243 54 260 67 q 212 38 236 49 q 158 14 188 26 q 108 -7 129 1 q 85 -15 86 -15 m 358 429 q 324 447 333 429 q 314 474 314 464 q 328 502 314 490 q 369 514 343 514 q 392 511 383 517 q 410 494 401 506 q 410 463 421 479 q 387 441 400 453 q 358 429 374 429 m 363 461 q 376 471 372 461 q 376 479 379 474 q 367 483 371 485 q 353 474 353 483 q 355 467 353 472 q 363 461 357 461 m 279 1029 q 308 1057 294 1043 q 338 1085 322 1071 q 383 1132 367 1110 q 404 1151 394 1142 q 424 1171 414 1160 q 435 1185 429 1178 q 451 1193 442 1192 q 458 1192 454 1196 q 465 1190 463 1189 q 478 1185 469 1193 q 483 1174 486 1178 q 470 1141 478 1157 q 440 1118 463 1125 q 425 1110 432 1115 q 411 1097 418 1104 q 387 1069 401 1085 q 349 1035 372 1054 q 305 1020 324 1017 q 279 1029 286 1024 z "},"Č":{"ha":663,"x_min":56,"x_max":636,"o":"m 85 -15 q 56 11 56 -15 l 56 51 q 56 68 56 58 q 60 105 57 78 q 67 186 63 132 q 66 230 67 211 q 65 271 65 249 q 64 328 64 293 q 65 421 64 364 q 67 438 65 429 q 76 451 69 446 q 76 468 82 460 q 67 487 69 478 q 65 506 65 496 q 69 621 65 585 q 72 658 72 657 q 71 674 72 664 q 67 712 69 683 q 65 803 65 740 q 74 826 65 818 q 76 844 83 835 q 66 864 65 857 q 76 886 67 871 q 77 913 85 897 q 63 942 69 928 q 67 965 57 957 q 89 972 78 972 q 131 958 100 972 q 198 926 161 944 q 266 893 235 908 q 307 875 297 878 q 350 859 317 874 q 426 825 383 844 q 504 788 468 806 q 557 763 540 771 q 570 761 564 758 q 576 772 576 764 q 576 797 576 776 q 576 842 576 817 q 576 890 576 868 q 576 921 576 913 q 581 944 576 933 q 589 965 585 954 q 598 970 592 969 q 608 967 604 971 q 619 958 615 963 q 624 946 624 953 q 624 886 624 901 q 622 863 625 871 q 626 851 621 857 q 633 841 631 846 q 626 829 636 836 q 633 810 633 822 q 627 788 633 799 q 621 764 621 776 q 622 747 621 756 q 624 731 624 739 q 599 708 622 713 q 563 713 576 703 q 524 732 554 718 q 452 764 493 746 q 370 800 411 782 q 300 832 329 818 q 264 851 271 846 q 233 864 254 861 q 180 884 213 867 q 128 911 147 901 q 117 908 118 917 q 117 876 117 900 q 112 862 117 869 q 113 839 107 854 q 115 828 115 835 q 115 814 115 821 l 115 493 q 115 478 115 486 q 108 464 115 471 q 110 455 104 460 q 115 431 115 450 q 115 418 115 425 q 115 404 114 411 q 109 392 117 397 q 111 378 101 386 q 115 360 114 375 q 114 329 115 344 q 108 311 113 314 q 109 302 103 306 q 113 293 115 299 q 104 275 104 282 q 103 227 104 240 q 103 208 103 214 q 103 189 103 201 q 103 144 103 176 q 104 46 103 111 q 117 44 107 39 q 136 51 128 49 q 198 81 160 63 q 275 117 236 99 q 341 149 314 136 q 369 163 368 163 q 406 172 382 163 q 458 193 431 181 q 508 217 485 206 q 540 233 531 228 q 563 238 551 239 q 583 247 574 238 q 597 249 588 250 q 613 247 606 249 q 622 238 622 247 q 622 185 622 201 q 622 161 622 169 q 622 137 622 153 q 622 85 622 121 q 635 56 622 68 q 629 30 633 49 q 624 7 625 11 q 620 -6 622 0 q 607 -11 618 -11 q 586 -5 597 -11 q 575 8 575 1 q 576 30 575 17 q 576 81 576 43 q 576 196 576 118 q 497 165 524 175 q 460 151 471 154 q 443 145 449 147 q 427 138 438 143 q 392 121 417 133 q 315 83 367 108 q 278 71 297 75 q 243 54 260 67 q 212 38 236 49 q 158 14 188 26 q 108 -7 129 1 q 85 -15 86 -15 m 358 429 q 324 447 333 429 q 314 474 314 464 q 328 502 314 490 q 369 514 343 514 q 392 511 383 517 q 410 494 401 506 q 410 463 421 479 q 387 441 400 453 q 358 429 374 429 m 363 461 q 376 471 372 461 q 376 479 379 474 q 367 483 371 485 q 353 474 353 483 q 355 467 353 472 q 363 461 357 461 m 440 1181 q 457 1181 450 1183 q 464 1177 460 1181 q 471 1171 468 1174 q 458 1153 472 1169 q 424 1113 444 1138 q 381 1065 403 1089 q 344 1025 360 1042 q 336 1020 342 1019 q 328 1026 331 1021 q 311 1051 322 1042 q 289 1071 300 1061 q 274 1085 279 1079 q 258 1101 269 1092 q 242 1116 250 1106 q 226 1131 233 1126 q 213 1149 221 1140 q 196 1167 204 1158 q 199 1181 190 1179 q 218 1179 207 1182 q 241 1168 225 1179 q 276 1141 257 1157 q 310 1111 294 1125 q 331 1090 325 1097 q 340 1088 338 1088 q 351 1092 343 1088 q 359 1101 354 1093 q 367 1113 364 1108 q 378 1127 369 1115 q 390 1142 388 1139 q 408 1159 394 1147 q 440 1181 421 1171 z "},"Ç":{"ha":663,"x_min":56,"x_max":636,"o":"m 85 -15 q 56 11 56 -15 l 56 51 q 56 68 56 58 q 60 105 57 78 q 67 186 63 132 q 66 230 67 211 q 65 271 65 249 q 64 328 64 293 q 65 421 64 364 q 67 438 65 429 q 76 451 69 446 q 76 468 82 460 q 67 487 69 478 q 65 506 65 496 q 69 621 65 585 q 72 658 72 657 q 71 674 72 664 q 67 712 69 683 q 65 803 65 740 q 74 826 65 818 q 76 844 83 835 q 66 864 65 857 q 76 886 67 871 q 77 913 85 897 q 63 942 69 928 q 67 965 57 957 q 89 972 78 972 q 131 958 100 972 q 198 926 161 944 q 266 893 235 908 q 307 875 297 878 q 350 859 317 874 q 426 825 383 844 q 504 788 468 806 q 557 763 540 771 q 570 761 564 758 q 576 772 576 764 q 576 797 576 776 q 576 842 576 817 q 576 890 576 868 q 576 921 576 913 q 581 944 576 933 q 589 965 585 954 q 598 970 592 969 q 608 967 604 971 q 619 958 615 963 q 624 946 624 953 q 624 886 624 901 q 622 863 625 871 q 626 851 621 857 q 633 841 631 846 q 626 829 636 836 q 633 810 633 822 q 627 788 633 799 q 621 764 621 776 q 622 747 621 756 q 624 731 624 739 q 599 708 622 713 q 563 713 576 703 q 524 732 554 718 q 452 764 493 746 q 370 800 411 782 q 300 832 329 818 q 264 851 271 846 q 233 864 254 861 q 180 884 213 867 q 128 911 147 901 q 117 908 118 917 q 117 876 117 900 q 112 862 117 869 q 113 839 107 854 q 115 828 115 835 q 115 814 115 821 l 115 493 q 115 478 115 486 q 108 464 115 471 q 110 455 104 460 q 115 431 115 450 q 115 418 115 425 q 115 404 114 411 q 109 392 117 397 q 111 378 101 386 q 115 360 114 375 q 114 329 115 344 q 108 311 113 314 q 109 302 103 306 q 113 293 115 299 q 104 275 104 282 q 103 227 104 240 q 103 208 103 214 q 103 189 103 201 q 103 144 103 176 q 104 46 103 111 q 117 44 107 39 q 136 51 128 49 q 198 81 160 63 q 275 117 236 99 q 341 149 314 136 q 369 163 368 163 q 406 172 382 163 q 458 193 431 181 q 508 217 485 206 q 540 233 531 228 q 563 238 551 239 q 583 247 574 238 q 597 249 588 250 q 613 247 606 249 q 622 238 622 247 q 622 185 622 201 q 622 161 622 169 q 622 137 622 153 q 622 85 622 121 q 635 56 622 68 q 629 30 633 49 q 624 7 625 11 q 620 -6 622 0 q 607 -11 618 -11 q 586 -5 597 -11 q 575 8 575 1 q 576 30 575 17 q 576 81 576 43 q 576 196 576 118 q 497 165 524 175 q 460 151 471 154 q 443 145 449 147 q 427 138 438 143 q 392 121 417 133 q 315 83 367 108 q 278 71 297 75 q 243 54 260 67 q 212 38 236 49 q 158 14 188 26 q 108 -7 129 1 q 85 -15 86 -15 m 358 429 q 324 447 333 429 q 314 474 314 464 q 328 502 314 490 q 369 514 343 514 q 392 511 383 517 q 410 494 401 506 q 410 463 421 479 q 387 441 400 453 q 358 429 374 429 m 363 461 q 376 471 372 461 q 376 479 379 474 q 367 483 371 485 q 353 474 353 483 q 355 467 353 472 q 363 461 357 461 m 282 -275 q 280 -265 281 -269 q 279 -256 279 -260 q 288 -237 279 -240 q 301 -233 296 -233 q 327 -232 304 -233 q 375 -228 350 -231 q 407 -228 400 -226 q 415 -228 410 -228 q 424 -229 419 -229 q 436 -228 433 -229 q 439 -218 439 -226 q 436 -194 439 -203 q 438 -181 433 -186 q 440 -172 440 -178 q 439 -161 439 -165 q 440 -144 439 -153 q 442 -125 442 -135 q 442 -117 442 -122 q 440 -108 442 -111 q 426 -101 440 -103 q 397 -101 413 -100 q 374 -101 381 -101 q 329 -103 350 -101 q 307 -103 308 -104 q 288 -94 297 -101 q 279 -79 279 -87 q 292 -66 279 -72 q 336 -60 304 -60 q 374 -57 356 -57 q 410 -57 393 -57 q 440 -57 428 -57 q 458 -58 453 -57 q 481 -74 475 -58 q 486 -107 486 -89 q 485 -156 486 -129 q 483 -194 483 -183 q 494 -239 483 -221 q 483 -258 496 -240 q 456 -275 471 -275 l 282 -275 z "},"Ḉ":{"ha":663,"x_min":56,"x_max":636,"o":"m 85 -15 q 56 11 56 -15 l 56 51 q 56 68 56 58 q 60 105 57 78 q 67 186 63 132 q 66 230 67 211 q 65 271 65 249 q 64 328 64 293 q 65 421 64 364 q 67 438 65 429 q 76 451 69 446 q 76 468 82 460 q 67 487 69 478 q 65 506 65 496 q 69 621 65 585 q 72 658 72 657 q 71 674 72 664 q 67 712 69 683 q 65 803 65 740 q 74 826 65 818 q 76 844 83 835 q 66 864 65 857 q 76 886 67 871 q 77 913 85 897 q 63 942 69 928 q 67 965 57 957 q 89 972 78 972 q 131 958 100 972 q 198 926 161 944 q 266 893 235 908 q 307 875 297 878 q 350 859 317 874 q 426 825 383 844 q 504 788 468 806 q 557 763 540 771 q 570 761 564 758 q 576 772 576 764 q 576 797 576 776 q 576 842 576 817 q 576 890 576 868 q 576 921 576 913 q 581 944 576 933 q 589 965 585 954 q 598 970 592 969 q 608 967 604 971 q 619 958 615 963 q 624 946 624 953 q 624 886 624 901 q 622 863 625 871 q 626 851 621 857 q 633 841 631 846 q 626 829 636 836 q 633 810 633 822 q 627 788 633 799 q 621 764 621 776 q 622 747 621 756 q 624 731 624 739 q 599 708 622 713 q 563 713 576 703 q 524 732 554 718 q 452 764 493 746 q 370 800 411 782 q 300 832 329 818 q 264 851 271 846 q 233 864 254 861 q 180 884 213 867 q 128 911 147 901 q 117 908 118 917 q 117 876 117 900 q 112 862 117 869 q 113 839 107 854 q 115 828 115 835 q 115 814 115 821 l 115 493 q 115 478 115 486 q 108 464 115 471 q 110 455 104 460 q 115 431 115 450 q 115 418 115 425 q 115 404 114 411 q 109 392 117 397 q 111 378 101 386 q 115 360 114 375 q 114 329 115 344 q 108 311 113 314 q 109 302 103 306 q 113 293 115 299 q 104 275 104 282 q 103 227 104 240 q 103 208 103 214 q 103 189 103 201 q 103 144 103 176 q 104 46 103 111 q 117 44 107 39 q 136 51 128 49 q 198 81 160 63 q 275 117 236 99 q 341 149 314 136 q 369 163 368 163 q 406 172 382 163 q 458 193 431 181 q 508 217 485 206 q 540 233 531 228 q 563 238 551 239 q 583 247 574 238 q 597 249 588 250 q 613 247 606 249 q 622 238 622 247 q 622 185 622 201 q 622 161 622 169 q 622 137 622 153 q 622 85 622 121 q 635 56 622 68 q 629 30 633 49 q 624 7 625 11 q 620 -6 622 0 q 607 -11 618 -11 q 586 -5 597 -11 q 575 8 575 1 q 576 30 575 17 q 576 81 576 43 q 576 196 576 118 q 497 165 524 175 q 460 151 471 154 q 443 145 449 147 q 427 138 438 143 q 392 121 417 133 q 315 83 367 108 q 278 71 297 75 q 243 54 260 67 q 212 38 236 49 q 158 14 188 26 q 108 -7 129 1 q 85 -15 86 -15 m 358 429 q 324 447 333 429 q 314 474 314 464 q 328 502 314 490 q 369 514 343 514 q 392 511 383 517 q 410 494 401 506 q 410 463 421 479 q 387 441 400 453 q 358 429 374 429 m 363 461 q 376 471 372 461 q 376 479 379 474 q 367 483 371 485 q 353 474 353 483 q 355 467 353 472 q 363 461 357 461 m 279 1029 q 308 1057 294 1043 q 338 1085 322 1071 q 383 1132 367 1110 q 404 1151 394 1142 q 424 1171 414 1160 q 435 1185 429 1178 q 451 1193 442 1192 q 458 1192 454 1196 q 465 1190 463 1189 q 478 1185 469 1193 q 483 1174 486 1178 q 470 1141 478 1157 q 440 1118 463 1125 q 425 1110 432 1115 q 411 1097 418 1104 q 387 1069 401 1085 q 349 1035 372 1054 q 305 1020 324 1017 q 279 1029 286 1024 m 282 -275 q 280 -265 281 -269 q 279 -256 279 -260 q 288 -237 279 -240 q 301 -233 296 -233 q 327 -232 304 -233 q 375 -228 350 -231 q 407 -228 400 -226 q 415 -228 410 -228 q 424 -229 419 -229 q 436 -228 433 -229 q 439 -218 439 -226 q 436 -194 439 -203 q 438 -181 433 -186 q 440 -172 440 -178 q 439 -161 439 -165 q 440 -144 439 -153 q 442 -125 442 -135 q 442 -117 442 -122 q 440 -108 442 -111 q 426 -101 440 -103 q 397 -101 413 -100 q 374 -101 381 -101 q 329 -103 350 -101 q 307 -103 308 -104 q 288 -94 297 -101 q 279 -79 279 -87 q 292 -66 279 -72 q 336 -60 304 -60 q 374 -57 356 -57 q 410 -57 393 -57 q 440 -57 428 -57 q 458 -58 453 -57 q 481 -74 475 -58 q 486 -107 486 -89 q 485 -156 486 -129 q 483 -194 483 -183 q 494 -239 483 -221 q 483 -258 496 -240 q 456 -275 471 -275 l 282 -275 z "},"Ĉ":{"ha":663,"x_min":56,"x_max":636,"o":"m 85 -15 q 56 11 56 -15 l 56 51 q 56 68 56 58 q 60 105 57 78 q 67 186 63 132 q 66 230 67 211 q 65 271 65 249 q 64 328 64 293 q 65 421 64 364 q 67 438 65 429 q 76 451 69 446 q 76 468 82 460 q 67 487 69 478 q 65 506 65 496 q 69 621 65 585 q 72 658 72 657 q 71 674 72 664 q 67 712 69 683 q 65 803 65 740 q 74 826 65 818 q 76 844 83 835 q 66 864 65 857 q 76 886 67 871 q 77 913 85 897 q 63 942 69 928 q 67 965 57 957 q 89 972 78 972 q 131 958 100 972 q 198 926 161 944 q 266 893 235 908 q 307 875 297 878 q 350 859 317 874 q 426 825 383 844 q 504 788 468 806 q 557 763 540 771 q 570 761 564 758 q 576 772 576 764 q 576 797 576 776 q 576 842 576 817 q 576 890 576 868 q 576 921 576 913 q 581 944 576 933 q 589 965 585 954 q 598 970 592 969 q 608 967 604 971 q 619 958 615 963 q 624 946 624 953 q 624 886 624 901 q 622 863 625 871 q 626 851 621 857 q 633 841 631 846 q 626 829 636 836 q 633 810 633 822 q 627 788 633 799 q 621 764 621 776 q 622 747 621 756 q 624 731 624 739 q 599 708 622 713 q 563 713 576 703 q 524 732 554 718 q 452 764 493 746 q 370 800 411 782 q 300 832 329 818 q 264 851 271 846 q 233 864 254 861 q 180 884 213 867 q 128 911 147 901 q 117 908 118 917 q 117 876 117 900 q 112 862 117 869 q 113 839 107 854 q 115 828 115 835 q 115 814 115 821 l 115 493 q 115 478 115 486 q 108 464 115 471 q 110 455 104 460 q 115 431 115 450 q 115 418 115 425 q 115 404 114 411 q 109 392 117 397 q 111 378 101 386 q 115 360 114 375 q 114 329 115 344 q 108 311 113 314 q 109 302 103 306 q 113 293 115 299 q 104 275 104 282 q 103 227 104 240 q 103 208 103 214 q 103 189 103 201 q 103 144 103 176 q 104 46 103 111 q 117 44 107 39 q 136 51 128 49 q 198 81 160 63 q 275 117 236 99 q 341 149 314 136 q 369 163 368 163 q 406 172 382 163 q 458 193 431 181 q 508 217 485 206 q 540 233 531 228 q 563 238 551 239 q 583 247 574 238 q 597 249 588 250 q 613 247 606 249 q 622 238 622 247 q 622 185 622 201 q 622 161 622 169 q 622 137 622 153 q 622 85 622 121 q 635 56 622 68 q 629 30 633 49 q 624 7 625 11 q 620 -6 622 0 q 607 -11 618 -11 q 586 -5 597 -11 q 575 8 575 1 q 576 30 575 17 q 576 81 576 43 q 576 196 576 118 q 497 165 524 175 q 460 151 471 154 q 443 145 449 147 q 427 138 438 143 q 392 121 417 133 q 315 83 367 108 q 278 71 297 75 q 243 54 260 67 q 212 38 236 49 q 158 14 188 26 q 108 -7 129 1 q 85 -15 86 -15 m 358 429 q 324 447 333 429 q 314 474 314 464 q 328 502 314 490 q 369 514 343 514 q 392 511 383 517 q 410 494 401 506 q 410 463 421 479 q 387 441 400 453 q 358 429 374 429 m 363 461 q 376 471 372 461 q 376 479 379 474 q 367 483 371 485 q 353 474 353 483 q 355 467 353 472 q 363 461 357 461 m 446 1018 q 413 1040 426 1029 q 396 1057 400 1051 q 384 1072 393 1060 q 372 1086 375 1085 q 365 1098 369 1090 q 357 1107 360 1106 q 346 1111 349 1111 q 336 1108 343 1111 q 315 1088 331 1103 q 281 1058 300 1074 q 247 1031 263 1042 q 224 1019 231 1019 q 204 1019 213 1018 q 201 1032 196 1019 q 218 1049 210 1040 q 232 1068 226 1058 q 247 1083 239 1072 q 264 1097 256 1093 q 280 1113 275 1107 q 294 1128 285 1119 q 317 1147 306 1138 q 333 1172 328 1157 q 342 1178 336 1178 q 350 1174 347 1179 q 387 1133 365 1157 q 429 1085 408 1110 q 464 1045 450 1061 q 476 1028 478 1029 q 469 1022 474 1026 q 463 1018 465 1018 q 446 1018 456 1015 z "}}}
